<?xml version="1.0" encoding="UTF-8"?>
<svg version="1.1" xmlns="http://www.w3.org/2000/svg" width="512" height="512">
<path d="M0 0 C1.17620022 -0.00644889 2.35240043 -0.01289778 3.56424308 -0.0195421 C5.48883365 -0.01489629 5.48883365 -0.01489629 7.45230484 -0.01015663 C8.83629169 -0.01389476 10.22027642 -0.01849693 11.60425782 -0.02388728 C15.40234867 -0.03611274 19.2003514 -0.03585735 22.99845743 -0.03349853 C27.09675483 -0.03309024 31.19502402 -0.04413065 35.29330826 -0.05361366 C43.32101266 -0.0702224 51.34868769 -0.07572316 59.37640783 -0.07683842 C65.90269019 -0.077789 72.42896286 -0.08189981 78.95524216 -0.08823967 C97.4625511 -0.10585213 115.96983685 -0.11507859 134.47715423 -0.11357872 C135.97357052 -0.11345885 135.97357052 -0.11345885 137.50021744 -0.11333656 C138.49904789 -0.1132548 139.49787834 -0.11317304 140.52697638 -0.1130888 C156.71206152 -0.11227601 172.89705358 -0.13141183 189.08211181 -0.1596133 C205.70483909 -0.18834857 222.327521 -0.20215322 238.95027375 -0.20042574 C248.281046 -0.19976204 257.61172068 -0.20524569 266.94247055 -0.22678185 C274.88746531 -0.24500214 282.83231827 -0.24933405 290.77732489 -0.235763 C294.82923788 -0.22923747 298.88087891 -0.22910093 302.93276596 -0.2464695 C306.64639808 -0.26222406 310.35954313 -0.25931272 314.07316354 -0.24190123 C316.04385782 -0.23739123 318.01456734 -0.25247002 319.98520255 -0.26838052 C329.84381794 -0.19196629 338.1463045 1.67583393 345.51095963 8.55414391 C351.60080996 15.32754887 354.30125974 22.42798533 354.26926041 31.54779625 C354.26955246 32.25092949 354.26984451 32.95406273 354.27014542 33.67850304 C354.26876124 35.98353332 354.2532436 38.28823316 354.23752213 40.59320641 C354.23378874 42.19888698 354.23094331 43.80456985 354.22894669 45.41025352 C354.22133584 49.6221408 354.20170942 53.83388861 354.17953873 58.04572105 C354.15902523 62.34929074 354.14993323 66.6528831 354.13986588 70.95648766 C354.11846096 79.39014517 354.08435602 87.82368966 354.04220963 96.25726891 C355.7812355 96.22584801 355.7812355 96.22584801 357.55539322 96.19379234 C361.8977132 96.1208466 366.23998012 96.07527264 370.58273697 96.03754234 C372.45457472 96.01755028 374.32635101 95.99034722 376.19797134 95.95551109 C399.8452198 95.52670765 399.8452198 95.52670765 409.51095963 104.55414391 C415.30923737 111.00324874 418.28841916 117.99984288 418.29947853 126.71481514 C418.30592742 128.00248401 418.31237632 129.29015289 418.31902063 130.61684203 C418.31607859 132.03863104 418.31294318 133.46041966 418.30963516 134.88220787 C418.31337268 136.39818811 418.31797461 137.91416643 418.32336581 139.43014169 C418.33559878 143.59308074 418.33533499 147.75593945 418.33297706 151.91889238 C418.33256896 156.40983029 418.34360735 160.90074242 418.35309219 165.39166832 C418.369705 174.1894033 418.37520187 182.98711147 418.37631695 191.78486082 C418.37726733 198.93661964 418.38137712 206.08836963 418.3877182 213.24012566 C418.40533169 233.51823508 418.41455695 253.79632333 418.41305725 274.07444045 C418.41293738 275.71423253 418.41293738 275.71423253 418.41281509 277.38715172 C418.41273333 278.48168184 418.41265157 279.57621196 418.41256733 280.70390967 C418.41175449 298.44095766 418.4308914 316.17792072 418.45909183 333.91494414 C418.48782166 352.12872831 418.50163205 370.34247106 418.49990427 388.55627847 C418.49924039 398.78130889 418.50473206 409.00625029 418.52626038 419.2312603 C418.5444735 427.93748555 418.54881844 436.64358143 418.53524153 445.34981748 C418.52871244 449.79057295 418.52859249 454.23108022 418.54594803 458.67181206 C418.56168656 462.74071099 418.55880733 466.80916508 418.54137976 470.87805322 C418.53831156 472.34641553 418.54193552 473.81481111 418.55309992 475.28313419 C418.63070925 486.21842294 417.44758135 495.47916888 409.74533463 503.72601891 C402.76713892 509.99999303 395.43744399 512.5674993 386.0826025 512.51453781 C384.90115437 512.51979692 384.90115437 512.51979692 383.6958386 512.52516228 C381.05249214 512.53447765 378.40936592 512.52955261 375.76601028 512.52469444 C373.85333699 512.52843063 371.94066522 512.53303202 370.02799588 512.53842509 C364.76857978 512.55067434 359.5092272 512.55039235 354.24980009 512.54803634 C348.57891378 512.54762866 342.90804796 512.55866261 337.23717117 512.56815147 C326.12566913 512.58477283 315.01418831 512.59026153 303.90267488 512.59137623 C294.87209407 512.59232613 285.84152028 512.59643353 276.8109417 512.60277748 C255.38111664 512.61752579 233.9512985 512.62982689 212.52146816 512.62878036 C211.83614406 512.62874921 211.15081997 512.62871805 210.44472847 512.62868595 C206.97122623 512.62851973 203.49772398 512.62832165 200.02422174 512.62811653 C199.33437255 512.62807664 198.64452336 512.62803675 197.93376965 512.62799565 C196.53872653 512.62791478 195.14368341 512.62783118 193.74864029 512.62774487 C172.04365419 512.62651934 150.33873058 512.64153298 128.63376236 512.66889 C104.24792365 512.69961334 79.86213641 512.71679701 55.47627527 512.71496356 C42.5645869 512.71429914 29.652969 512.71981416 16.74129677 512.74131966 C5.74878645 512.7595111 -5.24362145 512.76389549 -16.23614029 512.75030081 C-21.84533174 512.74376101 -27.45432658 512.74369062 -33.06349945 512.76100731 C-38.19877522 512.77669804 -43.33369783 512.77391518 -48.46896478 512.75643905 C-50.32626996 512.75336035 -52.18360124 512.75703415 -54.04087565 512.7681592 C-71.77576441 512.86735151 -71.77576441 512.86735151 -78.95779037 508.25726891 C-79.76732162 507.78805016 -80.57685287 507.31883141 -81.41091537 506.83539391 C-88.11031101 501.88366669 -91.6337587 496.23279879 -93.95779037 488.25726891 C-94.21079004 485.16395783 -94.21079004 485.16395783 -94.21505928 481.79972267 C-94.22150817 480.5120538 -94.22795707 479.22438492 -94.23460138 477.89769578 C-94.23165934 476.47590677 -94.22852393 475.05411815 -94.22521591 473.63232994 C-94.22895343 472.1163497 -94.23355536 470.60037139 -94.23894656 469.08439612 C-94.25117953 464.92145707 -94.25091574 460.75859836 -94.24855781 456.59564543 C-94.24814971 452.10470752 -94.2591881 447.61379539 -94.26867294 443.12286949 C-94.28528575 434.32513452 -94.29078262 425.52742634 -94.2918977 416.72967699 C-94.29284808 409.57791817 -94.29695787 402.42616818 -94.30329895 395.27441216 C-94.32091244 374.99630274 -94.3301377 354.71821449 -94.328638 334.44009736 C-94.32855809 333.34690264 -94.32847818 332.25370792 -94.32839584 331.12738609 C-94.32831408 330.03285597 -94.32823232 328.93832585 -94.32814808 327.81062815 C-94.32733524 310.07358015 -94.34647215 292.3366171 -94.37467258 274.59959367 C-94.40340241 256.3858095 -94.4172128 238.17206675 -94.41548502 219.95825934 C-94.41482114 209.73322892 -94.42031281 199.50828752 -94.44184113 189.28327751 C-94.46005424 180.57705226 -94.46439919 171.87095638 -94.45082228 163.16472033 C-94.44429319 158.72396486 -94.44417324 154.2834576 -94.46152878 149.84272575 C-94.47726731 145.77382682 -94.47438808 141.70537273 -94.45696051 137.63648459 C-94.45389231 136.16812228 -94.45751627 134.6997267 -94.46868066 133.23140362 C-94.54629 122.29611487 -93.3631621 113.03536893 -85.66091537 104.78851891 C-78.15915174 98.04381398 -70.52050992 95.94088817 -60.62185287 96.06195641 C-59.30282471 96.06620125 -59.30282471 96.06620125 -57.95714951 96.07053185 C-55.16555444 96.08167179 -52.37428747 96.10676479 -49.58279037 96.13226891 C-47.68305545 96.14230671 -45.78331546 96.15143116 -43.88357162 96.15961266 C-39.24151931 96.18159085 -34.59971036 96.21607781 -29.95779037 96.25726891 C-29.96667282 95.37745354 -29.97555527 94.49763817 -29.98470688 93.59116173 C-30.06513998 85.26499321 -30.1259 76.9389568 -30.16503906 68.61248779 C-30.18583796 64.33261614 -30.21401307 60.05306781 -30.25954819 55.77338219 C-30.30328305 51.6366048 -30.32698525 47.50013673 -30.33729935 43.36314583 C-30.34464149 41.79160639 -30.35897803 40.22008224 -30.3807106 38.64867592 C-30.53095231 27.32610564 -29.76084866 17.46117475 -21.66091537 8.78851891 C-15.41006072 3.16848445 -8.47204298 0.01178279 0 0 Z " fill="#459ECB" transform="translate(93.95779037475586,-0.25726890563964844)"/>
<path d="M0 0 C1.17620022 -0.00644889 2.35240043 -0.01289778 3.56424308 -0.0195421 C5.48883365 -0.01489629 5.48883365 -0.01489629 7.45230484 -0.01015663 C8.83629169 -0.01389476 10.22027642 -0.01849693 11.60425782 -0.02388728 C15.40234867 -0.03611274 19.2003514 -0.03585735 22.99845743 -0.03349853 C27.09675483 -0.03309024 31.19502402 -0.04413065 35.29330826 -0.05361366 C43.32101266 -0.0702224 51.34868769 -0.07572316 59.37640783 -0.07683842 C65.90269019 -0.077789 72.42896286 -0.08189981 78.95524216 -0.08823967 C97.4625511 -0.10585213 115.96983685 -0.11507859 134.47715423 -0.11357872 C135.97357052 -0.11345885 135.97357052 -0.11345885 137.50021744 -0.11333656 C138.49904789 -0.1132548 139.49787834 -0.11317304 140.52697638 -0.1130888 C156.71206152 -0.11227601 172.89705358 -0.13141183 189.08211181 -0.1596133 C205.70483909 -0.18834857 222.327521 -0.20215322 238.95027375 -0.20042574 C248.281046 -0.19976204 257.61172068 -0.20524569 266.94247055 -0.22678185 C274.88746531 -0.24500214 282.83231827 -0.24933405 290.77732489 -0.235763 C294.82923788 -0.22923747 298.88087891 -0.22910093 302.93276596 -0.2464695 C306.64639808 -0.26222406 310.35954313 -0.25931272 314.07316354 -0.24190123 C316.04385782 -0.23739123 318.01456734 -0.25247002 319.98520255 -0.26838052 C329.84381794 -0.19196629 338.1463045 1.67583393 345.51095963 8.55414391 C352.11766249 15.90241546 354.35148154 23.46737635 354.28271866 33.17899132 C354.28528671 34.50655449 354.28528671 34.50655449 354.28790665 35.86093712 C354.29121141 38.82955596 354.28017911 41.7979481 354.26926041 44.76654625 C354.26864764 46.92993538 354.26891489 49.09332492 354.26999092 51.25671387 C354.27044238 57.04933711 354.25885193 62.84187769 354.24477005 68.63448143 C354.23337892 74.07035139 354.23284374 79.50620126 354.23141861 84.94208336 C354.22092459 100.83882282 354.19300228 116.73554691 354.16720963 132.63226891 C354.12595963 168.14851891 354.08470963 203.66476891 354.04220963 240.25726891 C227.32220963 240.25726891 100.60220963 240.25726891 -29.95779037 240.25726891 C-30.08154037 187.10664391 -30.08154037 187.10664391 -30.20779037 132.88226891 C-30.24420639 121.69659019 -30.28062241 110.51091148 -30.31814194 98.98627281 C-30.33620834 85.32050133 -30.33620834 85.32050133 -30.33956528 78.9216671 C-30.34328982 74.45535893 -30.3582715 69.98924121 -30.38009262 65.52298546 C-30.40757945 59.82134769 -30.41574569 54.11998587 -30.41007948 48.41828799 C-30.41126389 46.32868681 -30.41916602 44.23907574 -30.4346509 42.1495316 C-30.60270201 18.36255308 -30.60270201 18.36255308 -21.66091537 8.78851891 C-15.41006072 3.16848445 -8.47204298 0.01178279 0 0 Z " fill="#E9E9E9" transform="translate(93.95779037475586,-0.25726890563964844)"/>
<path d="M0 0 C1.17620022 -0.00644889 2.35240043 -0.01289778 3.56424308 -0.0195421 C5.48883365 -0.01489629 5.48883365 -0.01489629 7.45230484 -0.01015663 C8.83629169 -0.01389476 10.22027642 -0.01849693 11.60425782 -0.02388728 C15.40234867 -0.03611274 19.2003514 -0.03585735 22.99845743 -0.03349853 C27.09675483 -0.03309024 31.19502402 -0.04413065 35.29330826 -0.05361366 C43.32101266 -0.0702224 51.34868769 -0.07572316 59.37640783 -0.07683842 C65.90269019 -0.077789 72.42896286 -0.08189981 78.95524216 -0.08823967 C97.4625511 -0.10585213 115.96983685 -0.11507859 134.47715423 -0.11357872 C135.97357052 -0.11345885 135.97357052 -0.11345885 137.50021744 -0.11333656 C138.49904789 -0.1132548 139.49787834 -0.11317304 140.52697638 -0.1130888 C156.71206152 -0.11227601 172.89705358 -0.13141183 189.08211181 -0.1596133 C205.70483909 -0.18834857 222.327521 -0.20215322 238.95027375 -0.20042574 C248.281046 -0.19976204 257.61172068 -0.20524569 266.94247055 -0.22678185 C274.88746531 -0.24500214 282.83231827 -0.24933405 290.77732489 -0.235763 C294.82923788 -0.22923747 298.88087891 -0.22910093 302.93276596 -0.2464695 C306.64639808 -0.26222406 310.35954313 -0.25931272 314.07316354 -0.24190123 C316.04385782 -0.23739123 318.01456734 -0.25247002 319.98520255 -0.26838052 C329.84381794 -0.19196629 338.1463045 1.67583393 345.51095963 8.55414391 C351.92983714 15.69350767 354.35920426 23.09414711 354.26926041 32.64935875 C354.26955246 33.46953484 354.26984451 34.28971092 354.27014542 35.13474083 C354.26875882 37.82933925 354.25322934 40.52365665 354.23752213 43.21820641 C354.23378961 45.09293021 354.23094376 46.96765597 354.22894669 48.84238243 C354.22132901 53.76446529 354.20169657 58.68642918 354.17953873 63.60846519 C354.15904006 68.63591465 354.14993638 73.66338341 354.13986588 78.69086266 C354.1184489 88.54638353 354.08433552 98.40181631 354.04220963 108.25726891 C352.55809899 105.34584835 351.3531948 102.45153479 350.22970963 99.38226891 C347.15132404 91.70321915 342.56038465 86.84726252 335.04220963 83.25726891 C328.31795467 80.736016 321.73470579 80.97247851 314.61902237 80.98984337 C313.24583416 80.98610402 311.87264808 80.98150137 310.49946535 80.97611272 C306.73590769 80.96390264 302.97243906 80.96414082 299.20886612 80.96650147 C295.14605216 80.96691014 291.08326655 80.95586584 287.02046585 80.94638634 C279.06475602 80.92978689 271.10907583 80.92427729 263.15335013 80.92316158 C256.68619825 80.92221072 250.21905614 80.91809851 243.75190735 80.91176033 C225.41145344 80.89415171 207.07102292 80.884921 188.7305605 80.88642128 C187.24803971 80.88654115 187.24803971 80.88654115 185.735569 80.88666344 C184.74601359 80.8867452 183.75645817 80.88682696 182.73691623 80.8869112 C166.6967156 80.88772425 150.65660884 80.86858071 134.61643536 80.8403867 C118.14171281 80.8116576 101.66703604 80.79784639 85.1922878 80.79957426 C75.94484007 80.80023809 66.69749077 80.79474847 57.45006561 80.77321815 C49.57752975 80.75500614 41.70513697 80.75065927 33.83258916 80.764237 C29.81724701 80.77076623 25.80217936 80.77088559 21.78686333 80.7535305 C18.10786295 80.73779275 14.42935457 80.74067012 10.75036614 80.75809877 C8.7958807 80.76261575 6.84137995 80.74751692 4.88695395 80.73161948 C-5.81815444 80.81551813 -14.10479929 83.85047049 -21.95779037 91.25726891 C-25.6943244 96.50861402 -27.31283953 102.06377975 -28.95779037 108.25726891 C-29.28779037 108.25726891 -29.61779037 108.25726891 -29.95779037 108.25726891 C-30.05073582 97.47781073 -30.12167958 86.69844892 -30.16503906 75.91867065 C-30.18585629 70.91241421 -30.21406614 65.90643325 -30.25954819 60.90033531 C-30.30321593 56.06330621 -30.32697153 51.22654102 -30.33729935 46.38932991 C-30.34465331 44.54985339 -30.35901341 42.71039025 -30.3807106 40.87102699 C-30.51808612 28.73535276 -30.42646686 18.17385686 -21.66091537 8.78851891 C-15.41006072 3.16848445 -8.47204298 0.01178279 0 0 Z " fill="#DEDEDE" transform="translate(93.95779037475586,-0.25726890563964844)"/>
<path d="M0 0 C1.3850726 -0.00576172 1.3850726 -0.00576172 2.79812646 -0.01163983 C4.3299008 -0.01034011 4.3299008 -0.01034011 5.89262009 -0.00901413 C7.51204533 -0.01347081 7.51204533 -0.01347081 9.16418624 -0.01801753 C12.80615481 -0.02673569 16.44809062 -0.02821541 20.09006882 -0.02970505 C22.69143367 -0.03433103 25.29279785 -0.03935539 27.89416122 -0.04475021 C34.97892873 -0.0583452 42.06369059 -0.06436024 49.14846897 -0.06876087 C53.57111926 -0.07152167 57.99376736 -0.07575876 62.41641617 -0.08026505 C74.65780246 -0.09245989 86.89918699 -0.10275835 99.14057922 -0.10614014 C99.92441659 -0.1063597 100.70825396 -0.10657927 101.51584397 -0.10680549 C102.30157623 -0.10702377 103.08730849 -0.10724204 103.89685082 -0.10746694 C105.48908885 -0.1079104 107.08132688 -0.10835697 108.67356491 -0.10880661 C109.46337296 -0.10902804 110.25318101 -0.10924947 111.06692263 -0.10947761 C123.86325753 -0.11342519 136.65953547 -0.13087703 149.45584837 -0.15416613 C162.58894705 -0.17787549 175.72201715 -0.19034182 188.85513759 -0.19150805 C196.2307538 -0.19242512 203.60629584 -0.19818522 210.98189163 -0.21632767 C217.91917692 -0.23333155 224.85631915 -0.23498434 231.79361916 -0.22618866 C234.3421701 -0.22541601 236.89072848 -0.22979084 239.43926048 -0.23964691 C242.9141989 -0.25229918 246.38863288 -0.24652578 249.86356735 -0.23606491 C250.87582736 -0.24412132 251.88808737 -0.25217772 252.93102193 -0.26047826 C258.99621762 -0.21767664 263.63889392 0.33733117 268.27659225 4.66658401 C272.41823628 10.08258005 273.43137011 13.35950341 272.632061 20.13142776 C270.89981785 24.97041137 267.88444063 28.29650801 263.632061 31.13142776 C260.80668087 32.07322114 259.07241338 32.26072324 256.1466608 32.27123547 C255.22252142 32.27692671 254.29838204 32.28261795 253.34623843 32.28848165 C251.82087971 32.29025147 251.82087971 32.29025147 250.26470566 32.29205704 C249.18564553 32.29714486 248.10658541 32.30223268 246.9948265 32.30747467 C243.36064101 32.32323459 239.72647545 32.33173355 236.09226608 32.340168 C233.49399818 32.34970353 230.89573157 32.35959456 228.29746628 32.36981583 C220.48698142 32.39909322 212.67648491 32.41828633 204.86596468 32.43520817 C202.65981682 32.44000364 200.45366946 32.4449869 198.24752212 32.4500134 C184.54670314 32.48098417 170.84587992 32.50766853 157.14503574 32.52443218 C153.97168406 32.52838166 150.79833245 32.53238466 147.62498093 32.53645706 C146.44190404 32.5379696 146.44190404 32.5379696 145.2349266 32.5395127 C132.4593362 32.55651816 119.68393955 32.59762625 106.90844373 32.64848005 C93.79112676 32.70026485 80.67390941 32.72937552 67.55649108 32.73662907 C60.19189627 32.74129016 52.82761879 32.75602886 45.46312523 32.79637337 C38.53473816 32.83428281 31.60690084 32.84166646 24.67842484 32.82836723 C22.13553261 32.82842127 19.59261669 32.83875265 17.04981422 32.86011887 C13.57733131 32.88773698 10.10683308 32.87831749 6.63433456 32.85968399 C5.62858236 32.87647892 4.62283015 32.89327385 3.5866006 32.91057771 C-3.3280247 32.8178863 -7.45919531 31.04975145 -12.367939 26.13142776 C-15.70080119 21.44459031 -16.27221769 16.72790813 -15.367939 11.13142776 C-12.10568328 4.72774062 -7.34379755 0.01142832 0 0 Z " fill="#E9C944" transform="translate(127.36793899536133,303.8685722351074)"/>
<path d="M0 0 C5.49976627 2.74988313 10.12962898 6.10589474 13.546875 11.2734375 C13.546875 11.9334375 13.546875 12.5934375 13.546875 13.2734375 C12.6089209 13.2827832 11.6709668 13.29212891 10.70458984 13.30175781 C7.20401176 13.34593188 3.70463197 13.40761417 0.20458984 13.48095703 C-1.30636438 13.50907532 -2.81746321 13.53033521 -4.32861328 13.54443359 C-6.50888603 13.56599199 -8.68743719 13.61270066 -10.8671875 13.6640625 C-12.1763916 13.68500977 -13.4855957 13.70595703 -14.83447266 13.72753906 C-20.22190215 14.54026962 -23.27637897 16.94185647 -26.828125 20.9609375 C-28.93951503 25.26492487 -29.25673671 28.5665689 -28.453125 33.2734375 C-26.59025618 38.61087064 -23.41834507 41.69035016 -18.453125 44.2734375 C-14.87215907 44.84779345 -11.33882822 44.81339446 -7.71827698 44.78137207 C-6.63594801 44.78761203 -5.55361905 44.793852 -4.43849224 44.80028105 C-0.81106828 44.81623822 2.81568627 44.80359544 6.44311523 44.79101562 C9.04345085 44.79643553 11.64378339 44.80355744 14.24411011 44.81225586 C20.57438955 44.83003542 26.9044792 44.82620352 33.23476606 44.8146053 C38.38046007 44.8055682 43.52610094 44.80434816 48.67180061 44.80870056 C49.40443734 44.80931349 50.13707407 44.80992643 50.89191191 44.81055793 C52.38030761 44.81183685 53.86870328 44.8131337 55.35709894 44.8144483 C69.31174454 44.82585265 83.26628501 44.81274312 97.22091336 44.79124683 C109.19005285 44.77337969 121.15903714 44.77647702 133.12817383 44.79492188 C147.03165668 44.81633763 160.93504738 44.82475009 174.83854443 44.81247282 C176.32174081 44.81119864 177.80493721 44.80994116 179.28813362 44.80870056 C180.01786793 44.80808346 180.74760224 44.80746636 181.49944971 44.80683056 C186.63740121 44.80337949 191.77529418 44.80920082 196.91323662 44.81861877 C203.83176631 44.83102191 210.74999816 44.82216566 217.66849899 44.79904175 C220.20856171 44.79375023 222.74864908 44.79527594 225.28870201 44.80409241 C228.75448284 44.81501338 232.21932256 44.80132427 235.68504333 44.78137207 C237.19497137 44.7947564 237.19497137 44.7947564 238.735403 44.80841112 C244.87261988 44.73982149 248.54978341 43.915992 253.546875 40.2734375 C257.11108454 36.00269823 258.20202799 31.96360915 257.9375 26.41796875 C257.14478352 22.06595526 254.72007677 19.30443299 251.484375 16.4609375 C247.54661841 14.04747379 243.99474407 14.08623376 239.47265625 13.95703125 C238.7888237 13.93625015 238.10499115 13.91546906 237.4004364 13.89405823 C235.2201829 13.82877596 233.03981095 13.76977733 230.859375 13.7109375 C229.37954514 13.66773197 227.89972717 13.62411703 226.41992188 13.58007812 C222.79569878 13.47311667 219.17134311 13.37178927 215.546875 13.2734375 C218.29446372 6.0812415 222.95287408 2.86758681 229.734375 -0.6015625 C237.71201675 -3.97378042 245.12564913 -3.77639749 253.296875 -1.1015625 C262.70820674 2.79838504 268.17563994 8.02770019 272.546875 17.2734375 C275.91643088 26.00512317 275.23193249 34.10475682 271.79296875 42.63671875 C267.83356064 51.01477666 261.97720295 56.32708317 253.546875 60.2734375 C247.60012426 61.41324036 241.74593504 61.41908973 235.70523071 61.41387939 C234.62345846 61.41685052 233.5416862 61.41982164 232.42713296 61.4228828 C228.80769665 61.43154413 225.18829351 61.43307586 221.56884766 61.43457031 C218.97161285 61.4392002 216.37437872 61.44422509 213.77714539 61.44961548 C206.72552932 61.46316525 199.67391896 61.4692178 192.62229204 61.47362614 C188.21650987 61.47639331 183.81072988 61.48063143 179.40494919 61.48513031 C167.19767965 61.49731682 154.99041185 61.5076185 142.78313637 61.5110054 C142.00272929 61.51122497 141.22232221 61.51144453 140.41826644 61.51167075 C139.63604106 61.51188903 138.85381567 61.51210731 138.04788649 61.5123322 C136.46291391 61.51277566 134.87794133 61.51322222 133.29296875 61.51367188 C132.11367834 61.51400402 132.11367834 61.51400402 130.91056387 61.51434287 C118.16830567 61.51829187 105.42610461 61.53575175 92.68386848 61.5590314 C79.59014745 61.58275952 66.4964551 61.59520786 53.40271223 61.59637332 C46.05557918 61.59728907 38.7085207 61.60301643 31.36140823 61.62119293 C24.45195357 61.63822712 17.54264251 61.63983568 10.63317299 61.63105392 C8.09877837 61.6302829 5.56437618 61.63463488 3.03000069 61.64451218 C-0.43267267 61.65721509 -3.89484348 61.65136339 -7.35751343 61.64093018 C-8.35762432 61.64898658 -9.3577352 61.65704298 -10.38815248 61.66534352 C-20.34631829 61.59528631 -28.84464906 58.85025568 -36.453125 52.2734375 C-43.32207773 44.32700199 -46.10492655 35.61559503 -45.80078125 25.1953125 C-45.26093312 20.65816192 -43.78420981 17.17071991 -41.453125 13.2734375 C-41.040625 12.57347656 -40.628125 11.87351562 -40.203125 11.15234375 C-31.11313171 -2.50847003 -14.68406302 -5.98396788 0 0 Z " fill="#377EA2" transform="translate(141.453125,290.7265625)"/>
<path d="M0 0 C0.81181122 -0.00297112 1.62362245 -0.00594224 2.46003401 -0.0090034 C5.18370375 -0.01768376 7.90732949 -0.01919808 10.63101196 -0.02069092 C12.58243402 -0.0253195 14.53385517 -0.03034421 16.48527527 -0.03573608 C21.78899079 -0.04885675 27.09269365 -0.05530419 32.39642286 -0.05974674 C35.70916508 -0.06267751 39.02190384 -0.0667823 42.33464432 -0.07125092 C52.69727226 -0.08492389 63.05989229 -0.09459198 73.42252862 -0.09845281 C85.38912556 -0.10293564 97.35560838 -0.12049489 109.32217062 -0.1494534 C118.56982927 -0.17105656 127.81745579 -0.18115633 137.06513941 -0.18249393 C142.58961728 -0.18354277 148.11398785 -0.18946775 153.63843918 -0.20731354 C158.83407904 -0.22377094 164.02953069 -0.22596104 169.2251873 -0.21717453 C171.13194342 -0.21640295 173.03870956 -0.22076272 174.94544029 -0.23063278 C177.54889411 -0.24331903 180.15167791 -0.2374937 182.75512695 -0.22705078 C183.50922014 -0.23510719 184.26331332 -0.24316359 185.04025781 -0.25146413 C190.45942723 -0.20064195 194.56082368 0.96372862 198.64907837 4.60528564 C202.69204712 9.70294189 202.69204712 9.70294189 203.00454712 13.14044189 C203.10767212 14.23356689 203.21079712 15.32669189 203.31704712 16.45294189 C202.83029918 22.19656757 200.62958175 25.63431224 196.44204712 29.51544189 C192.09605421 32.4127705 188.17336644 32.28662091 183.13607788 32.28088379 C182.32582665 32.28385491 181.51557541 32.28682603 180.68077111 32.28988719 C177.95632931 32.29858276 175.2319314 32.30008317 172.50747681 32.30157471 C170.55782477 32.3062023 168.60817363 32.31122688 166.65852356 32.31661987 C161.35468169 32.32975216 156.05085248 32.33619053 150.74699688 32.34063053 C147.43408474 32.34356012 144.12117608 32.34766473 140.80826569 32.3521347 C130.44509832 32.36581225 120.08193888 32.37547746 109.71876311 32.3793366 C97.75216613 32.38381714 85.78568337 32.40136386 73.81912112 32.43033719 C64.57231625 32.45194896 55.32554352 32.46204062 46.07871366 32.46337771 C40.55474792 32.46442617 35.03088954 32.47034252 29.50695038 32.48819733 C24.30967914 32.50466905 19.11259603 32.50683782 13.915308 32.49805832 C12.00897277 32.49728745 10.10262746 32.50163726 8.19631767 32.51151657 C5.59097148 32.52422539 2.98629267 32.51836511 0.38095093 32.50793457 C-0.37091153 32.51599097 -1.122774 32.52404738 -1.89742017 32.53234792 C-7.54922155 32.47954005 -12.36900066 31.40178193 -16.73764038 27.64044189 C-20.50399941 22.65326304 -21.41143461 19.38016779 -20.99545288 13.14044189 C-19.17671819 7.28007456 -16.90366208 4.54613807 -11.99545288 1.14044189 C-8.13790249 -0.28254067 -4.05599992 -0.00463309 0 0 Z " fill="#D3D3D3" transform="translate(164.99545288085938,143.85955810546875)"/>
<path d="M0 0 C1.15392549 -0.00384115 2.30785099 -0.00768229 3.49674392 -0.01163983 C5.3917084 -0.01034011 5.3917084 -0.01034011 7.32495499 -0.00901413 C8.684041 -0.01159886 10.04312626 -0.01461232 11.40221047 -0.01801753 C15.13606139 -0.02607801 18.86989307 -0.02787657 22.60375166 -0.028615 C26.63114531 -0.0304672 30.65852901 -0.03801534 34.6859169 -0.04475021 C43.49172803 -0.058327 52.2975346 -0.06435715 61.10335445 -0.06876087 C66.602294 -0.07152423 72.10123178 -0.07576175 77.60017014 -0.08026505 C92.82694132 -0.09245654 108.0537111 -0.1027563 123.28048706 -0.10614014 C124.25485911 -0.1063597 125.22923116 -0.10657927 126.23312964 -0.10680549 C127.20982284 -0.10702377 128.18651604 -0.10724204 129.19280601 -0.10746694 C131.17193461 -0.1079104 133.1510632 -0.10835696 135.1301918 -0.10880661 C136.11190638 -0.10902804 137.09362095 -0.10924947 138.10508445 -0.10947761 C154.01282926 -0.11342574 169.92052827 -0.13088077 185.82825539 -0.15416613 C202.16278821 -0.17788316 218.49729806 -0.19034214 234.83184838 -0.19150805 C244.00218084 -0.19242458 253.17245361 -0.1981714 262.34276962 -0.21632767 C270.15128605 -0.23173334 277.95972433 -0.23684634 285.76825306 -0.22858956 C289.75113575 -0.2246848 293.7338611 -0.22560415 297.7167244 -0.23964691 C301.36612175 -0.25239612 305.01524367 -0.25117953 308.66464069 -0.2390562 C310.60331121 -0.23617795 312.54198653 -0.24802723 314.48061919 -0.26047826 C325.1835988 -0.19990319 334.04127032 1.96655429 342.25616837 9.13142776 C344.56658805 11.97502122 346.48084911 14.93003239 348.25616837 18.13142776 C348.61839493 18.75791214 348.98062149 19.38439651 349.35382462 20.02986526 C351.54684949 25.1374297 351.38751986 30.54067833 351.31866837 36.00642776 C351.31415665 36.69478714 351.30964493 37.38314651 351.30499649 38.09236526 C351.29333173 39.77209112 351.27540107 41.45177152 351.25616837 43.13142776 C350.92616837 43.13142776 350.59616837 43.13142776 350.25616837 43.13142776 C350.10921524 42.58615433 349.96226212 42.04088089 349.81085587 41.47908401 C347.44755445 33.53350167 343.66788963 25.68713125 336.3656562 21.21297377 C327.90497744 16.87513726 318.83595346 16.70183689 309.53505325 16.75720596 C308.17832351 16.75445994 306.8215959 16.75040324 305.46487349 16.74516231 C301.76537009 16.73464628 298.06611081 16.74265795 294.36661828 16.75391281 C290.3659293 16.76279782 286.3652708 16.75429903 282.36458206 16.74805069 C274.53940289 16.73858639 266.71431626 16.7451413 258.88914398 16.75731363 C249.77143913 16.77096599 240.65375608 16.76929298 231.53604361 16.7671803 C215.26703304 16.76399401 198.99806632 16.77563847 182.72906876 16.79524612 C166.95008382 16.81425814 151.17115026 16.82133076 135.39215469 16.81575394 C118.19619896 16.80969426 101.00026579 16.80987596 83.80431193 16.82123977 C81.97039489 16.82244703 80.13647785 16.82365301 78.30256081 16.82485771 C77.4003032 16.82546125 76.49804559 16.82606479 75.56844685 16.82668662 C69.21564651 16.83056298 62.86285458 16.83017327 56.51005363 16.82827187 C48.76863079 16.82614843 41.02725289 16.83138553 33.28584269 16.84588542 C29.33751067 16.85312159 25.38924407 16.85721302 21.44090652 16.85264206 C17.82453186 16.84855726 14.2082921 16.85375487 10.59193786 16.86626814 C8.66873445 16.87056943 6.74551679 16.86511493 4.82231742 16.85927886 C-5.04320544 16.9092378 -13.62898842 18.09619491 -21.74383163 24.13142776 C-27.48899715 30.14965248 -30.59094839 35.86909783 -31.74383163 44.13142776 C-32.07383163 44.13142776 -32.40383163 44.13142776 -32.74383163 44.13142776 C-33.66014099 30.48859963 -33.23295365 19.9470983 -24.00164413 9.08064651 C-17.18462847 2.75056054 -9.18718079 0.01150143 0 0 Z " fill="#D3D3D3" transform="translate(96.74383163452148,31.868572235107422)"/>
<path d="M0 0 C126.72 0 253.44 0 384 0 C384 5.28 384 10.56 384 16 C257.28 16 130.56 16 0 16 C0 10.72 0 5.44 0 0 Z " fill="#D3D3D3" transform="translate(64,224)"/>
<path d="M0 0 C1.14771635 -0.00384115 2.2954327 -0.00768229 3.47792834 -0.01163983 C4.72917902 -0.01077335 5.98042969 -0.00990687 7.26959705 -0.00901413 C8.61987114 -0.01159972 9.97014447 -0.01461342 11.32041675 -0.01801753 C15.02534398 -0.026068 18.73025181 -0.02787601 22.43518674 -0.028615 C26.4332893 -0.03046895 30.43138188 -0.03801799 34.42947865 -0.04475021 C43.16925124 -0.05832001 51.90901924 -0.0643561 60.64880061 -0.06876087 C66.10806135 -0.07152549 71.56732032 -0.07576324 77.02657986 -0.08026505 C92.1478737 -0.09245576 107.26916613 -0.10275558 122.39046478 -0.10614014 C123.35786336 -0.1063597 124.32526195 -0.10657927 125.32197564 -0.10680549 C126.29165992 -0.10702377 127.26134421 -0.10724204 128.26041287 -0.10746694 C130.22529169 -0.1079104 132.19017051 -0.10835696 134.15504932 -0.10880661 C135.61701416 -0.10913875 135.61701416 -0.10913875 137.10851363 -0.10947761 C152.89844643 -0.11342498 168.68833306 -0.13087802 184.47824802 -0.15416613 C200.69756091 -0.17789407 216.91685065 -0.19034264 233.13618118 -0.19150805 C242.23949309 -0.19242398 251.34274484 -0.19815565 260.44604015 -0.21632767 C268.1981147 -0.2317481 275.95011048 -0.23683765 283.70219745 -0.22858956 C287.65495638 -0.22468999 291.60755677 -0.2255787 295.56029606 -0.23964691 C299.18446952 -0.25242739 302.80836601 -0.25115229 306.43253932 -0.2390562 C308.3527835 -0.23618825 310.27303264 -0.24800346 312.19323844 -0.26047826 C322.66732085 -0.20101475 331.99798309 1.12108006 340.1621294 8.04158401 C347.10264141 15.2656578 350.43193974 23.83161474 350.34572315 33.78963089 C350.32896534 34.54179886 350.31220753 35.29396683 350.2949419 36.06892776 C350.28591846 36.84816605 350.27689503 37.62740433 350.26759815 38.43025589 C350.24427881 40.33078223 350.20841776 42.23114784 350.1699419 44.13142776 C349.8399419 44.13142776 349.5099419 44.13142776 349.1699419 44.13142776 C348.8605669 42.46080276 348.8605669 42.46080276 348.5449419 40.75642776 C346.38031103 32.33676012 342.12895001 26.05765198 334.80666065 21.38533401 C326.35417393 17.36570699 318.9458628 16.70061555 309.62013721 16.75047684 C308.25759603 16.74701548 306.89505764 16.74224772 305.53252506 16.7362951 C301.80763834 16.72382097 298.08298346 16.729939 294.35809612 16.73925376 C290.33348904 16.74605869 286.30892103 16.73555588 282.28432178 16.727314 C274.40773788 16.71398985 266.53123984 16.71684852 258.6546526 16.72555192 C252.25190496 16.73233325 245.84918136 16.73324324 239.44643116 16.72998047 C238.53437987 16.72952077 237.62232857 16.72906107 236.68263936 16.72858744 C234.82969474 16.72762824 232.97675013 16.7266556 231.12380552 16.72566967 C213.75789276 16.71711964 196.39202754 16.72694384 179.02612257 16.74307077 C164.13263229 16.75647359 149.23921217 16.75414539 134.34572315 16.74031448 C117.0409972 16.72425184 99.73631291 16.71794357 82.43158054 16.72715127 C80.58553792 16.7281069 78.73949528 16.72905001 76.89345264 16.72998047 C75.98521755 16.7304433 75.07698246 16.73090612 74.1412251 16.73138297 C67.74783308 16.73397081 61.35446752 16.72960632 54.9610796 16.72254181 C47.16728755 16.71411901 39.37358612 16.71642334 31.57980442 16.73238404 C27.60500318 16.74025627 23.63035291 16.7433763 19.65555286 16.73343658 C16.01370325 16.72446736 12.37214391 16.72945889 8.73032045 16.74536924 C6.7958275 16.75028356 4.86131424 16.74054047 2.92684269 16.73019755 C-7.64330865 16.80136855 -16.79676635 18.88334499 -24.8300581 26.13142776 C-28.31839649 30.78254562 -30.75545625 35.71816433 -32.8300581 41.13142776 C-33.1600581 41.13142776 -33.4900581 41.13142776 -33.8300581 41.13142776 C-34.15577832 29.26073522 -33.62397909 18.60474085 -25.2284956 9.36970901 C-17.75653717 2.59718049 -10.03746956 0.01266179 0 0 Z " fill="#E9E9E9" transform="translate(97.83005809783936,15.868572235107422)"/>
<path d="M0 0 C1.15392549 -0.00384115 2.30785099 -0.00768229 3.49674392 -0.01163983 C5.3917084 -0.01034011 5.3917084 -0.01034011 7.32495499 -0.00901413 C8.684041 -0.01159886 10.04312626 -0.01461232 11.40221047 -0.01801753 C15.13606139 -0.02607801 18.86989307 -0.02787657 22.60375166 -0.028615 C26.63114531 -0.0304672 30.65852901 -0.03801534 34.6859169 -0.04475021 C43.49172803 -0.058327 52.2975346 -0.06435715 61.10335445 -0.06876087 C66.602294 -0.07152423 72.10123178 -0.07576175 77.60017014 -0.08026505 C92.82694132 -0.09245654 108.0537111 -0.1027563 123.28048706 -0.10614014 C124.25485911 -0.1063597 125.22923116 -0.10657927 126.23312964 -0.10680549 C127.20982284 -0.10702377 128.18651604 -0.10724204 129.19280601 -0.10746694 C131.17193461 -0.1079104 133.1510632 -0.10835696 135.1301918 -0.10880661 C136.11190638 -0.10902804 137.09362095 -0.10924947 138.10508445 -0.10947761 C154.01282926 -0.11342574 169.92052827 -0.13088077 185.82825539 -0.15416613 C202.16278821 -0.17788316 218.49729806 -0.19034214 234.83184838 -0.19150805 C244.00218084 -0.19242458 253.17245361 -0.1981714 262.34276962 -0.21632767 C270.15128605 -0.23173334 277.95972433 -0.23684634 285.76825306 -0.22858956 C289.75113575 -0.2246848 293.7338611 -0.22560415 297.7167244 -0.23964691 C301.36612175 -0.25239612 305.01524367 -0.25117953 308.66464069 -0.2390562 C310.60331121 -0.23617795 312.54198653 -0.24802723 314.48061919 -0.26047826 C325.1835988 -0.19990319 334.04127032 1.96655429 342.25616837 9.13142776 C344.56658805 11.97502122 346.48084911 14.93003239 348.25616837 18.13142776 C348.61839493 18.75791214 348.98062149 19.38439651 349.35382462 20.02986526 C351.61405156 25.2939436 351.38470568 30.88817581 351.31866837 36.50642776 C351.31415665 37.24248245 351.30964493 37.97853714 351.30499649 38.73689651 C351.29331978 40.53510935 351.27538848 42.33327974 351.25616837 44.13142776 C349.74194739 41.23639736 348.56592546 38.32233863 347.44366837 35.25642776 C344.36528278 27.57737801 339.77434339 22.72142138 332.25616837 19.13142776 C325.53191341 16.61017486 318.94866453 16.84663737 311.83298111 16.86400223 C310.4597929 16.86026288 309.08660682 16.85566023 307.71342409 16.85027158 C303.94986643 16.8380615 300.1863978 16.83829968 296.42282486 16.84066033 C292.3600109 16.841069 288.29722529 16.8300247 284.23442459 16.8205452 C276.27871476 16.80394575 268.32303457 16.79843615 260.36730887 16.79732044 C253.90015699 16.79636958 247.43301488 16.79225737 240.96586609 16.78591919 C222.62541218 16.76831057 204.28498166 16.75907986 185.94451924 16.76058014 C184.46199845 16.76070001 184.46199845 16.76070001 182.94952774 16.7608223 C181.95997233 16.76090406 180.97041691 16.76098582 179.95087497 16.76107006 C163.91067434 16.76188311 147.87056758 16.74273957 131.8303941 16.71454556 C115.35567155 16.68581646 98.88099478 16.67200525 82.40624654 16.67373312 C73.15879881 16.67439695 63.91144951 16.66890733 54.66402435 16.64737701 C46.79148849 16.629165 38.91909571 16.62481813 31.0465479 16.63839586 C27.03120575 16.64492509 23.0161381 16.64504445 19.00082207 16.62768936 C15.32182169 16.61195161 11.64331331 16.61482898 7.96432488 16.63225763 C6.00983944 16.63677461 4.05533869 16.62167578 2.10091269 16.60577834 C-8.6041957 16.68967699 -16.89084055 19.72462935 -24.74383163 27.13142776 C-28.48036566 32.38277288 -30.09888079 37.93793861 -31.74383163 44.13142776 C-32.07383163 44.13142776 -32.40383163 44.13142776 -32.74383163 44.13142776 C-33.66014099 30.48859963 -33.23295365 19.9470983 -24.00164413 9.08064651 C-17.18462847 2.75056054 -9.18718079 0.01150143 0 0 Z " fill="#D3D3D3" transform="translate(96.74383163452148,63.86857223510742)"/>
<path d="M0 0 C22.432 0 22.432 0 27.7421875 4.46484375 C31.08927729 8.81606048 32.12710731 11.83944143 32.12025452 17.23944092 C32.12162918 18.07794083 32.12300385 18.91644073 32.12442017 19.78034973 C32.11902725 21.14736275 32.11902725 21.14736275 32.11352539 22.54199219 C32.11367142 23.50817978 32.11381744 24.47436737 32.1139679 25.46983337 C32.11327144 28.66220345 32.1054915 31.85451512 32.09765625 35.046875 C32.09579112 37.26076221 32.09436767 39.47464983 32.09336853 41.6885376 C32.08955082 47.51480245 32.07972687 53.34104236 32.06866455 59.16729736 C32.05843441 65.11283023 32.05386747 71.05836712 32.04882812 77.00390625 C32.03810396 88.66928355 32.02051317 100.3346358 32 112 C21.44 112 10.88 112 0 112 C0 75.04 0 38.08 0 0 Z " fill="#3C87AE" transform="translate(448,128)"/>
<path d="M0 0 C0 36.96 0 73.92 0 112 C-10.56 112 -21.12 112 -32 112 C-32.06781483 99.21290444 -32.12283885 86.4259286 -32.15543652 73.63869381 C-32.17108285 67.70087431 -32.19230258 61.76318439 -32.22631836 55.82543945 C-32.25894816 50.09366649 -32.27686078 44.36201806 -32.28463173 38.63015938 C-32.2901687 36.4449219 -32.30098104 34.25969113 -32.31719017 32.07450676 C-32.33901222 29.01037823 -32.34196488 25.94676227 -32.34057617 22.88256836 C-32.351362 21.98201218 -32.36214783 21.08145599 -32.3732605 20.15361023 C-32.34354203 14.08146252 -31.58218133 9.07107432 -27.53515625 4.2578125 C-18.70814372 -2.53219714 -12.62208831 0 0 0 Z " fill="#3C87AE" transform="translate(64,128)"/>
<path d="M0 0 C5.49976627 2.74988313 10.12962898 6.10589474 13.546875 11.2734375 C13.546875 11.9334375 13.546875 12.5934375 13.546875 13.2734375 C12.6089209 13.2827832 11.6709668 13.29212891 10.70458984 13.30175781 C7.20401176 13.34593188 3.70463197 13.40761417 0.20458984 13.48095703 C-1.30636438 13.50907532 -2.81746321 13.53033521 -4.32861328 13.54443359 C-6.50888603 13.56599199 -8.68743719 13.61270066 -10.8671875 13.6640625 C-12.1763916 13.68500977 -13.4855957 13.70595703 -14.83447266 13.72753906 C-20.22190215 14.54026962 -23.27637897 16.94185647 -26.828125 20.9609375 C-29.8060062 27.0312338 -28.55946551 32.79344309 -27.453125 39.2734375 C-27.783125 39.9334375 -28.113125 40.5934375 -28.453125 41.2734375 C-29.02441096 45.95610928 -28.93047858 49.36987537 -26.703125 53.5859375 C-24.71850606 55.95645457 -22.71795405 58.17038196 -20.453125 60.2734375 C-27.72004097 59.14648262 -34.19521172 55.31518903 -38.828125 49.5859375 C-44.4134222 41.22385902 -46.79655623 32.28062933 -45.453125 22.2734375 C-44.52756951 18.97679604 -43.20742732 16.20641169 -41.453125 13.2734375 C-41.040625 12.57347656 -40.628125 11.87351562 -40.203125 11.15234375 C-31.11313171 -2.50847003 -14.68406302 -5.98396788 0 0 Z " fill="#3C87AE" transform="translate(141.453125,290.7265625)"/>
<path d="M0 0 C7.89192599 4.37680471 12.8855682 11.40135185 15.375 20.0625 C17.0402941 30.55385281 15.43742226 39.25881215 9.4375 48.25 C5.62948113 52.95402331 0.51118719 56.54410843 -5 59 C-7.3359375 58.68359375 -7.3359375 58.68359375 -9 58 C-8.05125 57.278125 -7.1025 56.55625 -6.125 55.8125 C-3.29410969 53.42226714 -1.86034525 51.69948457 -1 48 C-0.72010671 44.28574038 -0.83137941 40.84310293 -1.5625 37.1875 C-2 35 -2 35 -1 32 C-0.45114894 27.2762819 -0.53403272 23.89865118 -2.75 19.625 C-5.64794091 16.24406894 -7.77537886 14.40820705 -12 13 C-14.3555448 12.84820986 -16.71475123 12.75100711 -19.07421875 12.68359375 C-19.7580513 12.66281265 -20.44188385 12.64203156 -21.1464386 12.62062073 C-23.3266921 12.55533846 -25.50706405 12.49633983 -27.6875 12.4375 C-29.16732986 12.39429447 -30.64714783 12.35067953 -32.12695312 12.30664062 C-35.75117622 12.19967917 -39.37553189 12.09835177 -43 12 C-40.25241128 4.807804 -35.59400092 1.59414931 -28.8125 -1.875 C-18.90748869 -6.06193365 -9.47594308 -4.67226778 0 0 Z " fill="#3C87AE" transform="translate(400,292)"/>
<path d="M0 0 C2.65085745 2.65085745 3.00614082 4.0634551 3.375 7.875 C3.16772639 12.53001992 1.91450338 16.06457309 -1.4296875 19.4453125 C-6.06094838 23.47750481 -9.61330966 24.30682347 -15.5390625 24.2109375 C-24.51730053 23.44137424 -32.49093113 18.76583 -38.5625 12.25 C-40 10 -40 10 -40 8 C-39.09757568 7.9906543 -38.19515137 7.98130859 -37.26538086 7.97167969 C-33.88962422 7.9274416 -30.51509714 7.86573136 -27.13989258 7.79248047 C-25.6842804 7.76440414 -24.22851954 7.74312368 -22.77270508 7.72900391 C-11.6502573 7.84791581 -11.6502573 7.84791581 -2 3 C-1.34 2.01 -0.68 1.02 0 0 Z " fill="#306C8B" transform="translate(397,328)"/>
<path d="M0 0 C0.48210937 0.42152344 0.96421875 0.84304688 1.4609375 1.27734375 C2.09257813 1.82519531 2.72421875 2.37304688 3.375 2.9375 C4.00148438 3.48277344 4.62796875 4.02804687 5.2734375 4.58984375 C8.72270638 7.4070068 11.92029331 7.21280669 16.1953125 7.31640625 C16.90275604 7.33718735 17.61019958 7.35796844 18.33908081 7.37937927 C20.60095425 7.44481078 22.86294462 7.50372974 25.125 7.5625 C26.65756422 7.60569133 28.19011657 7.64930582 29.72265625 7.69335938 C33.48165073 7.80048555 37.24076292 7.9017709 41 8 C37.36364883 15.74772119 30.40976385 20.28509184 22.625 23.3125 C16.54029592 24.4664956 11.27883819 25.1394191 5.625 22.3125 C-1.76756757 15.8 -1.76756757 15.8 -2.16796875 10.9765625 C-2.17441406 10.20054687 -2.18085937 9.42453125 -2.1875 8.625 C-2.20167969 7.85414063 -2.21585937 7.08328125 -2.23046875 6.2890625 C-1.97801607 3.78165112 -1.25193467 2.16738098 0 0 Z " fill="#306C8B" transform="translate(114,328)"/>
<path d="M0 0 C10.56 0 21.12 0 32 0 C32 5.28 32 10.56 32 16 C21.44 16 10.88 16 0 16 C0 10.72 0 5.44 0 0 Z " fill="#337394" transform="translate(448,224)"/>
<path d="M0 0 C10.56 0 21.12 0 32 0 C32 5.28 32 10.56 32 16 C21.44 16 10.88 16 0 16 C0 10.72 0 5.44 0 0 Z " fill="#337394" transform="translate(32,224)"/>
</svg>
