<?xml version="1.0" encoding="UTF-8"?>
<svg version="1.1" xmlns="http://www.w3.org/2000/svg" width="512" height="512">
<path d="M0 0 C4.82743779 2.36817703 7.48645595 5.26293622 10 10 C10 11.65 10 13.3 10 15 C33.76 15 57.52 15 82 15 C82 13.02 82 11.04 82 9 C83.171875 6.953125 83.171875 6.953125 84.75 5.25 C85.51570313 4.39148438 85.51570313 4.39148438 86.296875 3.515625 C90.20109181 0.04123022 93.66881497 -0.43286251 98.75 -0.32421875 C102.22063535 0.17589016 104.34725007 1.78937506 107 4 C107.598125 4.4125 108.19625 4.825 108.8125 5.25 C110 7 110 7 111 15 C134.76 15 158.52 15 183 15 C183.33 12.69 183.66 10.38 184 8 C186.0627842 4.21950702 189.01818062 1.62085213 193 0 C197.58823818 -0.72936873 201.72832233 -0.48708468 205.875 1.6875 C211.06830275 5.53054404 212.05855216 8.78644426 213 15 C214.69974976 14.97643433 214.69974976 14.97643433 216.43383789 14.95239258 C220.71110689 14.89734698 224.98834589 14.86338376 229.26586914 14.83520508 C231.10348812 14.82028595 232.94107257 14.79994332 234.77856445 14.77368164 C258.53971026 14.44303541 277.73649896 18.43528157 295.6875 35.1875 C309.35779372 49.49362134 314.14023914 66.88678909 314.16113281 86.16430664 C314.16609772 87.26759811 314.17106262 88.37088959 314.17617798 89.50761414 C314.19073329 93.14180126 314.19758868 96.77594482 314.203125 100.41015625 C314.2088796 102.941686 314.21463729 105.47321575 314.22039795 108.00474548 C314.22954915 112.62849827 314.2358587 117.25223805 314.2388947 121.8759976 C314.2433812 128.66948557 314.26096895 135.46277292 314.2898953 142.2561999 C314.31413863 148.15565172 314.32183983 154.05505366 314.32357025 159.95455742 C314.32659729 162.45879652 314.3346275 164.96303477 314.34775543 167.46724129 C314.3647993 170.96667894 314.36294005 174.46562564 314.35644531 177.96508789 C314.3656601 178.99850311 314.37487488 180.03191833 314.3843689 181.09664917 C314.34546613 187.78409059 313.58989282 192.33816571 308.75 197.3125 C306 199 306 199 299 200 C299 210.56 299 221.12 299 232 C300.65 232.66 302.3 233.32 304 234 C307.82471938 236.80708104 311.38686142 239.92704857 315 243 C316.07701172 243.87205078 316.07701172 243.87205078 317.17578125 244.76171875 C322.9250759 249.520153 327.46363857 255.09696707 332 261 C332.59683594 261.76957031 333.19367188 262.53914063 333.80859375 263.33203125 C352.59842604 288.80462145 360.4019934 321.00179208 356.17919922 352.30126953 C354.09380275 365.87161915 350.21300507 378.72325125 344 391 C343.34064453 392.33417969 343.34064453 392.33417969 342.66796875 393.6953125 C328.49426437 421.10561684 303.53610267 442.09322295 274.4375 451.9375 C242.31615013 462.13706016 208.15893461 460.2329646 177.80444336 445.11083984 C157.70724608 434.49851048 140.23420642 417.95829527 128.625 398.4375 C128.23231934 397.7779834 127.83963867 397.1184668 127.43505859 396.43896484 C123.9990165 390.42625719 121.71967003 384.52720807 119 378 C109.76 377.67 100.52 377.34 91 377 C90.67 379.31 90.34 381.62 90 384 C87.74938171 388.26751853 84.54795648 390.56817756 80 392 C77.21178722 392.25726891 77.21178722 392.25726891 74.11552429 392.26742554 C72.93696365 392.27595551 71.75840302 392.28448547 70.54412842 392.29327393 C69.25943665 392.29236755 67.97474487 392.29146118 66.65112305 392.29052734 C65.27734513 392.29651552 63.90357058 392.30332173 62.52980042 392.31088257 C58.80185032 392.3285348 55.0739921 392.33323802 51.34600425 392.33451414 C49.01025493 392.33593839 46.67452873 392.3402135 44.33878517 392.34550858 C36.17009636 392.36401646 28.00147275 392.37217951 19.83276367 392.37060547 C12.25353717 392.36940852 4.6745975 392.39042057 -2.90455657 392.4220928 C-9.43480318 392.44839553 -15.96495706 392.45896673 -22.49525613 392.45769465 C-26.38471471 392.45718848 -30.27391915 392.46267612 -34.16332436 392.48405075 C-58.43588635 392.60804566 -81.24229454 392.06958178 -99.8684082 374.25952148 C-117.01642495 357.16964347 -121.49283 338.30056739 -121.54211426 314.75053406 C-121.5343398 312.38772447 -121.5261473 310.02491622 -121.51757812 307.66210938 C-121.52300767 305.13401386 -121.53013497 302.60592152 -121.53881836 300.07783508 C-121.55507826 293.95977948 -121.55281781 287.84198192 -121.5411678 281.72392333 C-121.53208596 276.74587946 -121.53092984 271.7678905 -121.53526306 266.7898407 C-121.53587599 266.07780954 -121.53648893 265.36577839 -121.53712043 264.63217053 C-121.5383995 263.18510376 -121.53969636 261.738037 -121.5410108 260.29097027 C-121.5523814 246.76330244 -121.53935843 233.23574354 -121.51780933 219.70809358 C-121.49994154 208.133629 -121.50304664 196.55932497 -121.52148438 184.98486328 C-121.54295361 171.50129069 -121.5512831 158.01781324 -121.53903532 144.53422594 C-121.5377613 143.09287041 -121.53650381 141.65151486 -121.53526306 140.2101593 C-121.53464596 139.50122594 -121.53402886 138.79229258 -121.53339306 138.06187639 C-121.52995825 133.09735435 -121.53572784 128.13289332 -121.54518127 123.16838074 C-121.5576567 116.47046787 -121.54860998 109.77290213 -121.52560425 103.07500267 C-121.52034758 100.6274026 -121.52177825 98.17977689 -121.53065491 95.73218727 C-121.60406093 73.4226584 -119.33706697 52.94397851 -103.18701172 36.05908203 C-90.23946338 23.06741938 -74.10548168 15.09865668 -55.53344727 14.88647461 C-53.87775848 14.88663087 -52.2220637 14.89215646 -50.56640625 14.90234375 C-49.2495005 14.90446617 -49.2495005 14.90446617 -47.9059906 14.90663147 C-45.12479118 14.91219179 -42.34367474 14.92473679 -39.5625 14.9375 C-37.66731888 14.94252013 -35.77213648 14.94708214 -33.87695312 14.95117188 C-29.25127052 14.9621482 -24.62564929 14.97938518 -20 15 C-19.71898438 13.73929688 -19.43796875 12.47859375 -19.1484375 11.1796875 C-18.19249027 6.89108021 -16.45610392 4.79779841 -13 2 C-8.72201224 -0.51022422 -4.85684134 -0.67573445 0 0 Z " fill="#CCF5F8" transform="translate(138,27)"/>
<path d="M0 0 C4.82743779 2.36817703 7.48645595 5.26293622 10 10 C10 11.65 10 13.3 10 15 C33.76 15 57.52 15 82 15 C82 13.02 82 11.04 82 9 C83.171875 6.953125 83.171875 6.953125 84.75 5.25 C85.51570313 4.39148438 85.51570313 4.39148438 86.296875 3.515625 C90.20109181 0.04123022 93.66881497 -0.43286251 98.75 -0.32421875 C102.22063535 0.17589016 104.34725007 1.78937506 107 4 C107.598125 4.4125 108.19625 4.825 108.8125 5.25 C110 7 110 7 111 15 C134.76 15 158.52 15 183 15 C183.33 12.69 183.66 10.38 184 8 C186.0627842 4.21950702 189.01818062 1.62085213 193 0 C197.58823818 -0.72936873 201.72832233 -0.48708468 205.875 1.6875 C211.06830275 5.53054404 212.05855216 8.78644426 213 15 C214.69974976 14.97643433 214.69974976 14.97643433 216.43383789 14.95239258 C220.71110689 14.89734698 224.98834589 14.86338376 229.26586914 14.83520508 C231.10348812 14.82028595 232.94107257 14.79994332 234.77856445 14.77368164 C258.53971026 14.44303541 277.73649896 18.43528157 295.6875 35.1875 C309.35779372 49.49362134 314.14023914 66.88678909 314.16113281 86.16430664 C314.16609772 87.26759811 314.17106262 88.37088959 314.17617798 89.50761414 C314.19073329 93.14180126 314.19758868 96.77594482 314.203125 100.41015625 C314.2088796 102.941686 314.21463729 105.47321575 314.22039795 108.00474548 C314.22954915 112.62849827 314.2358587 117.25223805 314.2388947 121.8759976 C314.2433812 128.66948557 314.26096895 135.46277292 314.2898953 142.2561999 C314.31413863 148.15565172 314.32183983 154.05505366 314.32357025 159.95455742 C314.32659729 162.45879652 314.3346275 164.96303477 314.34775543 167.46724129 C314.3647993 170.96667894 314.36294005 174.46562564 314.35644531 177.96508789 C314.3656601 178.99850311 314.37487488 180.03191833 314.3843689 181.09664917 C314.35304369 186.48149787 314.08528949 190.37577363 311 195 C306.34298446 199.20267256 303.46994145 200.34838368 297.3203125 200.2890625 C292.6764647 199.71053601 288.92047344 196.53530995 286 193 C285.04953196 190.14859589 284.87325918 188.38648607 284.86869812 185.43006897 C284.86268585 184.02369675 284.86268585 184.02369675 284.85655212 182.58891296 C284.85708084 181.56191788 284.85760956 180.53492279 284.8581543 179.47680664 C284.85294266 177.85183258 284.85294266 177.85183258 284.84762573 176.19403076 C284.84026509 173.83684364 284.83492135 171.47964957 284.83133507 169.12245369 C284.82416959 165.38451148 284.80849995 161.64670054 284.78999329 157.90879822 C284.7375439 147.2789699 284.68916463 136.64923691 284.67407227 126.01928711 C284.66395665 119.51879844 284.6345356 113.01863713 284.59275246 106.51827812 C284.58048311 104.0469454 284.57531372 101.57556634 284.57755089 99.10420418 C284.57991966 95.6316995 284.55761462 92.16012283 284.5300293 88.68774414 C284.53663071 87.67896713 284.54323212 86.67019012 284.55003357 85.63084412 C284.40279686 74.25877076 280.88593771 63.39330502 273 55 C264.28941418 48.17586373 256.69040568 45.72112439 245.7890625 45.5859375 C244.82092621 45.56657135 243.85278992 45.5472052 242.85531616 45.5272522 C239.7786323 45.4677167 236.70191049 45.4211753 233.625 45.375 C231.53253623 45.33679627 229.44008778 45.29774315 227.34765625 45.2578125 C222.23189604 45.16203655 217.11606224 45.07790958 212 45 C211.7839209 46.67292114 211.7839209 46.67292114 211.56347656 48.37963867 C210.79842634 53.29511951 209.50693038 54.57277258 206 58 C202.04535502 60.28953131 198.5127519 60.4668364 194 60 C189.72335159 58.50272477 186.92784823 56.3728413 184.5625 52.5 C183 49 183 49 183 45 C159.24 45 135.48 45 111 45 C110.67 47.31 110.34 49.62 110 52 C107.39587028 56.24376696 104.66473371 58.29557807 100 60 C95.6455499 60.71412982 92.75125612 60.36118083 88.75 58.4375 C85.37824861 55.44890218 83.89651197 53.08479502 82 49 C82 47.68 82 46.36 82 45 C58.24 45 34.48 45 10 45 C9.67 46.98 9.34 48.96 9 51 C7.15092503 55.56830286 4.46307143 57.31945513 0.1171875 59.26953125 C-3.14259031 60.39421474 -5.59469296 60.50448993 -9 60 C-12.82842867 57.93853841 -15.90545116 55.85837944 -18 52 C-18.36760731 49.67182036 -18.70397083 47.33835889 -19 45 C-25.08369133 45.04440092 -31.16636923 45.11449339 -37.24951172 45.20751953 C-39.3151845 45.23559538 -41.38096203 45.25687591 -43.44677734 45.27099609 C-46.43120443 45.29261193 -49.41438954 45.33935624 -52.3984375 45.390625 C-53.76468765 45.39246796 -53.76468765 45.39246796 -55.15853882 45.39434814 C-65.49714373 45.62596923 -74.78155745 49.51420773 -82 57 C-88.8577771 66.63229761 -91.30634462 74.80887955 -91.26069641 86.41731262 C-91.26452196 87.45346024 -91.26834751 88.48960785 -91.27228898 89.55715388 C-91.28259146 93.02228535 -91.27863199 96.48725026 -91.2746582 99.95239258 C-91.27900622 102.4396327 -91.28418967 104.92687148 -91.29014587 107.41410828 C-91.30214761 113.46514431 -91.3046883 119.51611511 -91.30234561 125.56715707 C-91.30056049 130.48777147 -91.30231626 135.40837242 -91.30657005 140.32898521 C-91.30716524 141.03009131 -91.30776043 141.73119741 -91.30837366 142.45354914 C-91.30958545 143.87799909 -91.31079958 145.30244904 -91.31201603 146.72689899 C-91.32288637 160.07833742 -91.32073164 173.42975057 -91.31463119 186.78119042 C-91.30946405 198.98282358 -91.320713 211.18437687 -91.33972941 223.38599423 C-91.35912448 235.92714931 -91.36736078 248.46826662 -91.36360615 261.00943679 C-91.36169644 268.04528189 -91.3641591 275.08105903 -91.37832069 282.11689186 C-91.39150702 288.73497274 -91.38895178 295.35292043 -91.37590981 301.97101021 C-91.37354508 304.39694015 -91.37627494 306.82288134 -91.38453293 309.24879837 C-91.39501068 312.56662903 -91.38689088 315.88392474 -91.3742218 319.20173645 C-91.38159609 320.15613406 -91.38897037 321.11053168 -91.39656812 322.09385043 C-91.31372127 332.44462793 -88.38032687 341.76910214 -82 350 C-71.25314295 360.24610744 -60.69638175 362.3014312 -46.35717773 362.25537109 C-44.97673333 362.2581243 -43.59629052 362.2618062 -42.21585083 362.26634216 C-39.25409743 362.27442536 -36.29241939 362.27662995 -33.33065605 362.27439499 C-28.64469659 362.27155226 -23.95888669 362.28594847 -19.27296448 362.30337524 C-5.95193707 362.35031422 7.36907905 362.37434817 20.69018555 362.38085938 C28.05570975 362.38461142 35.42106355 362.40264799 42.7865147 362.43595374 C47.44228149 362.45614735 52.09760826 362.45854882 56.75340092 362.44767356 C59.65130924 362.44506345 62.54896205 362.45908407 65.44680405 362.47775459 C67.42559295 362.48559813 69.40442948 362.47365088 71.38319397 362.46107483 C82.19779971 362.56170896 82.19779971 362.56170896 87 367 C89.90228418 370.30259924 90.91559053 372.88157448 91.25 377.3125 C90.88898229 382.6375112 89.41468242 385.69141877 85.5 389.3125 C81.69139224 391.88331024 78.84489595 392.12843042 74.35603333 392.14717102 C73.18022202 392.15432632 72.00441071 392.16148163 70.79296875 392.16885376 C69.50108643 392.17154266 68.2092041 392.17423157 66.87817383 392.17700195 C65.50469288 392.18326846 64.13121362 392.18991543 62.75773621 392.19691467 C58.24084655 392.21795826 53.7239566 392.22832632 49.20703125 392.23828125 C47.64753388 392.24233053 46.08803668 392.2464475 44.52853966 392.25063133 C37.19117204 392.26969398 29.85381448 392.28391538 22.51642686 392.2922433 C14.07821215 392.3019806 5.64026221 392.32820306 -2.79785937 392.36874419 C-9.33654681 392.3990671 -15.87515916 392.4137279 -22.41391546 392.41702431 C-26.31012778 392.41935904 -30.20605769 392.42810884 -34.10219383 392.45348549 C-58.40313807 392.60342613 -81.21672287 392.0940331 -99.8684082 374.25952148 C-117.01642495 357.16964347 -121.49283 338.30056739 -121.54211426 314.75053406 C-121.5343398 312.38772447 -121.5261473 310.02491622 -121.51757812 307.66210938 C-121.52300767 305.13401386 -121.53013497 302.60592152 -121.53881836 300.07783508 C-121.55507826 293.95977948 -121.55281781 287.84198192 -121.5411678 281.72392333 C-121.53208596 276.74587946 -121.53092984 271.7678905 -121.53526306 266.7898407 C-121.53587599 266.07780954 -121.53648893 265.36577839 -121.53712043 264.63217053 C-121.5383995 263.18510376 -121.53969636 261.738037 -121.5410108 260.29097027 C-121.5523814 246.76330244 -121.53935843 233.23574354 -121.51780933 219.70809358 C-121.49994154 208.133629 -121.50304664 196.55932497 -121.52148438 184.98486328 C-121.54295361 171.50129069 -121.5512831 158.01781324 -121.53903532 144.53422594 C-121.5377613 143.09287041 -121.53650381 141.65151486 -121.53526306 140.2101593 C-121.53464596 139.50122594 -121.53402886 138.79229258 -121.53339306 138.06187639 C-121.52995825 133.09735435 -121.53572784 128.13289332 -121.54518127 123.16838074 C-121.5576567 116.47046787 -121.54860998 109.77290213 -121.52560425 103.07500267 C-121.52034758 100.6274026 -121.52177825 98.17977689 -121.53065491 95.73218727 C-121.60406093 73.4226584 -119.33706697 52.94397851 -103.18701172 36.05908203 C-90.23946338 23.06741938 -74.10548168 15.09865668 -55.53344727 14.88647461 C-53.87775848 14.88663087 -52.2220637 14.89215646 -50.56640625 14.90234375 C-49.2495005 14.90446617 -49.2495005 14.90446617 -47.9059906 14.90663147 C-45.12479118 14.91219179 -42.34367474 14.92473679 -39.5625 14.9375 C-37.66731888 14.94252013 -35.77213648 14.94708214 -33.87695312 14.95117188 C-29.25127052 14.9621482 -24.62564929 14.97938518 -20 15 C-19.71898438 13.73929688 -19.43796875 12.47859375 -19.1484375 11.1796875 C-18.19249027 6.89108021 -16.45610392 4.79779841 -13 2 C-8.72201224 -0.51022422 -4.85684134 -0.67573445 0 0 Z " fill="#1A83A8" transform="translate(138,27)"/>
<path d="M0 0 C1.72241352 1.48381078 3.43233366 2.98234278 5.125 4.5 C5.74761719 5.04011719 6.37023437 5.58023437 7.01171875 6.13671875 C21.27593516 19.33693766 33.34743543 41.06137015 34.27026367 60.57104492 C34.29494099 64.27662218 34.3106573 67.98183437 34.3125 71.6875 C34.32474609 72.96431641 34.33699219 74.24113281 34.34960938 75.55664062 C34.38559944 98.89020145 25.46577215 120.2727344 9.42578125 137.19921875 C-8.92460782 155.54960782 -32.3129771 166.76759231 -58.5 166.9375 C-86.06716543 166.53374981 -109.47778961 154.70130087 -128.56640625 135.046875 C-145.39661812 116.47953466 -152.92223627 91.24095688 -151.875 66.5 C-149.16569383 39.62245131 -136.90299434 17.08611911 -116.4375 -0.3125 C-82.93133798 -26.59463844 -33.44904174 -26.86890238 0 0 Z " fill="#FDFEFE" transform="translate(430.875,289.5)"/>
<path d="M0 0 C1.08152344 0.2784375 2.16304687 0.556875 3.27734375 0.84375 C20.90076057 5.79966843 37.17534967 14.03270727 51 26 C51.71027344 26.57621094 52.42054688 27.15242188 53.15234375 27.74609375 C58.9148228 32.50441804 63.4577309 38.08927959 68 44 C68.59683594 44.76957031 69.19367188 45.53914063 69.80859375 46.33203125 C88.59842604 71.80462145 96.4019934 104.00179208 92.17919922 135.30126953 C90.09380275 148.87161915 86.21300507 161.72325125 80 174 C79.56042969 174.88945312 79.12085938 175.77890625 78.66796875 176.6953125 C64.49426437 204.10561684 39.53610267 225.09322295 10.4375 234.9375 C-21.68384987 245.13706016 -55.84106539 243.2329646 -86.19555664 228.11083984 C-113.17934716 213.86204344 -135.62464735 189.20368468 -145 160 C-145.36738281 158.85917969 -145.73476563 157.71835937 -146.11328125 156.54296875 C-150.03833612 143.59742414 -151.34591772 131.1257575 -151.3125 117.625 C-151.32861328 116.33078125 -151.34472656 115.0365625 -151.36132812 113.703125 C-151.37498656 86.33163082 -140.60880075 60.69955643 -123 40 C-122.27167969 39.12085938 -121.54335938 38.24171875 -120.79296875 37.3359375 C-91.89026837 3.69423579 -42.91198215 -11.75393136 0 0 Z M-98.8828125 55.5390625 C-108.40984301 66.61291715 -116.11571086 79.86779908 -120 94 C-120.19207031 94.65097656 -120.38414062 95.30195313 -120.58203125 95.97265625 C-122.04451986 101.26497116 -122.67131594 106.52702821 -123 112 C-123.06574219 113.00546875 -123.13148438 114.0109375 -123.19921875 115.046875 C-124.08120295 140.95896243 -113.92993125 164.67497681 -96.6171875 183.60546875 C-79.13972043 201.71300125 -55.17183962 211.9117171 -30.0625 212.4375 C-4.62344886 212.45026292 19.15551077 201.87051066 37.25 184.3125 C47.58372846 173.80148554 54.17624783 161.83234893 59 148 C59.32742188 147.11054688 59.65484375 146.22109375 59.9921875 145.3046875 C66.044128 128.30161657 65.6525337 104.68550799 59 88 C58.42185547 86.54207031 58.42185547 86.54207031 57.83203125 85.0546875 C56.65077687 82.30989578 55.35844449 79.66095304 54 77 C53.37351562 75.68128906 53.37351562 75.68128906 52.734375 74.3359375 C41.97382385 52.87667745 21.84717454 37.66442884 -0.46875 29.7734375 C-10.07765678 26.71004749 -18.83509712 25.83786103 -28.875 25.875 C-29.91269531 25.87113281 -30.95039063 25.86726563 -32.01953125 25.86328125 C-57.99875493 25.89604194 -80.93698836 36.80441093 -98.8828125 55.5390625 Z " fill="#1B83A8" transform="translate(402,244)"/>
<path d="M0 0 C4.30543683 2.23551528 7.60229159 4.7579005 10 9 C10.8078282 13.92115752 10.79147023 17.57683992 8.3359375 21.9921875 C5.87878149 25.15608403 3.21717645 27.6794325 0.125 30.1875 C-0.44379883 30.65889404 -1.01259766 31.13028809 -1.59863281 31.6159668 C-6.16298771 35.37650057 -10.81252396 39.029039 -15.48144531 42.65844727 C-20.27126242 46.39168707 -24.95308597 50.24568458 -29.625 54.125 C-50.65701813 71.5595921 -50.65701813 71.5595921 -58.57421875 71.3828125 C-67.46550721 69.97967841 -72.68335248 60.56052961 -77.63085938 53.82910156 C-80.49296321 50.00547782 -83.51028813 46.29895679 -86.5090332 42.58203125 C-91.06852132 36.84753735 -91.78232641 32.17505079 -91 25 C-89.14016774 20.90836902 -87.64339112 19.39108088 -83.8125 17.0625 C-79.11510054 15.75338868 -75.65563 15.45349315 -71 17 C-63.99096697 21.231869 -59.51415648 28.36082837 -55 35 C-51.16654065 33.3292429 -48.05588356 30.83881899 -44.8125 28.25 C-44.21026611 27.77336914 -43.60803223 27.29673828 -42.98754883 26.80566406 C-37.26565809 22.25613067 -31.63406986 17.597601 -25.9987793 12.94165039 C-8.85820585 -1.21022926 -8.85820585 -1.21022926 0 0 Z " fill="#1C84A8" transform="translate(413,330)"/>
<path d="M0 0 C1.42602539 -0.03577148 1.42602539 -0.03577148 2.88085938 -0.07226562 C9.5243257 -0.05853 13.92410546 1.29138585 19.0625 5.5625 C22.3257777 9.23368741 22.52455118 12.67650621 22.3515625 17.41796875 C21.70231104 22.2347127 18.66220494 25.5082049 15.0625 28.5625 C10.11552597 30.19340736 4.83781708 29.826956 -0.3125 29.875 C-1.34117188 29.90400391 -2.36984375 29.93300781 -3.4296875 29.96289062 C-9.6139608 30.01469188 -13.24245476 29.71196715 -17.9375 25.5625 C-20.81315761 22.29019996 -21.82918611 19.6889645 -22.25 15.3125 C-21.88547479 10.93819743 -20.95081449 7.80237949 -17.9375 4.5625 C-12.04804778 0.25390075 -7.17573656 -0.08236835 0 0 Z " fill="#1C84A9" transform="translate(127.9375,269.4375)"/>
<path d="M0 0 C1.43859375 -0.02320313 1.43859375 -0.02320313 2.90625 -0.046875 C9.1421453 -0.01261184 12.90954615 0.85523505 18 4.5 C21.62031033 8.48234137 22.30321595 12.1465654 22.21484375 17.5078125 C21.75695209 21.75371695 19.57030494 23.98672555 16.5 26.75 C11.29003711 30.39697402 5.81353785 29.75581242 -0.3125 29.8125 C-1.34568359 29.84150391 -2.37886719 29.87050781 -3.44335938 29.90039062 C-9.64224249 29.95208112 -13.29600152 29.66419537 -18 25.5 C-20.87565761 22.22769996 -21.89168611 19.6264645 -22.3125 15.25 C-21.94797479 10.87569743 -21.01331449 7.73987949 -18 4.5 C-12.08730737 0.16090936 -7.20578579 -0.11622235 0 0 Z " fill="#1C84A9" transform="translate(128,176.5)"/>
<path d="M0 0 C0.97710937 -0.02900391 1.95421875 -0.05800781 2.9609375 -0.08789062 C9.30558406 -0.14347041 13.11340459 0.50257493 18.25 4.3125 C21.17694163 7.45951243 22.16836424 10.64775163 22.6875 14.875 C22.03383666 20.01092623 20.55778096 23.10280262 16.75 26.625 C11.49587237 30.17153615 6.05647437 29.56837778 -0.0625 29.625 C-1.09568359 29.65400391 -2.12886719 29.68300781 -3.19335938 29.71289062 C-9.40747019 29.7647081 -13.01222991 29.44445686 -17.75 25.3125 C-18.348125 24.796875 -18.94625 24.28125 -19.5625 23.75 C-22.0972713 20.68159264 -22.02811534 17.20254016 -21.96484375 13.37109375 C-21.49129167 8.83360378 -19.52725298 6.031459 -16.25 3 C-11.1253295 -0.45915259 -5.96727582 0.05812282 0 0 Z " fill="#1C84A9" transform="translate(340.75,176.6875)"/>
<path d="M0 0 C1.02867187 -0.02449219 2.05734375 -0.04898438 3.1171875 -0.07421875 C9.31269683 -0.09817046 12.90149114 0.26859472 17.625 4.375 C18.40875 5.055625 19.1925 5.73625 20 6.4375 C22.51384544 10.98175906 22.36253515 15.30165212 21.625 20.375 C19.41369135 24.96141794 17.11377834 27.10273273 12.625 29.375 C8.51762586 30.00185746 4.40047298 29.8845633 0.25 29.875 C-0.86117187 29.90335938 -1.97234375 29.93171875 -3.1171875 29.9609375 C-10.2234024 29.97785706 -14.17903957 29.35625133 -19.375 24.375 C-22.48249007 19.99861815 -22.21495616 14.50162899 -21.375 9.375 C-16.44344867 0.34449692 -9.4126924 0.01170733 0 0 Z " fill="#1D84A9" transform="translate(234.375,176.625)"/>
<path d="M0 0 C1.02867187 -0.02449219 2.05734375 -0.04898437 3.1171875 -0.07421875 C9.31269683 -0.09817046 12.90149114 0.26859472 17.625 4.375 C18.40875 5.055625 19.1925 5.73625 20 6.4375 C22.5158141 10.98531779 22.35558881 15.29815327 21.625 20.375 C19.2637183 25.4608375 16.79814862 27.39785742 11.625 29.375 C7.64019878 29.85863559 3.69791493 29.88472811 -0.3125 29.875 C-1.37146484 29.90335937 -2.43042969 29.93171875 -3.52148438 29.9609375 C-10.48995801 29.97832608 -14.26028749 29.2183196 -19.375 24.375 C-22.48249007 19.99861815 -22.21495616 14.50162899 -21.375 9.375 C-16.44344867 0.34449692 -9.4126924 0.01170733 0 0 Z " fill="#1C84A9" transform="translate(234.375,269.625)"/>
</svg>
