<?xml version="1.0" encoding="UTF-8"?>
<svg version="1.1" xmlns="http://www.w3.org/2000/svg" width="512" height="512">
<path d="M0 0 C1.19753906 0.32871094 2.39507812 0.65742188 3.62890625 0.99609375 C28.68541305 8.54701186 50.05983669 24.55941818 64.2578125 46.48046875 C65.75532264 49.07821446 65.75532264 49.07821446 68 50 C68.21785156 49.30390625 68.43570312 48.6078125 68.66015625 47.890625 C70.34030513 44.265814 72.72317109 41.62113787 75.4375 38.75 C75.97391113 38.18007324 76.51032227 37.61014648 77.06298828 37.02294922 C92.70531129 20.68111662 112.21794324 11.13448889 135 10 C159.8904075 9.50341935 181.45604199 18.43211471 199.48828125 35.33203125 C209.53808119 45.79840321 218.89564534 60.47078138 219.5 75.25 C219.26196142 81.38346084 217.92696656 85.07303344 213.50390625 89.49609375 C209.3683772 93.13659688 206.31764647 94.12570035 200.93171692 94.12025452 C199.36049828 94.12231651 199.36049828 94.12231651 197.75753784 94.12442017 C196.60883209 94.12082489 195.46012634 94.11722961 194.27661133 94.11352539 C192.46179008 94.11374443 192.46179008 94.11374443 190.61030579 94.1139679 C187.29238309 94.11339019 183.97452244 94.1083714 180.65661073 94.10139394 C177.18926313 94.09514695 173.72191473 94.09455553 170.25456238 94.09336853 C163.68853396 94.09025919 157.12252218 94.08205114 150.55650109 94.07201904 C143.08136444 94.0608456 135.606227 94.05534435 128.13108408 94.05032361 C112.75404642 94.03986821 97.37702535 94.02227643 82 94 C82.01571045 94.82612793 82.0314209 95.65225586 82.04760742 96.50341797 C82.09922737 99.61586112 82.13658622 102.72808358 82.16479492 105.84082031 C82.18701479 107.83152905 82.22516595 109.82203968 82.26367188 111.8125 C82.34715367 122.83209682 81.16798076 131.44442834 73.953125 140.0234375 C66.13837011 147.93196945 57.29464476 149.19666707 46.53622699 149.27636564 C44.23911591 149.28239707 41.94213349 149.27863845 39.64501953 149.2746582 C37.98520682 149.27901009 36.32539612 149.28419482 34.66558838 149.29014587 C30.17377561 149.30349611 25.68204718 149.30411896 21.19021845 149.30158257 C17.43293647 149.30051012 13.67567137 149.30540325 9.91839302 149.310188 C1.05023736 149.32126952 -7.81787593 149.32172827 -16.68603516 149.31567383 C-25.81782978 149.30963501 -34.94947029 149.32194583 -44.08123863 149.3432439 C-51.93712749 149.36088878 -59.79296742 149.36685669 -67.64887536 149.36360615 C-72.33393111 149.3617977 -77.01887693 149.36438563 -81.70391464 149.37832069 C-86.11169899 149.39094142 -90.51924396 149.38891498 -94.92702484 149.37590981 C-96.53861448 149.37355367 -98.15022119 149.37624397 -99.76179123 149.38453293 C-112.83684542 149.44689995 -123.35065747 148.53492345 -133 139 C-140.61025122 129.71920583 -140.27135634 119.49460158 -140.125 108 C-140.11494978 106.63932951 -140.10582754 105.27865183 -140.09765625 103.91796875 C-140.0742082 100.61179353 -140.04138856 97.3059912 -140 94 C-140.95029807 94.00414807 -140.95029807 94.00414807 -141.91979408 94.00837994 C-157.34381156 94.07466859 -172.76777941 94.12429456 -188.19190407 94.15543652 C-195.65093734 94.17089731 -203.10987546 94.19197167 -210.56884766 94.22631836 C-217.07102662 94.25624495 -223.57313666 94.27558074 -230.07538259 94.28226548 C-233.51745028 94.28617225 -236.9593208 94.29533703 -240.40132523 94.31719017 C-244.24626578 94.34140293 -248.09101445 94.34196789 -251.93603516 94.34057617 C-253.07395508 94.351362 -254.211875 94.36214783 -255.38427734 94.3732605 C-261.98016393 94.3473939 -266.80565337 93.94656712 -271.86328125 89.28125 C-272.34152344 88.6934375 -272.81976563 88.105625 -273.3125 87.5 C-273.80363281 86.9121875 -274.29476563 86.324375 -274.80078125 85.71875 C-278.2075863 80.83603266 -277.64673364 74.65107061 -277 69 C-271.20725916 48.73609477 -257.09922914 31.59320972 -239 21 C-217.74690731 9.6716025 -194.65611524 7.18180104 -171.4375 13.6875 C-153.31668995 19.73518139 -136.22099703 31.50702751 -126 48 C-126 48.66 -126 49.32 -126 50 C-123.07498427 47.2285956 -120.81377472 44.3967933 -118.5625 41.0625 C-101.26462822 17.08208625 -75.57413228 2.91325694 -46.828125 -2.609375 C-31.45561796 -4.17799817 -14.9075386 -4.37831395 0 0 Z " fill="#89C9FD" transform="translate(285,358)"/>
<path d="M0 0 C0.81726563 0.41765625 1.63453125 0.8353125 2.4765625 1.265625 C13.19436608 7.18593555 27.14912496 18.74547774 31.96875 30.328125 C32.01589816 34.3592924 30.14437379 37.3959394 28.3125 40.875 C24.36896709 48.77233097 21.91392458 56.35891475 20 65 C19.65034085 66.57424385 19.30056451 68.14846167 18.95068359 69.72265625 C18.77217865 70.52582275 18.59367371 71.32898926 18.40975952 72.15649414 C18.20692856 73.06902954 18.20692856 73.06902954 18 74 C1.80567011 74.07011814 -14.38861044 74.12300187 -30.5830555 74.15543652 C-38.10262251 74.17089757 -45.62209514 74.19197246 -53.14160156 74.22631836 C-59.69651824 74.25624412 -66.25136654 74.27558054 -72.80634964 74.28226548 C-76.2763623 74.28617239 -79.74617939 74.29533807 -83.2161293 74.31719017 C-87.09220259 74.34140127 -90.9680855 74.34196795 -94.84423828 74.34057617 C-95.99150894 74.351362 -97.1387796 74.36214783 -98.32081604 74.3732605 C-104.94069644 74.34750588 -109.78666502 73.96408258 -114.86328125 69.28125 C-115.34152344 68.6934375 -115.81976563 68.105625 -116.3125 67.5 C-116.80363281 66.9121875 -117.29476562 66.324375 -117.80078125 65.71875 C-121.2075863 60.83603266 -120.64673364 54.65107061 -120 49 C-114.20725916 28.73609477 -100.09922914 11.59320972 -82 1 C-73.15555952 -3.71429447 -63.87638807 -7.20169813 -54 -9 C-53.23171875 -9.14179688 -52.4634375 -9.28359375 -51.671875 -9.4296875 C-33.96557768 -11.89893304 -15.73319493 -8.2296712 0 0 Z " fill="#6BF4C1" transform="translate(128,378)"/>
<path d="M0 0 C11.27639081 10.5682972 21.85385795 26.4488898 22.5 42.25 C22.26196142 48.38346084 20.92696656 52.07303344 16.50390625 56.49609375 C12.35395508 60.14929266 9.29720188 61.12567422 3.89375305 61.12025452 C2.8378598 61.12162918 1.78196655 61.12300385 0.69407654 61.12442017 C-0.46397995 61.12082489 -1.62203644 61.11722961 -2.81518555 61.11352539 C-4.03481995 61.11367142 -5.25445435 61.11381744 -6.51104736 61.1139679 C-9.85582851 61.11339017 -13.20054811 61.10837126 -16.54531837 61.10139394 C-20.04069319 61.09514711 -23.53606882 61.09455555 -27.03144836 61.09336853 C-33.65060067 61.09025914 -40.26973647 61.08205103 -46.8888815 61.07201904 C-54.42447651 61.06084574 -61.96007231 61.05534438 -69.49567354 61.05032361 C-84.99712525 61.0398681 -100.4985605 61.02227624 -116 61 C-116.26047119 59.78183594 -116.52094238 58.56367188 -116.78930664 57.30859375 C-117.14186164 55.68484627 -117.49465767 54.06115111 -117.84765625 52.4375 C-118.01801392 51.63763672 -118.18837158 50.83777344 -118.3638916 50.01367188 C-120.53311846 40.09142069 -124.12881696 31.05021226 -129.1796875 22.21875 C-130.25779768 19.30271864 -130.01862132 17.93021903 -129 15 C-115.70899778 -4.45663125 -96.48813602 -17.00298762 -73.4765625 -21.72265625 C-46.24011935 -26.10720094 -20.58661718 -18.14178275 0 0 Z " fill="#6BF4C2" transform="translate(482,391)"/>
<path d="M0 0 C5.76968605 4.93172862 10.19081553 10.43538604 14.14453125 16.89453125 C14.74394531 17.84392578 14.74394531 17.84392578 15.35546875 18.8125 C22.61466217 31.61160419 22.59742509 47.19236009 18.97680664 61.03149414 C14.86642739 75.39627866 5.77364541 86.90210167 -7.14453125 94.46484375 C-21.48379609 102.0270497 -36.96319213 103.95164596 -52.67089844 99.38696289 C-62.30966542 96.31068302 -70.07556182 91.40740109 -76.85546875 83.89453125 C-77.66757813 83.08822266 -77.66757813 83.08822266 -78.49609375 82.265625 C-89.23035673 71.08799029 -92.3281146 57.00740523 -92.28491211 42.04101562 C-91.9293709 26.0123813 -85.12350319 12.63374623 -73.66796875 1.51953125 C-52.10677612 -16.1861009 -22.3169377 -16.455307 0 0 Z " fill="#F6DBCC" transform="translate(291.85546875,244.10546875)"/>
<path d="M0 0 C2.27099609 -0.02612305 2.27099609 -0.02612305 5 1 C6.68873451 3.6154691 7.63090225 6.49335756 8.6640625 9.41796875 C8.98281342 10.26796951 9.30156433 11.11797028 9.62997437 11.99372864 C10.64745368 14.71832948 11.6368747 17.4521327 12.625 20.1875 C13.62597223 22.90260104 14.63256817 25.61554165 15.64144897 28.32771301 C16.26731181 30.01620584 16.88756821 31.70679062 17.50137329 33.39970398 C18.30910441 35.61037196 19.14915524 37.8056427 20 40 C20.43151367 41.15693359 20.86302734 42.31386719 21.30761719 43.50585938 C22.80191764 46.2785302 22.80191764 46.2785302 25.91650391 46.84887695 C27.09132324 46.89488037 28.26614258 46.94088379 29.4765625 46.98828125 C31.43203003 47.08689453 31.43203003 47.08689453 33.42700195 47.1875 C34.8263237 47.2295324 36.22565666 47.27119276 37.625 47.3125 C39.03943954 47.37601268 40.45375194 47.44242251 41.86791992 47.51171875 C44.64804799 47.64378191 47.42803448 47.76102773 50.20947266 47.86181641 C54.19342697 48.00705138 58.17467203 48.17836886 62.15576172 48.38745117 C64.16170477 48.49213079 66.16874959 48.57507582 68.17578125 48.65625 C71 49 71 49 73 51 C72.8205774 53.97744529 72.36835423 55.56674961 70.42578125 57.8515625 C69.72839844 58.43679687 69.03101563 59.02203125 68.3125 59.625 C67.09626953 60.65173828 67.09626953 60.65173828 65.85546875 61.69921875 C61.44419844 65.25358019 56.99818984 68.76035436 52.5234375 72.234375 C48.29880012 75.52611985 44.20073453 78.96210145 40.109375 82.41796875 C38 84 38 84 36 84 C36.5952438 89.7636525 37.69858892 95.09845238 39.28515625 100.6640625 C39.73771668 102.29685103 40.190188 103.92966427 40.64257812 105.5625 C41.35346862 108.1019219 42.06689928 110.64060411 42.7824707 113.17871094 C43.4773616 115.65123525 44.16289376 118.12621731 44.84765625 120.6015625 C45.06325699 121.35482819 45.27885773 122.10809387 45.50099182 122.88418579 C46.64068906 127.01814114 47.33650073 130.66593734 47 135 C46.67 135.33 46.34 135.66 46 136 C40.39028761 135.69338218 36.76870669 133.96678541 32.3125 130.75 C31.01276502 129.84874966 29.71191974 128.94909912 28.41015625 128.05078125 C27.71164551 127.56432129 27.01313477 127.07786133 26.29345703 126.57666016 C21.99521537 123.62179059 17.62064915 120.78365094 13.25 117.9375 C12.38028564 117.36547852 11.51057129 116.79345703 10.61450195 116.20410156 C9.79812256 115.67139648 8.98174316 115.13869141 8.140625 114.58984375 C7.41391602 114.11409912 6.68720703 113.63835449 5.93847656 113.14819336 C3.90276347 111.8501468 3.90276347 111.8501468 1 111 C-1.57671693 112.42980116 -3.9445921 113.91133659 -6.375 115.5625 C-7.47775269 116.2901355 -7.47775269 116.2901355 -8.6027832 117.0324707 C-12.96511919 119.92057224 -17.27771841 122.87789 -21.58203125 125.8515625 C-22.51418457 126.48892334 -23.44633789 127.12628418 -24.40673828 127.78295898 C-26.23545439 129.03544488 -28.05577532 130.30029318 -29.86669922 131.57836914 C-37.62627098 136.88829236 -37.62627098 136.88829236 -43 136 C-44.49817934 130.35528716 -43.300797 126.26377647 -41.69140625 120.83984375 C-41.44583481 119.97235001 -41.20026337 119.10485626 -40.94725037 118.21107483 C-40.16402605 115.4497164 -39.36446807 112.69346772 -38.5625 109.9375 C-37.76617893 107.17744972 -36.97354456 104.41648205 -36.1884613 101.6532135 C-35.70025853 99.93719953 -35.20530936 98.22308675 -34.70277405 96.51121521 C-32.98123739 90.84417598 -32.98123739 90.84417598 -33 85 C-34.20941992 83.32746701 -34.20941992 83.32746701 -36.0078125 82.0546875 C-36.65830566 81.54035156 -37.30879883 81.02601563 -37.97900391 80.49609375 C-39.04127197 79.69365234 -39.04127197 79.69365234 -40.125 78.875 C-40.84478027 78.31167969 -41.56456055 77.74835938 -42.30615234 77.16796875 C-43.79667192 76.00355144 -45.29235413 74.84571425 -46.79296875 73.69433594 C-49.49332968 71.62127124 -52.16688805 69.51555295 -54.83935547 67.40673828 C-56.52636481 66.07770522 -58.21988104 64.75736762 -59.9140625 63.4375 C-68.78451883 56.43096234 -68.78451883 56.43096234 -70.0625 53.875 C-70 52 -70 52 -69.01196289 50.42626953 C-65.87152233 48.20002833 -62.47055616 48.42400075 -58.74609375 48.3046875 C-57.52286156 48.24802414 -57.52286156 48.24802414 -56.2749176 48.19021606 C-53.66282709 48.0717715 -51.05044013 47.9727295 -48.4375 47.875 C-45.84986008 47.76618419 -43.26243752 47.65333035 -40.67506409 47.5383606 C-39.06680293 47.46821137 -37.45835275 47.40221471 -35.84971619 47.34127808 C-30.20617742 47.11351415 -24.61426369 46.61315344 -19 46 C-18.80621262 45.48270325 -18.61242523 44.96540649 -18.4127655 44.43243408 C-16.39263078 39.04378172 -14.36339198 33.65862226 -12.32885742 28.27539062 C-11.57098627 26.26650521 -10.8154326 24.25674391 -10.06225586 22.24609375 C-8.9785958 19.35442867 -7.88661177 16.46602685 -6.79296875 13.578125 C-6.45847214 12.68007141 -6.12397552 11.78201782 -5.77934265 10.85675049 C-5.45923721 10.01618103 -5.13913177 9.17561157 -4.80932617 8.30957031 C-4.53174973 7.57232727 -4.25417328 6.83508423 -3.96818542 6.07550049 C-2.902468 3.79092051 -1.57289812 1.96272656 0 0 Z " fill="#FFE076" transform="translate(431,72)"/>
<path d="M0 0 C2.47363281 0.05908203 2.47363281 0.05908203 5 1 C6.36230469 3.15576172 6.36230469 3.15576172 7.421875 6.0546875 C7.83373047 7.14233398 8.24558594 8.22998047 8.66992188 9.35058594 C9.10884766 10.55489258 9.54777344 11.75919922 10 13 C10.75428877 14.95531777 11.51986521 16.90600826 12.28527832 18.85699463 C13.62245763 22.27364732 14.9345229 25.69994681 16.25 29.125 C17.06135489 31.23529359 17.87319464 33.34539633 18.68621826 35.45504761 C19.41337372 37.34215058 20.13886403 39.22989493 20.86425781 41.11767578 C21.90571242 43.88490624 21.90571242 43.88490624 23 46 C25.83035882 46.45630424 25.83035882 46.45630424 29.28125 46.59765625 C30.59134033 46.67628906 31.90143066 46.75492188 33.2512207 46.8359375 C34.6674796 46.91147459 36.08373938 46.98699514 37.5 47.0625 C38.9234798 47.14614436 40.34690174 47.23077948 41.77026367 47.31640625 C47.76824759 47.67289592 53.76755116 47.9951947 59.76953125 48.27734375 C60.5584375 48.31657959 61.34734375 48.35581543 62.16015625 48.39624023 C64.16490859 48.49288494 66.17034032 48.57514015 68.17578125 48.65625 C71 49 71 49 73 51 C73.5703125 53.2421875 73.5703125 53.2421875 73 56 C70.8920148 58.37770456 68.40384504 60.21463032 65.875 62.125 C65.15449463 62.68904541 64.43398926 63.25309082 63.69165039 63.83422852 C61.4710294 65.56938538 59.23586902 67.28456159 57 69 C55.06611718 70.51015904 53.1371269 72.02633618 51.20947266 73.54443359 C50.07000763 74.44024338 48.92795516 75.33277689 47.78271484 76.22119141 C43.74753681 79.35938941 39.85748382 82.64626243 36 86 C36.22139648 86.85529297 36.44279297 87.71058594 36.67089844 88.59179688 C36.9805957 89.78869141 37.29029297 90.98558594 37.609375 92.21875 C37.77645966 92.86434875 37.94354431 93.50994751 38.11569214 94.17510986 C39.03110316 97.71396459 39.94416514 101.25340264 40.85302734 104.79394531 C41.21707886 106.21159972 41.58117358 107.62924304 41.9453125 109.046875 C42.12432098 109.74387512 42.30332947 110.44087524 42.48776245 111.15899658 C43.46429014 114.95161396 44.46211147 118.73721845 45.4921875 122.515625 C45.68973633 123.25490234 45.88728516 123.99417969 46.09082031 124.75585938 C46.58618123 126.60508606 47.09337346 128.45113241 47.6015625 130.296875 C48 133 48 133 46 136 C42.50411183 136.78166221 40.40882367 135.82821501 37.48242188 134.02807617 C36.13661615 133.12809858 34.79913967 132.21558245 33.46875 131.29296875 C32.75521362 130.81177078 32.04167725 130.33057281 31.30651855 129.83479309 C29.03018859 128.29641564 26.76500301 126.7424941 24.5 125.1875 C22.23270277 123.64682649 19.96325673 122.10936158 17.69348145 120.57234192 C16.28355331 119.61583666 14.8754978 118.65656349 13.46960449 117.69413757 C12.20902596 116.83264831 10.94411578 115.97744794 9.67407227 115.12997437 C8.20641775 114.13932897 6.77104717 113.10119844 5.34179688 112.0559082 C3.04345652 110.73584532 3.04345652 110.73584532 0.60131836 111.54931641 C-2.56090506 113.3128013 -5.60930219 115.20516811 -8.62109375 117.2109375 C-9.24347427 117.62034576 -9.8658548 118.02975403 -10.50709534 118.4515686 C-12.48669396 119.755195 -14.46211947 121.06499304 -16.4375 122.375 C-17.76079876 123.24780374 -19.08436403 124.12020355 -20.40820312 124.9921875 C-27.36688319 129.5666505 -27.36688319 129.5666505 -34.24243164 134.26416016 C-37.18717774 136.11782503 -38.59786449 136.40025124 -42 136 C-43.38412063 133.75534593 -44.05817947 132.50429706 -43.751297 129.84425354 C-43.51859604 129.06879684 -43.28589508 128.29334015 -43.04614258 127.49438477 C-42.78960403 126.60989151 -42.53306549 125.72539825 -42.26875305 124.81410217 C-41.98025986 123.86611252 -41.69176666 122.91812286 -41.39453125 121.94140625 C-40.81752092 119.92667223 -40.24137541 117.91169037 -39.66601562 115.89648438 C-38.74201608 112.72191231 -37.80894503 109.55064008 -36.85961914 106.38354492 C-35.94946723 103.32635581 -35.07617115 100.26046458 -34.20703125 97.19140625 C-33.91246536 96.24544083 -33.61789948 95.2994754 -33.31440735 94.32484436 C-32.61456438 91.81064967 -32.05395585 89.60953489 -32 87 C-34.01632326 83.92242278 -34.01632326 83.92242278 -37 82 C-37.80715454 81.26015869 -37.80715454 81.26015869 -38.63061523 80.50537109 C-40.23023663 79.1253592 -41.83047346 77.74639282 -43.4375 76.375 C-44.03933105 75.8601001 -44.64116211 75.3452002 -45.26123047 74.81469727 C-52.39700525 68.75289637 -59.6795337 62.69282365 -67.375 57.3515625 C-69 56 -69 56 -69.375 53.4375 C-69 51 -69 51 -67 49 C-64.255834 48.69540662 -61.59702615 48.50796748 -58.84375 48.40234375 C-57.61839539 48.34355797 -57.61839539 48.34355797 -56.36828613 48.28358459 C-53.74584662 48.15932122 -51.12305755 48.04787618 -48.5 47.9375 C-45.07272964 47.78389237 -41.64571226 47.62516533 -38.21875 47.46484375 C-37.40156494 47.42741058 -36.58437988 47.38997742 -35.74243164 47.35140991 C-30.13532885 47.08451767 -24.57735971 46.65107608 -19 46 C-14.1169232 33.97193072 -9.4026215 21.90007328 -4.97094727 9.69726562 C-4.61186279 8.72208984 -4.25277832 7.74691406 -3.8828125 6.7421875 C-3.56715332 5.8744873 -3.25149414 5.00678711 -2.92626953 4.11279297 C-2 2 -2 2 0 0 Z " fill="#FFE076" transform="translate(254,72)"/>
<path d="M0 0 C3.12055958 1.28198427 3.28257922 1.76091977 4.59375 4.7265625 C5.22364664 6.36334323 5.83148282 8.00871506 6.421875 9.66015625 C6.7526001 10.53389893 7.0833252 11.4076416 7.42407227 12.30786133 C8.52585764 15.23099157 9.59860105 18.16394775 10.671875 21.09765625 C11.90810925 24.41236173 13.15022193 27.72481654 14.39355469 31.03686523 C15.19774808 33.18541806 15.99666671 35.33595331 16.79003906 37.48852539 C17.33289551 38.9560022 17.33289551 38.9560022 17.88671875 40.453125 C18.20761475 41.32606201 18.52851074 42.19899902 18.85913086 43.09838867 C19.50629794 45.06166512 19.50629794 45.06166512 20.671875 46.09765625 C22.76085657 46.31611184 24.85663646 46.46997451 26.953125 46.59765625 C28.9182605 46.72043945 28.9182605 46.72043945 30.9230957 46.84570312 C31.61795074 46.88687256 32.31280579 46.92804199 33.02871704 46.97045898 C35.16684099 47.09735748 37.30449374 47.23052567 39.44213867 47.36523438 C45.44012224 47.74005188 51.43816163 48.09779584 57.44140625 48.37890625 C58.2303125 48.41757813 59.01921875 48.45625 59.83203125 48.49609375 C61.83684953 48.59069498 63.84224679 48.67279768 65.84765625 48.75390625 C68.671875 49.09765625 68.671875 49.09765625 70.671875 51.09765625 C70.5204526 54.26186221 69.96180296 55.76288104 67.87890625 58.16796875 C66.69361328 59.18503906 66.69361328 59.18503906 65.484375 60.22265625 C64.13085938 61.38667969 64.13085938 61.38667969 62.75 62.57421875 C57.69792573 66.71589385 52.55758647 70.73928982 47.40136719 74.75 C44.70700386 76.84950389 42.026722 78.96377865 39.359375 81.09765625 C38.47636719 81.79890625 37.59335938 82.50015625 36.68359375 83.22265625 C34.43126522 85.0221856 34.43126522 85.0221856 33.671875 88.09765625 C33.94072294 89.98708064 33.94072294 89.98708064 34.56811523 91.99902344 C34.78841904 92.77703308 35.00872284 93.55504272 35.23570251 94.35662842 C35.48147537 95.19413635 35.72724823 96.03164429 35.98046875 96.89453125 C36.22604019 97.76152649 36.47161163 98.62852173 36.72462463 99.52178955 C37.77594904 103.23310168 38.84682439 106.93868684 39.91723633 110.64453125 C40.69581051 113.35078727 41.46340385 116.05999461 42.23046875 118.76953125 C42.47421738 119.59894226 42.717966 120.42835327 42.96910095 121.28289795 C44.31591279 126.0481056 45.02967868 130.14120213 44.671875 135.09765625 C44.341875 135.42765625 44.011875 135.75765625 43.671875 136.09765625 C36.68798711 136.01407249 32.2491013 132.56950306 26.671875 128.66015625 C25.75212891 128.03431641 24.83238281 127.40847656 23.88476562 126.76367188 C19.6033943 123.84685731 15.35963383 120.88113848 11.140625 117.875 C10.46386719 117.4018335 9.78710938 116.92866699 9.08984375 116.44116211 C7.84118161 115.56649463 6.6033971 114.67601966 5.37890625 113.76782227 C3.54628086 112.42602333 3.54628086 112.42602333 0.671875 111.09765625 C-2.78588276 112.15320435 -5.65580913 113.80898081 -8.6640625 115.78515625 C-9.47415771 116.31471924 -10.28425293 116.84428223 -11.11889648 117.38989258 C-11.97169189 117.95345459 -12.8244873 118.5170166 -13.703125 119.09765625 C-14.58492432 119.67346436 -15.46672363 120.24927246 -16.37524414 120.8425293 C-20.54998138 123.57546221 -24.69928952 126.33790648 -28.80078125 129.1796875 C-29.47512207 129.64310547 -30.14946289 130.10652344 -30.84423828 130.58398438 C-32.09326894 131.44608534 -33.33559769 132.3180068 -34.56982422 133.20117188 C-37.91215792 135.50463303 -40.23723668 136.81193834 -44.328125 136.09765625 C-44.988125 135.43765625 -45.648125 134.77765625 -46.328125 134.09765625 C-45.93087663 124.07383701 -41.79293311 113.58324756 -39.06347656 103.96972656 C-38.44576841 101.78728467 -37.83585582 99.60277219 -37.2265625 97.41796875 C-36.94067764 96.42568771 -36.94067764 96.42568771 -36.64901733 95.4133606 C-35.67566043 91.91280782 -34.80953072 88.72465405 -35.328125 85.09765625 C-36.6350366 83.32759293 -36.6350366 83.32759293 -38.5546875 81.93359375 C-39.25045898 81.37397949 -39.94623047 80.81436523 -40.66308594 80.23779297 C-41.41879883 79.65529785 -42.17451172 79.07280273 -42.953125 78.47265625 C-43.71915039 77.86309082 -44.48517578 77.25352539 -45.27441406 76.62548828 C-47.61461459 74.76834778 -49.97017058 72.9321747 -52.328125 71.09765625 C-53.68594074 70.02606226 -55.0427785 68.9532274 -56.3984375 67.87890625 C-58.71724682 66.04460635 -61.04173191 64.21821337 -63.375 62.40234375 C-64.34953125 61.64179688 -65.3240625 60.88125 -66.328125 60.09765625 C-67.27558594 59.40414062 -68.22304687 58.710625 -69.19921875 57.99609375 C-71.328125 56.09765625 -71.328125 56.09765625 -71.640625 52.84765625 C-71.5375 51.94015625 -71.434375 51.03265625 -71.328125 50.09765625 C-68.14745069 48.5073191 -64.67276137 48.75484692 -61.171875 48.59765625 C-60.35497192 48.55705078 -59.53806885 48.51644531 -58.69641113 48.47460938 C-56.07383528 48.34473561 -53.45102623 48.22077006 -50.828125 48.09765625 C-48.23382927 47.97388813 -45.63961975 47.84876365 -43.04553223 47.72070312 C-41.43164703 47.64122703 -39.81763708 47.56422762 -38.20349121 47.49023438 C-32.5558612 47.21490222 -26.94941515 46.70452727 -21.328125 46.09765625 C-20.88944092 44.94765137 -20.45075684 43.79764648 -19.9987793 42.61279297 C-18.36369567 38.32888916 -16.72456243 34.04654431 -15.08422852 29.76464844 C-14.37609844 27.91448269 -13.6690536 26.06390119 -12.96313477 24.21289062 C-11.94575423 21.54576196 -10.9244248 18.88017408 -9.90234375 16.21484375 C-9.58972092 15.39273407 -9.27709808 14.57062439 -8.95500183 13.72360229 C-3.73790673 0.15679139 -3.73790673 0.15679139 0 0 Z " fill="#FFE076" transform="translate(79.328125,71.90234375)"/>
<path d="M0 0 C8.67967714 6.86362161 14.89944879 15.89123153 16.5390625 27.0078125 C17.45026653 40.78043739 15.57433737 52.01623928 6.5390625 63.0078125 C-1.06568638 71.22153541 -10.31222107 76.38019671 -21.5546875 77.24609375 C-35.35477086 77.54678364 -46.08378888 74.30792593 -56.4609375 65.0078125 C-64.16881845 57.1526472 -68.45371735 45.8146687 -68.7109375 34.8828125 C-68.50778817 22.79542735 -63.90245782 12.61253751 -55.8359375 3.7578125 C-40.37562103 -10.87321497 -17.2366967 -11.87196113 0 0 Z " fill="#F6DBCC" transform="translate(449.4609375,280.9921875)"/>
<path d="M0 0 C0.65613281 0.53238281 1.31226562 1.06476563 1.98828125 1.61328125 C2.92607422 2.36544922 2.92607422 2.36544922 3.8828125 3.1328125 C12.04011129 10.43706043 16.12495003 21.04275677 17.203125 31.74609375 C17.75142201 43.98408298 13.02694272 55.90995789 4.8359375 64.91796875 C-5.19612645 74.12286463 -16.27390017 77.24477814 -29.65625 76.89453125 C-40.56788637 75.97993542 -50.79801828 70.8508922 -58.34375 62.875 C-66.65713492 51.60228368 -68.94680937 40.34179692 -68.01171875 26.61328125 C-66.3441621 16.04266789 -60.58572995 7.13783754 -52.43359375 0.3671875 C-36.57887668 -11.11469631 -16.03133547 -11.81102046 0 0 Z " fill="#F6DCCD" transform="translate(114.01171875,281.38671875)"/>
<path d="M0 0 C29.51768265 -0.62721457 29.51768265 -0.62721457 42 3 C43.79824219 3.49306641 43.79824219 3.49306641 45.6328125 3.99609375 C71.42164587 11.77581488 95.45471424 29.44992391 109 53 C118.85771107 72.06003 124.2413711 90.28609828 124.375 111.8125 C124.39566528 113.67213379 124.39566528 113.67213379 124.41674805 115.56933594 C124.35733993 127.37174928 122.47263702 136.42569134 114 145 C104.83822771 152.51265328 94.85289267 152.2749874 83.5 152.125 C82.200625 152.11597656 80.90125 152.10695313 79.5625 152.09765625 C76.37480701 152.07421733 73.1875018 152.0414044 70 152 C72.68421723 150.21052185 74.81629723 149.26907857 77.8125 148.1875 C86.1103936 144.88281563 90.39500618 140.02865157 94 132 C95.80802571 126.41016708 95.22489225 120.29396976 95.24023438 114.47802734 C95.24978636 112.29874167 95.2807541 110.12046449 95.3125 107.94140625 C95.51487603 81.39509799 85.99590715 56.62919906 68 37 C67.15695312 36.07574219 66.31390625 35.15148437 65.4453125 34.19921875 C52.36223567 20.49042955 36.3593952 11.62216197 18.5625 5.5625 C17.84167236 5.31540283 17.12084473 5.06830566 16.37817383 4.8137207 C11.828754 3.34709358 7.5386838 2.62124345 2.76538086 2.32397461 C2.18280518 2.21706299 1.60022949 2.11015137 1 2 C0.67 1.34 0.34 0.68 0 0 Z " fill="#61B7FE" transform="translate(243,355)"/>
<path d="M0 0 C0.99 0.99 0.99 0.99 2 2 C1.8205774 4.97744529 1.36835423 6.56674961 -0.57421875 8.8515625 C-1.27160156 9.43679687 -1.96898437 10.02203125 -2.6875 10.625 C-3.49832031 11.30949219 -4.30914062 11.99398437 -5.14453125 12.69921875 C-9.55580156 16.25358019 -14.00181016 19.76035436 -18.4765625 23.234375 C-22.70119988 26.52611985 -26.79926547 29.96210145 -30.890625 33.41796875 C-33 35 -33 35 -35 35 C-34.4047562 40.7636525 -33.30141108 46.09845238 -31.71484375 51.6640625 C-31.26228332 53.29685103 -30.809812 54.92966427 -30.35742188 56.5625 C-29.64653138 59.1019219 -28.93310072 61.64060411 -28.2175293 64.17871094 C-27.5226384 66.65123525 -26.83710624 69.12621731 -26.15234375 71.6015625 C-25.93674301 72.35482819 -25.72114227 73.10809387 -25.49900818 73.88418579 C-24.35931094 78.01814114 -23.66349927 81.66593734 -24 86 C-24.33 86.33 -24.66 86.66 -25 87 C-30.60971239 86.69338218 -34.23129331 84.96678541 -38.6875 81.75 C-39.98723498 80.84874966 -41.28808026 79.94909912 -42.58984375 79.05078125 C-43.28835449 78.56432129 -43.98686523 78.07786133 -44.70654297 77.57666016 C-49.00478463 74.62179059 -53.37935085 71.78365094 -57.75 68.9375 C-58.61971436 68.36547852 -59.48942871 67.79345703 -60.38549805 67.20410156 C-61.20187744 66.67139648 -62.01825684 66.13869141 -62.859375 65.58984375 C-63.58608398 65.11409912 -64.31279297 64.63835449 -65.06152344 64.14819336 C-67.09723653 62.8501468 -67.09723653 62.8501468 -70 62 C-72.57671693 63.42980116 -74.9445921 64.91133659 -77.375 66.5625 C-78.47775269 67.2901355 -78.47775269 67.2901355 -79.6027832 68.0324707 C-83.96511919 70.92057224 -88.27771841 73.87789 -92.58203125 76.8515625 C-93.98026123 77.80760376 -93.98026123 77.80760376 -95.40673828 78.78295898 C-97.23545439 80.03544488 -99.05577532 81.30029318 -100.86669922 82.57836914 C-108.62627098 87.88829236 -108.62627098 87.88829236 -114 87 C-115.22458568 82.88093909 -114.93672618 79.50820857 -114.0625 75.375 C-113.86785156 74.45460938 -113.67320312 73.53421875 -113.47265625 72.5859375 C-111.67105939 69.42239076 -109.69762493 68.63926246 -106.44067383 67.19238281 C-103.56187091 65.78595354 -101.01360004 64.09291668 -98.36328125 62.29296875 C-97.37392578 61.62458984 -96.38457031 60.95621094 -95.36523438 60.26757812 C-93.31297132 58.86920311 -91.26615601 57.46280255 -89.22460938 56.04882812 C-88.23912109 55.38689453 -87.25363281 54.72496094 -86.23828125 54.04296875 C-85.35180908 53.43477295 -84.46533691 52.82657715 -83.55200195 52.19995117 C-80.40151283 50.71859137 -79.25110418 50.84150262 -76 52 C-73.32788086 53.45532227 -73.32788086 53.45532227 -70.46484375 55.31640625 C-69.40716797 55.99896484 -68.34949219 56.68152344 -67.25976562 57.38476562 C-66.16341797 58.10341797 -65.06707031 58.82207031 -63.9375 59.5625 C-62.86822266 60.25408203 -61.79894531 60.94566406 -60.69726562 61.65820312 C-51.70630854 67.48738557 -51.70630854 67.48738557 -47.65673828 70.34716797 C-46.59567871 71.08725098 -45.53461914 71.82733398 -44.44140625 72.58984375 C-43.49080322 73.26781006 -42.5402002 73.94577637 -41.56079102 74.64428711 C-39.13206089 76.24260908 -39.13206089 76.24260908 -36.65991211 75.71313477 C-36.11214111 75.47780029 -35.56437012 75.24246582 -35 75 C-36.04717709 68.9103769 -37.50220327 62.96436276 -39.1640625 57.015625 C-39.36191345 56.30643921 -39.5597644 55.59725342 -39.76361084 54.86657715 C-40.59159504 51.91023465 -41.42427721 48.95528777 -42.26464844 46.00244141 C-42.88377501 43.82118885 -43.49324523 41.6374128 -44.1015625 39.453125 C-44.2921524 38.79362854 -44.48274231 38.13413208 -44.67910767 37.45465088 C-45.76095194 33.54430842 -46.32201775 30.05466568 -46 26 C-44.5234375 24.05078125 -44.5234375 24.05078125 -42.375 22.3125 C-41.55773437 21.63960937 -40.74046875 20.96671875 -39.8984375 20.2734375 C-38.46371094 19.14808594 -38.46371094 19.14808594 -37 18 C-35.86682797 17.09680506 -34.73403364 16.1931361 -33.6015625 15.2890625 C-31.20057894 13.37878611 -28.77900863 11.49912226 -26.34375 9.6328125 C-24.31549316 8.06747812 -22.46843468 6.50122605 -20.59375 4.7421875 C-14.42152272 -0.94639511 -8.18481219 -1.22826531 0 0 Z " fill="#FFD064" transform="translate(502,121)"/>
<path d="M0 0 C2 2 2 2 2.5703125 4.2421875 C1.65071248 8.6890205 -1.61898066 10.47644188 -5.125 13.125 C-5.84550537 13.68904541 -6.56601074 14.25309082 -7.30834961 14.83422852 C-9.5289706 16.56938538 -11.76413098 18.28456159 -14 20 C-15.93388282 21.51015904 -17.8628731 23.02633618 -19.79052734 24.54443359 C-20.92999237 25.44024338 -22.07204484 26.33277689 -23.21728516 27.22119141 C-27.25246319 30.35938941 -31.14251618 33.64626243 -35 37 C-34.77860352 37.85529297 -34.55720703 38.71058594 -34.32910156 39.59179688 C-34.0194043 40.78869141 -33.70970703 41.98558594 -33.390625 43.21875 C-33.22354034 43.86434875 -33.05645569 44.50994751 -32.88430786 45.17510986 C-31.96889684 48.71396459 -31.05583486 52.25340264 -30.14697266 55.79394531 C-29.78292114 57.21159972 -29.41882642 58.62924304 -29.0546875 60.046875 C-28.78617477 61.09237518 -28.78617477 61.09237518 -28.51223755 62.15899658 C-27.53570986 65.95161396 -26.53788853 69.73721845 -25.5078125 73.515625 C-25.31026367 74.25490234 -25.11271484 74.99417969 -24.90917969 75.75585938 C-24.41381877 77.60508606 -23.90662654 79.45113241 -23.3984375 81.296875 C-23 84 -23 84 -25 87 C-28.49588817 87.78166221 -30.59117633 86.82821501 -33.51757812 85.02807617 C-34.86338385 84.12809858 -36.20086033 83.21558245 -37.53125 82.29296875 C-38.24478638 81.81177078 -38.95832275 81.33057281 -39.69348145 80.83479309 C-41.96981141 79.29641564 -44.23499699 77.7424941 -46.5 76.1875 C-48.76729723 74.64682649 -51.03674327 73.10936158 -53.30651855 71.57234192 C-54.71644669 70.61583666 -56.1245022 69.65656349 -57.53039551 68.69413757 C-58.79097404 67.83264831 -60.05588422 66.97744794 -61.32592773 66.12997437 C-62.79358225 65.13932897 -64.22895283 64.10119844 -65.65820312 63.0559082 C-67.95654348 61.73584532 -67.95654348 61.73584532 -70.39868164 62.54931641 C-73.56090506 64.3128013 -76.60930219 66.20516811 -79.62109375 68.2109375 C-80.24347427 68.62034576 -80.8658548 69.02975403 -81.50709534 69.4515686 C-83.48669396 70.755195 -85.46211947 72.06499304 -87.4375 73.375 C-88.76079876 74.24780374 -90.08436403 75.12020355 -91.40820312 75.9921875 C-98.36688319 80.5666505 -98.36688319 80.5666505 -105.24243164 85.26416016 C-108.18717774 87.11782503 -109.59786449 87.40025124 -113 87 C-115.11542467 83.59271294 -115.25888022 81.31337057 -114.625 77.375 C-112.94224503 71.23964561 -109.9939458 68.95992851 -104.75 65.875 C-102.57860947 64.65290961 -100.39609988 63.45443161 -98.20605469 62.26611328 C-95.98323958 60.99038075 -93.91036842 59.60316043 -91.8203125 58.12109375 C-91.15676758 57.6513916 -90.49322266 57.18168945 -89.80957031 56.69775391 C-88.54884585 55.795009 -87.29514873 54.88234281 -86.04980469 53.95849609 C-83.25919389 52.0072548 -81.5837985 50.96253115 -78.13183594 51.18408203 C-74.70483193 52.07689832 -72.5021819 53.32120512 -69.5859375 55.31640625 C-68.57660156 55.99896484 -67.56726563 56.68152344 -66.52734375 57.38476562 C-65.48707031 58.10341797 -64.44679688 58.82207031 -63.375 59.5625 C-62.35792969 60.25408203 -61.34085937 60.94566406 -60.29296875 61.65820312 C-51.60845284 67.5634538 -51.60845284 67.5634538 -47.69238281 70.34716797 C-46.63116211 71.08725098 -45.56994141 71.82733398 -44.4765625 72.58984375 C-43.52088379 73.26781006 -42.56520508 73.94577637 -41.58056641 74.64428711 C-39.13405764 76.24197501 -39.13405764 76.24197501 -36.65771484 75.71313477 C-35.837146 75.36013306 -35.837146 75.36013306 -35 75 C-35.59397809 69.21667959 -36.71316076 63.88025433 -38.3203125 58.30078125 C-38.77763702 56.66349335 -39.23465946 55.02612104 -39.69140625 53.38867188 C-40.40936681 50.83983798 -41.1308262 48.29209664 -41.85791016 45.74584961 C-42.56336727 43.26676011 -43.25513132 40.78415976 -43.9453125 38.30078125 C-44.16607452 37.54235428 -44.38683655 36.78392731 -44.61428833 36.0025177 C-45.71023596 32.0283563 -46.50509384 28.92203285 -45 25 C-43.5480957 23.32177734 -43.5480957 23.32177734 -41.67578125 21.8359375 C-40.98395752 21.27600098 -40.29213379 20.71606445 -39.5793457 20.13916016 C-38.83128662 19.5569873 -38.08322754 18.97481445 -37.3125 18.375 C-35.74991469 17.14073299 -34.18741588 15.90635648 -32.625 14.671875 C-31.84253906 14.05892578 -31.06007813 13.44597656 -30.25390625 12.81445312 C-28.18638853 11.15004761 -26.21253788 9.4264919 -24.25 7.640625 C-16.73310338 0.94735359 -10.40224232 -2.18917247 0 0 Z " fill="#FFD164" transform="translate(325,121)"/>
<path d="M0 0 C0.99 0.99 0.99 0.99 2 2 C1.8485776 5.16420596 1.28992796 6.66522479 -0.79296875 9.0703125 C-1.97826172 10.08738281 -1.97826172 10.08738281 -3.1875 11.125 C-4.08984375 11.90101563 -4.9921875 12.67703125 -5.921875 13.4765625 C-10.97394927 17.6182376 -16.11428853 21.64163357 -21.27050781 25.65234375 C-23.96487114 27.75184764 -26.645153 29.8661224 -29.3125 32 C-30.19550781 32.70125 -31.07851562 33.4025 -31.98828125 34.125 C-34.24060978 35.92452935 -34.24060978 35.92452935 -35 39 C-34.73115206 40.88942439 -34.73115206 40.88942439 -34.10375977 42.90136719 C-33.77330406 44.06838165 -33.77330406 44.06838165 -33.43617249 45.25897217 C-33.19039963 46.0964801 -32.94462677 46.93398804 -32.69140625 47.796875 C-32.44583481 48.66387024 -32.20026337 49.53086548 -31.94725037 50.4241333 C-30.89592596 54.13544543 -29.82505061 57.84103059 -28.75463867 61.546875 C-27.97606449 64.25313102 -27.20847115 66.96233836 -26.44140625 69.671875 C-26.19765762 70.50128601 -25.953909 71.33069702 -25.70277405 72.1852417 C-24.35596221 76.95044935 -23.64219632 81.04354588 -24 86 C-24.33 86.33 -24.66 86.66 -25 87 C-31.98388789 86.91641624 -36.4227737 83.47184681 -42 79.5625 C-42.91974609 78.93666016 -43.83949219 78.31082031 -44.78710938 77.66601562 C-49.0684807 74.74920106 -53.31224117 71.78348223 -57.53125 68.77734375 C-58.20800781 68.30417725 -58.88476562 67.83101074 -59.58203125 67.34350586 C-60.83069339 66.46883838 -62.0684779 65.57836341 -63.29296875 64.67016602 C-65.12559414 63.32836708 -65.12559414 63.32836708 -68 62 C-71.45775776 63.0555481 -74.32768413 64.71132456 -77.3359375 66.6875 C-78.14603271 67.21706299 -78.95612793 67.74662598 -79.79077148 68.29223633 C-80.64356689 68.85579834 -81.4963623 69.41936035 -82.375 70 C-83.69769897 70.86371216 -83.69769897 70.86371216 -85.04711914 71.74487305 C-89.22185638 74.47780596 -93.37116452 77.24025023 -97.47265625 80.08203125 C-98.14699707 80.54544922 -98.82133789 81.00886719 -99.51611328 81.48632812 C-100.76514394 82.34842909 -102.00747269 83.22035055 -103.24169922 84.10351562 C-106.58403292 86.40697678 -108.90911168 87.71428209 -113 87 C-113.66 86.34 -114.32 85.68 -115 85 C-114.79296875 82.50390625 -114.79296875 82.50390625 -114.1875 79.5625 C-113.99542969 78.59441406 -113.80335937 77.62632812 -113.60546875 76.62890625 C-112.37558491 71.28882995 -112.37558491 71.28882995 -110.00976562 69.46948242 C-109.15060547 68.93685791 -108.29144531 68.4042334 -107.40625 67.85546875 C-106.4575 67.26056641 -105.50875 66.66566406 -104.53125 66.05273438 C-103.5309375 65.43720703 -102.530625 64.82167969 -101.5 64.1875 C-99.55150806 62.97357915 -97.6035851 61.7587445 -95.65625 60.54296875 C-94.70363281 59.95563965 -93.75101563 59.36831055 -92.76953125 58.76318359 C-89.42688165 56.63513216 -86.22580689 54.33475106 -83.05273438 51.9621582 C-80.2783624 50.66175383 -78.88297477 51.07634217 -76 52 C-73.97387695 53.0246582 -73.97387695 53.0246582 -71.98828125 54.30078125 C-71.23877197 54.77813721 -70.4892627 55.25549316 -69.71704102 55.74731445 C-68.92354248 56.26382568 -68.13004395 56.78033691 -67.3125 57.3125 C-66.48613037 57.83996826 -65.65976074 58.36743652 -64.80834961 58.91088867 C-60.45362261 61.70513397 -56.1516907 64.56496478 -51.890625 67.5 C-51.07940186 68.05518311 -50.26817871 68.61036621 -49.43237305 69.18237305 C-47.87619595 70.25279589 -46.32783603 71.3346911 -44.78833008 72.42895508 C-44.08603271 72.91259521 -43.38373535 73.39623535 -42.66015625 73.89453125 C-42.04793213 74.32612549 -41.43570801 74.75771973 -40.80493164 75.20239258 C-38.496299 76.22258774 -37.3302611 75.83092839 -35 75 C-36.5588513 64.71933417 -39.43054098 54.8541862 -42.26464844 44.87207031 C-42.88235659 42.68962842 -43.49226918 40.50511594 -44.1015625 38.3203125 C-44.2921524 37.65879181 -44.48274231 36.99727112 -44.67910767 36.31570435 C-45.65584204 32.80300493 -46.35664733 29.64903058 -46 26 C-44.5234375 24.1484375 -44.5234375 24.1484375 -42.375 22.375 C-41.55773437 21.69308594 -40.74046875 21.01117188 -39.8984375 20.30859375 C-38.94195312 19.54675781 -37.98546875 18.78492188 -37 18 C-36.45375977 17.56316895 -35.90751953 17.12633789 -35.34472656 16.67626953 C-32.36599837 14.29912762 -29.36840306 11.95122415 -26.34375 9.6328125 C-24.31549316 8.06747812 -22.46843468 6.50122605 -20.59375 4.7421875 C-14.42152272 -0.94639511 -8.18481219 -1.22826531 0 0 Z " fill="#FFD164" transform="translate(148,121)"/>
<path d="M0 0 C12.4477136 10.33531511 24.83416798 26.35654134 26.82080078 42.93969727 C27.08836084 49.48275693 26.48130118 53.64340646 22.44970703 58.84204102 C19.00698638 62.28476167 15.94121292 64.7308451 10.90600586 64.95556641 C9.91624756 64.95032959 8.92648926 64.94509277 7.90673828 64.93969727 C6.83359375 64.93647461 5.76044922 64.93325195 4.65478516 64.92993164 C3.53523438 64.92155273 2.41568359 64.91317383 1.26220703 64.90454102 C0.13105469 64.9000293 -1.00009766 64.89551758 -2.16552734 64.89086914 C-4.96050224 64.879076 -7.75537117 64.86261752 -10.55029297 64.84204102 C-8.98771485 63.80032227 -7.42244407 62.76184489 -5.83154297 61.76391602 C-1.61084729 58.98714255 0.93233644 56.84043827 2.44970703 51.84204102 C3.56745651 42.56095267 1.97396362 35.90552618 -2.55029297 27.84204102 C-3.06978516 26.85204102 -3.58927734 25.86204102 -4.12451172 24.84204102 C-8.08187019 17.60994534 -12.7347179 11.66748973 -18.55029297 5.84204102 C-19.23736328 5.14336914 -19.92443359 4.44469727 -20.63232422 3.72485352 C-32.87920935 -7.95399428 -48.30464986 -13.51097788 -64.55029297 -17.15795898 C-64.55029297 -17.48795898 -64.55029297 -17.81795898 -64.55029297 -18.15795898 C-41.47063885 -22.13616252 -18.08876914 -14.38941596 0 0 Z " fill="#04E49A" transform="translate(477.55029296875,387.157958984375)"/>
<path d="M0 0 C15.962614 -0.99306585 31.23796344 3.88475695 43.4375 14.3125 C48.02974573 18.74639243 51.67318222 23.56501159 55 29 C55.39960938 29.63292969 55.79921875 30.26585937 56.2109375 30.91796875 C63.47013092 43.71707294 63.45289384 59.29782884 59.83227539 73.13696289 C55.72189614 87.50174741 46.62911416 99.00757042 33.7109375 106.5703125 C23.66985572 111.86575332 12.45996133 114.99651838 1 114 C0.01 113.34 -0.98 112.68 -2 112 C-1.21238281 111.86464844 -0.42476562 111.72929687 0.38671875 111.58984375 C16.17444848 108.46966521 27.87027007 101.21310136 36.8605957 88.02978516 C40.00373344 83.22665005 42.3247178 78.47937604 44 73 C44.22300781 72.29875 44.44601562 71.5975 44.67578125 70.875 C48.55653706 56.51356354 45.80591636 41.23209354 38.5625 28.4375 C30.20902216 15.26538441 18.19087853 6.17711641 2.8125 2.6875 C1.554375 2.460625 0.29625 2.23375 -1 2 C-0.67 1.34 -0.34 0.68 0 0 Z " fill="#F1CCBD" transform="translate(251,232)"/>
<path d="M0 0 C0.81726563 0.41765625 1.63453125 0.8353125 2.4765625 1.265625 C13.19436608 7.18593555 27.14912496 18.74547774 31.96875 30.328125 C32.01589816 34.3592924 30.14437379 37.3959394 28.3125 40.875 C24.36730814 48.77565319 21.92108957 56.35509693 20 65 C19.77570313 65.96808594 19.55140625 66.93617188 19.3203125 67.93359375 C18.860721 69.95138932 18.42633337 71.9749165 18 74 C12.72 74 7.44 74 2 74 C3.98 73.01 3.98 73.01 6 72 C11.37740625 69.02526463 14.68453914 65.67091685 17 60 C18.68880142 51.91009643 15.51192747 45.15392633 12 38 C11.55398437 37.06929688 11.10796875 36.13859375 10.6484375 35.1796875 C1.07592697 16.40901042 -15.06273344 3.1435133 -34.765625 -3.96875 C-39.78536961 -5.56924828 -44.8575278 -6.86031697 -50 -8 C-50 -8.33 -50 -8.66 -50 -9 C-33.21042908 -12.47461894 -14.88619328 -7.78662418 0 0 Z " fill="#04E49B" transform="translate(128,378)"/>
<path d="M0 0 C13.01005417 -0.69147926 23.66216525 1.82515837 34 10 C42.44355883 17.63666584 47.48457626 27.20949693 48.23828125 38.6015625 C48.61251776 52.19376514 45.42888402 62.97622488 36 73.16015625 C27.66348445 81.12450593 18.19566431 85.18896334 6.6875 85.0625 C5.61886719 85.05347656 4.55023438 85.04445313 3.44921875 85.03515625 C2.64097656 85.02355469 1.83273437 85.01195312 1 85 C3.29414289 82.70585711 4.40281553 82.54269064 7.5 81.8125 C17.12303459 79.04518225 25.05870532 72.59057554 30.1796875 64.02734375 C35.67609051 53.61627382 36.87894684 41.41255745 34.3125 29.921875 C33.38326349 27.45939825 32.31872525 25.2759308 31 23 C30.57589844 22.22398437 30.15179688 21.44796875 29.71484375 20.6484375 C24.09841051 11.29293032 16.15514818 6.41941538 6 3 C4.80375 2.5875 3.6075 2.175 2.375 1.75 C1.59125 1.5025 0.8075 1.255 0 1 C0 0.67 0 0.34 0 0 Z " fill="#F1CCBD" transform="translate(418,273)"/>
<path d="M0 0 C12.33219779 -0.88969764 23.35125644 2.17105876 33 10 C33.62519531 10.50144531 34.25039062 11.00289063 34.89453125 11.51953125 C43.05183004 18.82377918 47.13666878 29.42947552 48.21484375 40.1328125 C48.76314076 52.37080173 44.03866147 64.29667664 35.84765625 73.3046875 C26.01765621 82.32418014 15.33823987 85.45502292 2.23828125 85.10546875 C1.49964844 85.07066406 0.76101562 85.03585937 0 85 C2.29442996 82.70557004 3.46517395 82.50615472 6.5625 81.75 C16.96363538 78.77395259 25.68143067 71.41110481 31 62 C35.82610138 51.32930181 37.03888872 39.16519719 33 28 C27.89540984 16.32996658 20.82375651 8.79488743 9 4 C6.02465052 2.90683456 3.03840527 1.90271461 0 1 C0 0.67 0 0.34 0 0 Z " fill="#F1CCBD" transform="translate(83,273)"/>
<path d="M0 0 C2.5 2.125 2.5 2.125 4 5 C4.07466312 9.18113479 3.65275307 11.22856455 0.9375 14.4375 C-0.031875 15.283125 -1.00125 16.12875 -2 17 C-3.27719224 18.28537937 -4.54749597 19.57762382 -5.8125 20.875 C-9.04786197 24.11036197 -12.37979114 27.16803836 -15.8671875 30.12890625 C-17.43646148 31.50561364 -18.95615266 32.93935126 -20.4453125 34.40234375 C-27.75836955 41.48057786 -27.75836955 41.48057786 -32.3125 42.3125 C-36.65240519 41.94471142 -38.19365137 41.31659383 -41 38 C-42 35.0625 -42 35.0625 -42 32 C-38.01852857 24.22545483 -30.72877625 18.50067005 -24.1796875 12.8984375 C-20.54538722 9.73307919 -17.03955706 6.42404394 -13.515625 3.13671875 C-8.81376884 -0.85693858 -6.11857733 -1.63890464 0 0 Z " fill="#FFE176" transform="translate(340,48)"/>
<path d="M0 0 C2.84375 1.8203125 2.84375 1.8203125 5.5 4.125 C6.44488281 4.9396875 7.38976562 5.754375 8.36328125 6.59375 C11.10114389 9.09230317 13.74273881 11.6462546 16.31640625 14.3125 C18.80132219 16.8031814 21.47326356 19.0631146 24.13671875 21.359375 C26.53847065 23.4741251 28.77173469 25.7042115 31 28 C31.33 28.33 31.66 28.66 32 29 C32.58394161 36.12408759 32.58394161 36.12408759 30.375 39.4375 C27.4340868 41.37231132 25.52349544 41.92809193 22 42 C17.35520404 39.7336599 13.88582251 36.27985229 10.1875 32.75 C8.94216958 31.57731385 7.69608104 30.40543225 6.44921875 29.234375 C5.85415527 28.67427734 5.2590918 28.11417969 4.64599609 27.53710938 C0.96602488 24.10057737 -2.80200006 20.7495291 -6.7421875 17.61328125 C-12.11845742 13.33027196 -12.11845742 13.33027196 -13 10 C-12.92526438 5.81480553 -12.60878514 3.71621781 -9.875 0.5 C-6.05170645 -1.49476185 -4.16159664 -0.9671941 0 0 Z " fill="#FFE176" transform="translate(181,48)"/>
<path d="M0 0 C2.34225867 1.56150578 2.86753999 2.47793124 3.55761719 5.19775391 C4.4536077 10.87334945 4.22742771 16.64163913 4.25 22.375 C4.270625 23.67695313 4.29125 24.97890625 4.3125 26.3203125 C4.36285266 38.65671448 4.36285266 38.65671448 1 44 C-2.3125 45.625 -2.3125 45.625 -6 46 C-11.52272727 43.95454545 -11.52272727 43.95454545 -13 41 C-13.1234077 38.19097896 -13.18840795 35.40772276 -13.203125 32.59765625 C-13.20882507 31.76415146 -13.21452515 30.93064667 -13.22039795 30.07188416 C-13.22985044 28.30745718 -13.23638292 26.54301254 -13.24023438 24.77856445 C-13.24994904 22.07667365 -13.28097304 19.3755406 -13.3125 16.67382812 C-13.31902913 14.96094203 -13.32427996 13.24805048 -13.328125 11.53515625 C-13.3404718 10.7257106 -13.3528186 9.91626495 -13.36553955 9.08229065 C-13.34304703 3.43044017 -13.34304703 3.43044017 -11.66522217 1.32518005 C-7.85210528 -1.70928979 -4.51273635 -0.96701493 0 0 Z " fill="#FFE271" transform="translate(261,6)"/>
<path d="M0 0 C2.41137695 0.12182617 2.41137695 0.12182617 5 1 C6.36010742 3.15356445 6.36010742 3.15356445 7.41796875 6.05078125 C7.82966309 7.1382666 8.24135742 8.22575195 8.66552734 9.34619141 C9.32609131 11.15482666 9.32609131 11.15482666 10 13 C10.76221988 14.9642085 11.53660622 16.92337124 12.31106567 18.88278198 C13.38814805 21.61529413 14.44623495 24.35499234 15.50415039 27.0949707 C16.32651027 29.22376761 17.15239076 31.35117735 17.97851562 33.47851562 C18.50281185 34.83325298 19.02690828 36.18806767 19.55078125 37.54296875 C20.02169189 38.76008545 20.49260254 39.97720215 20.9777832 41.23120117 C22 44 22 44 22 45 C19.69 45 17.38 45 15 45 C11.47149813 36.6867605 8.13092089 28.31051994 4.9230957 19.86938477 C4.17567338 17.90643991 3.42087024 15.94642504 2.66601562 13.98632812 C2.18704875 12.72933852 1.70851622 11.4721833 1.23046875 10.21484375 C0.80145264 9.09198975 0.37243652 7.96913574 -0.06958008 6.81225586 C-1 4 -1 4 -1 1 C-0.67 0.67 -0.34 0.34 0 0 Z " fill="#FFD165" transform="translate(254,72)"/>
<path d="M0 0 C2.26171875 -0.046875 2.26171875 -0.046875 5 1 C6.73892283 3.72379221 7.73006017 6.71701662 8.8125 9.75 C9.14435303 10.63365234 9.47620605 11.51730469 9.81811523 12.42773438 C10.52347159 14.30780262 11.22125003 16.19072828 11.91210938 18.07617188 C13.00832073 21.0223629 14.15899256 23.94142343 15.328125 26.859375 C16.07319907 28.73947144 16.81799892 30.61967658 17.5625 32.5 C17.92126221 33.38913086 18.28002441 34.27826172 18.6496582 35.19433594 C18.97281006 36.02739258 19.29596191 36.86044922 19.62890625 37.71875 C19.91838135 38.45029297 20.20785645 39.18183594 20.50610352 39.93554688 C21.07519283 42.31430083 20.77510386 43.70732098 20 46 C17.25976562 45.56616211 17.25976562 45.56616211 14 44 C12.1149676 41.18369989 11.01812095 38.10793573 9.84375 34.94140625 C9.49235962 34.04131332 9.14096924 33.1412204 8.77893066 32.21385193 C8.04229754 30.31234199 7.31674792 28.40650631 6.6015625 26.49682617 C5.50152034 23.56654985 4.36326464 20.65338794 3.21875 17.74023438 C2.50810685 15.89151123 1.79969566 14.04192825 1.09375 12.19140625 C0.75226929 11.31633926 0.41078857 10.44127228 0.05895996 9.53968811 C-0.24215698 8.72551926 -0.54327393 7.9113504 -0.85351562 7.07250977 C-1.25938904 5.99901024 -1.25938904 5.99901024 -1.67346191 4.90382385 C-2 3 -2 3 0 0 Z " fill="#FFD165" transform="translate(77,72)"/>
<path d="M0 0 C2.26660156 -0.02832031 2.26660156 -0.02832031 5 1 C6.71061762 3.62526188 7.6782747 6.51519944 8.734375 9.453125 C9.05786926 10.30549744 9.38136353 11.15786987 9.71466064 12.03607178 C10.74542149 14.76735396 11.74737729 17.50828087 12.75 20.25 C13.43964707 22.0826942 14.13103325 23.91473498 14.82421875 25.74609375 C20.26367599 40.23907768 20.26367599 40.23907768 21 45 C19.02 45 17.04 45 15 45 C11.1967956 37.9210429 8.34826851 30.5039588 5.51635742 22.99926758 C4.68376052 20.80263417 3.83327355 18.6134444 2.98242188 16.42382812 C2.44940714 15.01865111 1.91746746 13.61306573 1.38671875 12.20703125 C1.00407112 11.23344414 1.00407112 11.23344414 0.61369324 10.2401886 C-0.79323846 6.43870359 -1.23376664 3.89525045 0 0 Z " fill="#FFD165" transform="translate(431,72)"/>
<path d="M0 0 C3.98597884 1.71387297 7.20217184 4.37469591 10.5625 7.0625 C11.17367676 7.548396 11.78485352 8.03429199 12.41455078 8.53491211 C13.66766198 9.53313391 14.91929036 10.53321996 16.16943359 11.53515625 C17.89512829 12.91608026 19.62837018 14.28693718 21.36328125 15.65625 C22.35714844 16.4503125 23.35101563 17.244375 24.375 18.0625 C25.26960938 18.77535156 26.16421875 19.48820312 27.0859375 20.22265625 C27.71757812 20.80917969 28.34921875 21.39570313 29 22 C29 22.66 29 23.32 29 24 C24.46718149 22.54212492 21.32143634 19.97865524 17.8125 16.875 C16.66911488 15.88149193 15.52457013 14.88931695 14.37890625 13.8984375 C13.81316895 13.40827148 13.24743164 12.91810547 12.66455078 12.41308594 C9.47983372 9.7094863 6.1513149 7.18616231 2.828125 4.65625 C1 3 1 3 0 0 Z " fill="#FFD564" transform="translate(361,125)"/>
<path d="M0 0 C4.94929528 3.16290901 9.46594896 6.70883961 14 10.4375 C14.68578125 10.99759766 15.3715625 11.55769531 16.078125 12.13476562 C20.07136195 15.40022752 24.04229014 18.69160191 28 22 C27.67 22.99 27.34 23.98 27 25 C26.26910156 24.32517578 26.26910156 24.32517578 25.5234375 23.63671875 C17.98113619 16.79379447 10.02569974 10.07878544 1.58203125 4.36328125 C1.05996094 3.91339844 0.53789062 3.46351563 0 3 C0 2.01 0 1.02 0 0 Z " fill="#FFD567" transform="translate(185,125)"/>
<path d="M0 0 C5.10379295 3.77680678 10.13060632 7.64285762 15.125 11.5625 C15.71039551 12.02116455 16.29579102 12.4798291 16.89892578 12.95239258 C20.6536592 15.90616555 24.34272656 18.92633403 28 22 C27.67 22.99 27.34 23.98 27 25 C26.22398438 24.33355469 25.44796875 23.66710937 24.6484375 22.98046875 C23.5577918 22.04889331 22.4666023 21.11795433 21.375 20.1875 C20.80048096 19.69701172 20.22596191 19.20652344 19.6340332 18.70117188 C16.48397505 16.03256737 13.29954692 13.43346063 10.01953125 10.92578125 C9.37902832 10.43505127 8.73852539 9.94432129 8.07861328 9.4387207 C6.83189052 8.49023926 5.57904575 7.54974385 4.31982422 6.61791992 C2.82549139 5.48003931 1.40474672 4.24679169 0 3 C0 2.01 0 1.02 0 0 Z " fill="#FFD468" transform="translate(8,125)"/>
</svg>
