<svg xmlns="http://www.w3.org/2000/svg" viewBox="0 0 24 24" fill="#60a5fa">
  <path d="M12 8.5c1.93 0 3.5 1.57 3.5 3.5S13.93 15.5 12 15.5 8.5 13.93 8.5 12 10.07 8.5 12 8.5zm9 3.1v.8c0 .5-.36.92-.85.99l-1.24.18c-.2.58-.44 1.12-.74 1.64l.75 1.02c.3.4.26.97-.1 1.33l-.57.57c-.36.36-.93.4-1.33.1l-1.02-.75c-.52.3-1.06.54-1.64.74l-.18 1.24c-.07.49-.49.85-.99.85h-.8c-.5 0-.92-.36-.99-.85l-.18-1.24c-.58-.2-1.12-.44-1.64-.74l-1.02.75c-.4.3-.97.26-1.33-.1l-.57-.57c-.36-.36-.4-.93-.1-1.33l.75-1.02c-.3-.52-.54-1.06-.74-1.64l-1.24-.18c-.49-.07-.85-.49-.85-.99v-.8c0-.5.36-.92.85-.99l1.24-.18c.2-.58.44-1.12.74-1.64l-.75-1.02c-.3-.4-.26-.97.1-1.33l.57-.57c.36-.36.93-.4 1.33-.1l1.02.75c.52-.3 1.06-.54 1.64-.74l.18-1.24c.07-.49.49-.85.99-.85h.8c.5 0 .92.36.99.85l.18 1.24c.58.2 1.12.44 1.64.74l1.02-.75c.4-.3.97-.26 1.33.1l.57.57c.36.36.4.93.1 1.33l-.75 1.02c.3.52.54 1.06.74 1.64l1.24.18c.49.07.85.49.85.99z"/>
</svg>

