<?xml version="1.0" encoding="UTF-8"?>
<svg version="1.1" xmlns="http://www.w3.org/2000/svg" width="512" height="512">
<path d="M0 0 C1.46754266 -0.00505525 2.93507912 -0.0122916 4.4026016 -0.02149814 C8.40395296 -0.04030817 12.40468746 -0.02825109 16.40602255 -0.01077521 C20.73327349 0.00265617 25.06043756 -0.01285878 29.38768005 -0.02459717 C37.8517901 -0.04293432 46.31566862 -0.03448815 54.77977134 -0.01650894 C61.66013691 -0.00246029 68.5404398 0.00140499 75.42081833 -0.00195122 C76.40155846 -0.00242866 77.38229859 -0.0029061 78.39275812 -0.00339801 C80.38533742 -0.00442438 82.3779167 -0.00547974 84.37049596 -0.00656378 C101.9721717 -0.01512267 119.57373592 0.0015188 137.17538452 0.03126526 C154.243466 0.06010947 171.31138691 0.06718097 188.37948608 0.05177307 C206.98219018 0.03500275 225.58481811 0.03098451 244.1875242 0.04848343 C246.17199666 0.05032776 248.15646914 0.05216248 250.14094162 0.0539875 C251.11725379 0.05489959 252.09356596 0.05581168 253.09946335 0.05675141 C259.97032005 0.06235096 266.8411395 0.05905513 273.71199417 0.05244255 C282.08688757 0.04470214 290.46162306 0.05148773 298.83648469 0.07661759 C303.10714768 0.08909517 307.37756503 0.09528029 311.64823723 0.08407593 C315.56149208 0.07400327 319.47425803 0.082557 323.3874536 0.10565711 C324.79909915 0.11079781 326.21078884 0.10928821 327.6224149 0.10026246 C340.54524411 0.0245418 350.12416395 2.88851374 359.70956421 11.81568909 C367.59267885 19.97785203 370.45609629 29.54146761 370.42553711 40.72743225 C370.43132951 41.50197549 370.43712191 42.27651874 370.44308984 43.07453299 C370.4599797 45.64780015 370.46295677 48.22088677 370.46591187 50.79420471 C370.47521766 52.64758234 370.4853873 54.50095579 370.49635315 56.35432434 C370.52359377 61.37021074 370.53878495 66.38606915 370.55178118 71.40200996 C370.56743772 76.64975816 370.59421989 81.89744941 370.61981201 87.14515686 C370.66655513 97.07550621 370.70332087 107.00586632 370.73648489 116.93626928 C370.77473783 128.24461832 370.82413969 139.55291009 370.87446904 150.86121082 C370.97772247 174.11682778 371.0670043 197.37248153 371.14706421 220.62818909 C373.32066747 216.01162969 375.49401561 211.39495031 377.66714478 206.77816772 C378.40381261 205.21321503 379.14054572 203.64829307 379.87734985 202.08340454 C384.63986891 191.96821411 389.40025562 181.85211844 394.10592651 171.71031189 C397.03835715 165.43260306 400.01917197 160.92788276 406.14706421 157.37818909 C406.99268921 156.87803284 407.83831421 156.37787659 408.70956421 155.86256409 C415.41570612 152.46650504 423.86708149 152.51493213 431.04550171 154.38209534 C440.2325374 157.89965405 444.75756642 162.91530041 449.14706421 171.62818909 C452.29162198 179.10366052 451.4777992 187.74122356 448.60800171 195.20631409 C447.93082317 196.77157638 447.23436837 198.32859572 446.52206421 199.87818909 C446.1330896 200.75531555 445.74411499 201.63244202 445.34335327 202.53614807 C441.08127869 212.02194202 436.49873926 221.36335066 431.93734741 230.70802307 C427.22057553 240.37258672 422.64014794 250.09275438 418.13241577 259.85694885 C413.84742588 269.13479855 409.50644881 278.38510905 405.14706421 287.62818909 C400.19353907 298.13228385 395.27205101 308.64989742 390.39706421 319.19068909 C384.13034083 332.73483487 377.8216666 346.2789843 371.14706421 359.62818909 C371.04031169 362.19912385 370.99290804 364.74410755 370.98934937 367.31568909 C370.98426865 368.10946457 370.97918793 368.90324005 370.97395325 369.72106934 C370.96323683 371.44912099 370.95462165 373.17718663 370.94783401 374.90525818 C370.93604565 377.64704109 370.91658914 380.38866643 370.89471436 383.13038635 C370.8331235 390.9276142 370.77920813 398.72482909 370.74569702 406.52223206 C370.72465276 411.29036518 370.68926309 416.05821613 370.64493942 420.82618713 C370.63084644 422.63767657 370.62207224 424.44921599 370.61888504 426.26075745 C370.58833677 441.97290815 368.87695185 453.38835895 357.89706421 465.37818909 C351.26102375 471.73341715 343.2126709 474.74724318 334.15705013 474.76241016 C332.92274759 474.76686801 331.68844505 474.77132585 330.4167394 474.77591878 C329.04477877 474.77582949 327.67281815 474.77563964 326.30085754 474.77536011 C324.84506462 474.77865973 323.3892726 474.7823855 321.93348175 474.78650159 C317.92759738 474.79651865 313.921728 474.80023791 309.91583288 474.8028909 C305.59730923 474.80679485 301.27879745 474.81637316 296.96028137 474.82510376 C286.5279918 474.84486614 276.09570125 474.85493433 265.66339764 474.86383155 C260.75008064 474.86821503 255.83676471 474.87358171 250.92344856 474.87882042 C234.58925697 474.89583287 218.25506605 474.91032673 201.92086697 474.91756916 C197.68205705 474.91947904 193.44324715 474.92139938 189.20443726 474.9233551 C187.62414194 474.92408071 187.62414194 474.92408071 186.01192147 474.92482098 C168.94794357 474.93312011 151.88403579 474.95845498 134.8200885 474.99093578 C117.29906507 475.02401456 99.77807726 475.04201869 82.25702244 475.0452134 C72.42036755 475.04737779 62.58381492 475.05611605 52.74719048 475.08167458 C44.3692331 475.10339279 35.99140281 475.11142648 27.61342048 475.10170779 C23.34064335 475.09716628 19.06812837 475.09904057 14.79538727 475.11846924 C10.87871024 475.13612459 6.96248615 475.13508424 3.04580415 475.11957195 C1.63388794 475.11719945 0.22194017 475.12150083 -1.18992788 475.1334006 C-13.47732428 475.23049341 -23.61249545 473.09690034 -32.85293579 464.62818909 C-42.21634007 455.39513383 -44.87559086 445.03654205 -45.10741138 432.12181282 C-45.12721657 429.13741747 -45.1213256 426.15342334 -45.1136322 423.16899109 C-45.11665609 421.50249176 -45.12054675 419.83599383 -45.12522477 418.16949832 C-45.13548291 413.60899928 -45.13332852 409.04857903 -45.12904418 404.48807359 C-45.12657299 399.56226653 -45.13559597 394.63647824 -45.14308167 389.7106781 C-45.15581963 380.06792236 -45.15762349 370.42519448 -45.1552814 360.78243174 C-45.15349713 352.94333406 -45.15525023 345.10424483 -45.15950584 337.26514816 C-45.16010103 336.1487218 -45.16069622 335.03229543 -45.16130945 333.88203796 C-45.16252122 331.61389407 -45.16373535 329.34575019 -45.16495182 327.07760631 C-45.17582382 305.81539583 -45.17366644 284.55320123 -45.16756698 263.29098986 C-45.16239773 243.84840081 -45.17365409 224.40586186 -45.1926652 204.96328272 C-45.21204635 184.98880425 -45.22029913 165.01434949 -45.21654195 145.03986156 C-45.21463038 133.83004093 -45.21711323 122.62026294 -45.23125648 111.41044998 C-45.24317473 101.86777 -45.24457013 92.32515892 -45.23246632 82.78247799 C-45.22658089 77.91618676 -45.22546898 73.05002152 -45.23746872 68.18373871 C-45.24833817 63.72390995 -45.24521152 59.26431224 -45.23120704 54.80449425 C-45.22856305 53.19624585 -45.23091722 51.58797928 -45.2389429 49.97974874 C-45.30593788 35.54633525 -43.8167858 22.61912293 -33.88418579 11.40553284 C-24.07729348 1.90066439 -13.2402738 -0.12132406 0 0 Z " fill="#DDDCFE" transform="translate(52.852935791015625,18.371810913085938)"/>
<path d="M0 0 C1.46754266 -0.00505525 2.93507912 -0.0122916 4.4026016 -0.02149814 C8.40395296 -0.04030817 12.40468746 -0.02825109 16.40602255 -0.01077521 C20.73327349 0.00265617 25.06043756 -0.01285878 29.38768005 -0.02459717 C37.8517901 -0.04293432 46.31566862 -0.03448815 54.77977134 -0.01650894 C61.66013691 -0.00246029 68.5404398 0.00140499 75.42081833 -0.00195122 C76.40155846 -0.00242866 77.38229859 -0.0029061 78.39275812 -0.00339801 C80.38533742 -0.00442438 82.3779167 -0.00547974 84.37049596 -0.00656378 C101.9721717 -0.01512267 119.57373592 0.0015188 137.17538452 0.03126526 C154.243466 0.06010947 171.31138691 0.06718097 188.37948608 0.05177307 C206.98219018 0.03500275 225.58481811 0.03098451 244.1875242 0.04848343 C246.17199666 0.05032776 248.15646914 0.05216248 250.14094162 0.0539875 C251.11725379 0.05489959 252.09356596 0.05581168 253.09946335 0.05675141 C259.97032005 0.06235096 266.8411395 0.05905513 273.71199417 0.05244255 C282.08688757 0.04470214 290.46162306 0.05148773 298.83648469 0.07661759 C303.10714768 0.08909517 307.37756503 0.09528029 311.64823723 0.08407593 C315.56149208 0.07400327 319.47425803 0.082557 323.3874536 0.10565711 C324.79909915 0.11079781 326.21078884 0.10928821 327.6224149 0.10026246 C340.54524411 0.0245418 350.12416395 2.88851374 359.70956421 11.81568909 C376.83597815 29.54834777 370.14706421 55.79557315 370.14706421 78.62818909 C233.19706421 78.62818909 96.24706421 78.62818909 -44.85293579 78.62818909 C-44.85293579 23.78890337 -44.85293579 23.78890337 -33.88418579 11.40553284 C-24.07729348 1.90066439 -13.2402738 -0.12132406 0 0 Z " fill="#5B5E8B" transform="translate(52.852935791015625,18.371810913085938)"/>
<path d="M0 0 C5.93401912 6.26368685 10.34232549 14.0863327 10.21362305 22.8527832 C9.7225653 29.41466847 8.36436343 34.66560844 5.625 40.625 C5.04153809 41.9406897 5.04153809 41.9406897 4.44628906 43.28295898 C0.18421448 52.76875294 -4.39832495 62.11016158 -8.9597168 71.45483398 C-13.67648868 81.11939763 -18.25691626 90.83956529 -22.76464844 100.60375977 C-27.04963833 109.88160946 -31.3906154 119.13191997 -35.75 128.375 C-40.15754246 137.72132252 -44.54944774 147.07405465 -48.88745117 156.45288086 C-50.98623588 160.98822591 -53.09706299 165.51792875 -55.20751953 170.04785156 C-56.77531109 173.42959631 -58.32306456 176.82010877 -59.87109375 180.2109375 C-69.76832283 201.66250412 -80.4584816 215.19790021 -100.75 227.8125 C-103.00151309 229.22546839 -105.25055768 230.64232775 -107.5 232.05859375 C-108.48484375 232.67275146 -109.4696875 233.28690918 -110.484375 233.91967773 C-112.63096729 235.1850403 -112.63096729 235.1850403 -113.75 236.375 C-116.40612392 236.65459199 -118.08945466 236.82411407 -120.34106445 235.29321289 C-122.414672 232.47007401 -122.50136939 229.89346798 -122.91796875 226.43359375 C-123.04477776 225.41012596 -123.04477776 225.41012596 -123.17414856 224.36598206 C-123.35064854 222.92009576 -123.5208832 221.47343284 -123.68530273 220.02612305 C-123.93403673 217.84289829 -124.20251981 215.66284535 -124.47460938 213.48242188 C-126.9571883 193.05792024 -124.11318228 177.98815675 -115.28125 159.57470703 C-113.53313125 155.92183007 -111.81189512 152.25688572 -110.09375 148.58984375 C-107.35912404 142.75813465 -104.61648154 136.93027671 -101.8671875 131.10546875 C-93.18628774 112.70830485 -84.58694236 94.27754901 -76.1875 75.75 C-69.46279094 60.91679465 -62.66736124 46.11967727 -55.75 31.375 C-55.20118164 30.20211426 -54.65236328 29.02922852 -54.08691406 27.82080078 C-52.46185854 24.35581812 -50.82654552 20.89588352 -49.1875 17.4375 C-48.69870361 16.39464844 -48.20990723 15.35179687 -47.70629883 14.27734375 C-44.39767294 7.34223271 -41.57334198 2.07754566 -34.75 -1.875 C-33.904375 -2.37515625 -33.05875 -2.8753125 -32.1875 -3.390625 C-21.60926927 -8.74754954 -9.67619982 -5.71775444 0 0 Z " fill="#E73D62" transform="translate(493.75,177.625)"/>
<path d="M0 0 C0.90442337 -0.00817749 1.80884674 -0.01635498 2.74067688 -0.02478027 C5.73767436 -0.04961806 8.73462447 -0.06614746 11.73168945 -0.08056641 C12.75601389 -0.08589008 13.78033833 -0.09121376 14.8357029 -0.09669876 C20.25895057 -0.12342513 25.68217528 -0.14280046 31.10546875 -0.15722656 C35.58972601 -0.17055974 40.07352758 -0.19840199 44.55761719 -0.23925781 C49.97519727 -0.28861823 55.39236433 -0.3133521 60.81015968 -0.32045364 C62.87178873 -0.32715952 64.9334088 -0.34236423 66.99490929 -0.36634445 C69.8864145 -0.39805674 72.77633441 -0.39802338 75.66796875 -0.390625 C76.51346283 -0.40703033 77.35895691 -0.42343567 78.23007202 -0.44033813 C84.29330713 -0.37710168 88.5842508 1.12286825 93.1574707 5.19287109 C96.10063287 9.48670811 96.53820117 12.95443978 96.56152344 18.09692383 C96.56838669 18.75955231 96.57524994 19.42218079 96.58232117 20.10488892 C96.60051023 22.2789702 96.59676331 24.45232436 96.59106445 26.62646484 C96.59563015 28.14811943 96.60093688 29.66977195 96.60694885 31.19142151 C96.61586448 34.37468869 96.61347475 37.55770478 96.60351562 40.7409668 C96.59202901 44.80743078 96.61223968 48.87302597 96.64143276 52.93937588 C96.65983567 56.08024034 96.65949422 59.22089817 96.65379524 62.36180305 C96.65364252 63.86042563 96.65964618 65.35906265 96.67208672 66.85763359 C96.77908998 81.85951213 96.77908998 81.85951213 92.1574707 87.19287109 C86.58581114 91.0840305 82.5358151 91.77137084 75.82910156 91.69458008 C74.9208815 91.69998306 74.01266144 91.70538605 73.07691956 91.71095276 C70.09171394 91.72340254 67.10747976 91.70697515 64.12231445 91.68896484 C62.03918914 91.68911991 59.95606354 91.69061007 57.87294006 91.69337463 C53.51444695 91.6947569 49.1562836 91.68222805 44.79785156 91.65942383 C39.21700161 91.6310223 33.6366986 91.63378373 28.05580807 91.64651394 C23.75691574 91.653475 19.45814939 91.64567719 15.15927315 91.63325691 C13.101624 91.62874784 11.04396131 91.62840085 8.98631096 91.63232231 C6.10940783 91.63523913 3.23325369 91.61870536 0.35644531 91.59692383 C-0.48995514 91.60142548 -1.33635559 91.60592712 -2.20840454 91.61056519 C-7.15706849 91.54844754 -10.54937213 90.91786249 -14.8425293 88.19287109 C-19.26748101 83.40913951 -19.96728301 80.01246433 -20.00366211 73.61352539 C-20.00862701 72.9497287 -20.01359192 72.28593201 -20.01870728 71.60202026 C-20.03330601 69.40703288 -20.04012745 67.21211779 -20.0456543 65.01708984 C-20.05140815 63.48875426 -20.05716585 61.96041869 -20.06292725 60.43208313 C-20.07343107 57.22677271 -20.07927761 54.02148732 -20.08276367 50.81616211 C-20.08824359 46.71718612 -20.1122632 42.61854312 -20.14073563 38.51967144 C-20.15939875 35.36173042 -20.16456958 32.20386896 -20.16609955 29.04587746 C-20.16911891 27.53525792 -20.17712324 26.02463954 -20.19028473 24.51407433 C-20.20742093 22.39592863 -20.20544698 20.27858808 -20.19897461 18.16040039 C-20.20262024 16.95699509 -20.20626587 15.75358978 -20.21002197 14.51371765 C-19.65747413 9.52062062 -18.01650814 6.27880152 -14.3425293 2.88037109 C-9.7276389 -0.23467992 -5.37100805 0.02674125 0 0 Z " fill="#E73E63" transform="translate(67.842529296875,248.80712890625)"/>
<path d="M0 0 C1.37674141 -0.00810448 1.37674141 -0.00810448 2.78129578 -0.01637268 C5.80439861 -0.02884338 8.82654602 -0.01237972 11.84960938 0.00561523 C13.95658417 0.00546021 16.06355924 0.00397063 18.17053223 0.00120544 C22.58207842 -0.00017781 26.99329921 0.01236748 31.40478516 0.03515625 C37.05404309 0.06354039 42.70276048 0.06080244 48.35205841 0.04806614 C52.70156454 0.04110472 57.05094617 0.0489036 61.4004364 0.06132317 C63.48320539 0.06583314 65.56598776 0.06617844 67.64875793 0.06225777 C70.56168934 0.05934106 73.47388093 0.07587489 76.38671875 0.09765625 C77.24404099 0.0931546 78.10136322 0.08865295 78.98466492 0.08401489 C83.95910783 0.14568556 87.38235653 0.75163516 91.69335938 3.50170898 C95.95619126 8.22538756 96.81941919 10.74057237 96.87036133 17.04345703 C96.87693253 17.71525497 96.88350372 18.38705292 96.89027405 19.07920837 C96.91001736 21.30728262 96.92167416 23.53528931 96.93164062 25.76342773 C96.93571615 26.5251359 96.93979168 27.28684406 96.94399071 28.07163429 C96.96485959 32.10618443 96.97915562 36.14070051 96.98852539 40.17529297 C96.99956911 44.33370918 97.03394246 48.49158721 97.07369709 52.64981365 C97.0999078 55.85412049 97.10822132 59.05830025 97.11180687 62.26270485 C97.11666431 63.79484489 97.1282543 65.32697956 97.14684486 66.85901451 C97.32152809 82.21364542 97.32152809 82.21364542 92.69335938 87.50170898 C87.13430545 91.37507401 83.08534189 92.08704321 76.39672852 92.03515625 C75.49172104 92.04377182 74.58671356 92.05238739 73.65428162 92.06126404 C70.67873084 92.08386651 67.7041263 92.07719544 64.72851562 92.06811523 C62.65017926 92.07335347 60.57184527 92.07963068 58.49351501 92.0868988 C54.1434305 92.09729258 49.79367331 92.09275629 45.44360352 92.078125 C39.88067264 92.06094197 34.31877511 92.08443242 28.75595951 92.1196146 C24.46554271 92.14162003 20.17537195 92.1401394 15.88491631 92.13184929 C13.83448593 92.13103144 11.78403718 92.13786288 9.73365974 92.15262032 C6.86159674 92.17012352 3.99137516 92.15547557 1.11938477 92.1328125 C-0.13943008 92.1503508 -0.13943008 92.1503508 -1.42367554 92.16824341 C-7.45962369 92.07178278 -11.74984301 90.54581095 -16.30664062 86.50170898 C-19.27700407 82.17830926 -19.68760114 78.67056613 -19.71069336 73.48999023 C-19.71755661 72.81600189 -19.72441986 72.14201355 -19.73149109 71.44760132 C-19.74968114 69.23625173 -19.74593363 67.02561678 -19.74023438 64.81420898 C-19.74479948 63.26773856 -19.75010604 61.72127016 -19.75611877 60.17480469 C-19.76503417 56.94026424 -19.76264428 53.70597091 -19.75268555 50.47143555 C-19.74118915 46.3353768 -19.76142477 42.20017098 -19.79060268 38.06422424 C-19.808985 34.87278874 -19.80866839 31.68155697 -19.80296516 28.49008179 C-19.80281224 26.96551312 -19.80883251 25.4409304 -19.82125664 23.91641235 C-19.83620704 21.78154579 -19.82546325 19.64824667 -19.80834961 17.51342773 C-19.80818344 16.30130615 -19.80801727 15.08918457 -19.80784607 13.84033203 C-19.00950272 8.5224179 -16.61422054 5.65017828 -12.63830566 2.1580658 C-8.26935131 -0.01398548 -4.81233802 -0.05426843 0 0 Z " fill="#66B9FF" transform="translate(67.306640625,362.498291015625)"/>
<path d="M0 0 C1.82513878 0.02660957 1.82513878 0.02660957 3.68714905 0.05375671 C6.32421331 0.09259524 8.96029383 0.13830312 11.59698486 0.19329834 C15.80791348 0.27684968 20.01833491 0.30877586 24.22998047 0.33056641 C30.81730587 0.3661636 37.4039268 0.42550172 43.99086571 0.50531197 C47.75439135 0.55055927 51.51778253 0.58985897 55.28149414 0.6159668 C59.00981447 0.64196135 62.73772524 0.68222788 66.4657917 0.73271751 C67.86552478 0.74928538 69.26532694 0.76086198 70.66514397 0.76714516 C72.60101676 0.77677026 74.53675781 0.80652211 76.47241211 0.8371582 C77.56710312 0.84826126 78.66179413 0.85936432 79.78965759 0.87080383 C84.41958844 1.49523144 86.95586135 3.36954435 89.99609375 6.83203125 C92.80765489 10.74813427 92.8798685 12.91427957 92.90722656 17.73535156 C92.91467392 18.73082756 92.91467392 18.73082756 92.92227173 19.74641418 C92.93690198 21.9468387 92.94369791 24.14719104 92.94921875 26.34765625 C92.95497096 27.87742108 92.96072868 29.40718589 92.9664917 30.93695068 C92.97700514 34.14823747 92.98284507 37.3594992 92.98632812 40.57080078 C92.99180352 44.67765255 93.01580935 48.78417122 93.04430008 52.89091873 C93.06296553 56.05315095 93.0681342 59.21530372 93.069664 62.37758636 C93.07268393 63.89099695 93.08069018 65.40440636 93.09384918 66.91776276 C93.11098669 69.04080655 93.10901086 71.16304709 93.10253906 73.28613281 C93.10800751 75.09576508 93.10800751 75.09576508 93.11358643 76.94195557 C92.56172338 81.9389696 90.92299404 85.18089848 87.24609375 88.58203125 C82.59622703 91.72069129 78.19045605 91.42977479 72.7800293 91.4465332 C71.86263977 91.4531044 70.94525024 91.4596756 70.00006104 91.46644592 C66.96097737 91.48617354 63.92194309 91.4978398 60.8828125 91.5078125 C59.8449592 91.51188803 58.8071059 91.51596355 57.73780251 91.52016258 C52.24553247 91.54102013 46.7532874 91.55532374 41.26098633 91.56469727 C35.5880912 91.57576643 29.9155878 91.6101733 24.24283123 91.64986897 C19.88049082 91.67601019 15.51824415 91.68438685 11.15583229 91.68797874 C9.06465825 91.69285043 6.97348855 91.70448091 4.88239098 91.72301674 C1.95472494 91.74735677 -0.97192202 91.74645251 -3.8996582 91.73950195 C-5.19271126 91.75871704 -5.19271126 91.75871704 -6.5118866 91.77832031 C-11.89908134 91.7317503 -15.0601682 90.96019456 -19.25390625 87.26953125 C-22.88957492 82.90428024 -23.75665547 79.9077519 -23.77148438 74.27368164 C-23.78199829 73.26510857 -23.78199829 73.26510857 -23.79272461 72.23616028 C-23.81022603 70.02940682 -23.79871016 67.82395237 -23.78515625 65.6171875 C-23.78785378 64.07311255 -23.79173837 62.52903926 -23.79675293 60.98497009 C-23.80263756 57.75454477 -23.79412017 54.52456304 -23.77539062 51.29418945 C-23.75262024 47.16715891 -23.76571765 43.04117011 -23.78968048 38.91417789 C-23.80418325 35.72696688 -23.79951181 32.53999995 -23.78916931 29.3527813 C-23.78651336 27.83184115 -23.78973174 26.31087837 -23.79908752 24.78996468 C-23.87212994 9.577581 -23.87212994 9.577581 -19.25390625 4.26953125 C-13.22162502 -0.62370841 -7.52862156 -0.2133432 0 0 Z " fill="#46CB6B" transform="translate(71.25390625,134.73046875)"/>
<path d="M0 0 C7.59 0 15.18 0 23 0 C23.00146656 1.86489704 23.00293312 3.72979408 23.00444412 5.65120316 C23.04015743 49.93469795 23.09641498 94.21812715 23.17792095 138.50156243 C23.18793823 143.95384083 23.19778239 149.40611953 23.20751953 154.85839844 C23.2094609 155.94383449 23.21140228 157.02927054 23.21340248 158.14759859 C23.24441112 175.71550767 23.26139997 193.28340368 23.27319422 210.85133496 C23.28561165 228.88190799 23.31312647 246.91241257 23.35461307 264.94294238 C23.37973145 276.06590414 23.39311848 287.18875235 23.39142957 298.31174287 C23.39139978 305.94247794 23.40605423 313.57309745 23.43216428 321.20378748 C23.44679055 325.60422538 23.45503007 330.00442632 23.44580269 334.40488434 C23.43748562 338.43961602 23.44775263 342.47387263 23.47233662 346.50853404 C23.47799725 347.96229408 23.47704066 349.4160995 23.46851245 350.86984554 C23.40426836 362.85516924 24.97459802 373.58676122 32.95703125 382.96484375 C39.39308309 389.37628354 46.16368903 393.02593053 55 395 C55 395.33 55 395.66 55 396 C51.22943831 396.11798604 47.45936235 396.18783864 43.6875 396.25 C42.63498047 396.28351563 41.58246094 396.31703125 40.49804688 396.3515625 C29.43144569 396.48776682 20.22324425 393.5364678 12 386 C2.86002624 376.98726485 -0.01288245 366.77142336 -0.24609566 354.13165092 C-0.25445076 351.4514187 -0.25219566 348.77258531 -0.24050903 346.09249878 C-0.24138242 344.59481455 -0.24313584 343.09713063 -0.24568737 341.59944832 C-0.25013878 337.50603405 -0.24218773 333.41272533 -0.23213124 329.31932449 C-0.22346709 324.89682786 -0.226419 320.47433684 -0.22793579 316.05183411 C-0.22898277 308.39686557 -0.22272574 300.74193122 -0.21146011 293.08697128 C-0.19518269 282.01928788 -0.18999481 270.95162096 -0.18748413 259.88392688 C-0.18311055 241.92586377 -0.16981058 223.96781886 -0.15087891 206.00976562 C-0.1325114 188.56868582 -0.11835915 171.12761097 -0.10986328 153.68652344 C-0.10933783 152.61084527 -0.10881239 151.5351671 -0.10827102 150.42689262 C-0.10566088 145.03034928 -0.10313348 139.63380589 -0.10064721 134.23726249 C-0.07992519 89.4914956 -0.0445598 44.74574903 0 0 Z " fill="#C6C6F7" transform="translate(8,97)"/>
<path d="M0 0 C3.23150562 1.43228234 6.45976369 2.87174573 9.6875 4.3125 C10.59951172 4.71662109 11.51152344 5.12074219 12.45117188 5.53710938 C16.79126645 7.47831531 21.00296894 9.39982611 25 12 C24.3673347 16.03468969 23.07643582 19.31111406 21.33203125 22.99609375 C20.77596191 24.17848633 20.21989258 25.36087891 19.64697266 26.57910156 C19.03553361 27.86525902 18.42404121 29.15139111 17.8125 30.4375 C17.17699368 31.78455823 16.54207554 33.13189408 15.90771484 34.47949219 C14.59094713 37.27564198 13.27166187 40.0705832 11.95068359 42.86474609 C10.12828411 46.72327702 8.32042466 50.58842261 6.51953125 54.45703125 C6.23940186 55.05878677 5.95927246 55.6605423 5.6706543 56.28053284 C5.10568439 57.49440272 4.54076328 58.70829532 3.97589111 59.92221069 C-1.67364069 72.05790428 -7.36982176 84.17147487 -13.07827759 96.27954102 C-17.77921996 106.25167562 -22.43672186 116.24280082 -27.0625 126.25 C-31.22317216 135.24710619 -35.44775839 144.19348168 -40 153 C-48.66736307 150.56705598 -56.17171506 146.34217123 -64 142 C-63.43069349 137.20116717 -61.95430456 133.2663938 -59.859375 128.9609375 C-59.54119812 128.29131989 -59.22302124 127.62170227 -58.89520264 126.93179321 C-57.85351249 124.74292252 -56.8016768 122.55908742 -55.75 120.375 C-55.01670645 118.83765506 -54.28429524 117.29988896 -53.55273438 115.76171875 C-52.43842049 113.41897671 -51.32361364 111.07648657 -50.20605469 108.73529053 C-46.91863219 101.84726268 -43.69993917 94.92914198 -40.5 88 C-37.03718733 80.51314524 -33.5528012 73.03769868 -30.0234375 65.58203125 C-22.92999693 50.59162622 -15.96599325 35.57692321 -9.3515625 20.3671875 C-6.36704145 13.51519419 -3.2143828 6.7469127 0 0 Z " fill="#CE2955" transform="translate(436,213)"/>
<path d="M0 0 C1.06267593 -0.00860046 2.12535187 -0.01720093 3.2202301 -0.02606201 C4.39115707 -0.03032196 5.56208405 -0.03458191 6.76849365 -0.03897095 C7.99785141 -0.04714844 9.22720917 -0.05532593 10.49382019 -0.06375122 C14.57723665 -0.08863954 18.66061603 -0.10528052 22.74407959 -0.11953735 C24.14995073 -0.12489718 25.5558218 -0.13027469 26.96169281 -0.13566971 C32.81047807 -0.15730015 38.65926057 -0.17603615 44.50807571 -0.1872921 C52.88854416 -0.20352632 61.26854858 -0.23668865 69.6488421 -0.29369295 C75.54192111 -0.33241074 81.43487612 -0.351927 87.32807899 -0.35721266 C90.84737107 -0.36086411 94.36616828 -0.37286164 97.88532257 -0.4053154 C101.81396549 -0.44102551 105.74202768 -0.43702042 109.6708374 -0.42959595 C110.83366745 -0.44600128 111.9964975 -0.46240662 113.19456482 -0.47930908 C121.99105537 -0.41117454 121.99105537 -0.41117454 125.68127441 2.47161865 C128.5518106 5.82337406 129.05690012 7.76095035 128.97845459 12.15390015 C127.39006525 15.72777617 126.26211101 16.96479587 122.97845459 19.15390015 C120.59301949 19.41675568 120.59301949 19.41675568 117.71603394 19.43478394 C116.07992661 19.45191437 116.07992661 19.45191437 114.4107666 19.46939087 C113.21381165 19.47162659 112.01685669 19.4738623 110.78363037 19.47616577 C109.52325958 19.48609558 108.26288879 19.49602539 106.96432495 19.5062561 C103.5056016 19.53248602 100.04695586 19.54539009 96.58814859 19.55427742 C94.42703998 19.56014127 92.26595254 19.56835127 90.10485458 19.57728577 C83.34255641 19.60462967 76.58030667 19.6239664 69.81795704 19.63168955 C62.0127827 19.64065285 54.20830855 19.67575887 46.40334713 19.73369074 C40.36927357 19.77692322 34.33539703 19.79709795 28.30117023 19.79977179 C24.69746599 19.80186789 21.09442019 19.81367983 17.49087906 19.84941101 C13.47084303 19.88849725 9.45227279 19.87979648 5.43206787 19.86679077 C4.23916138 19.88522034 3.04625488 19.9036499 1.81719971 19.92263794 C-6.00573251 19.84316332 -6.00573251 19.84316332 -8.87591934 17.89564514 C-11.23901454 15.22758089 -12.03265371 13.09058282 -12.64654541 9.59140015 C-11.86535049 5.29482808 -10.36916673 3.86387931 -7.02154541 1.15390015 C-4.51713184 -0.09830664 -2.80356212 0.01685425 0 0 Z " fill="#DAD9FC" transform="translate(254.02154541015625,47.846099853515625)"/>
<path d="M0 0 C1.24716797 0.01289063 2.49433594 0.02578125 3.77929688 0.0390625 C5.07287109 0.07257813 6.36644531 0.10609375 7.69921875 0.140625 C9.01212891 0.15867188 10.32503906 0.17671875 11.67773438 0.1953125 C14.91480363 0.24239714 18.15038928 0.30815458 21.38671875 0.390625 C20.96519531 0.87273437 20.54367188 1.35484375 20.109375 1.8515625 C19.56152344 2.48320312 19.01367188 3.11484375 18.44921875 3.765625 C17.63130859 4.70535156 17.63130859 4.70535156 16.796875 5.6640625 C14.01366043 9.07176566 14.24986436 11.60670234 14.22558594 15.94824219 C14.22062103 16.62164642 14.21565613 17.29505066 14.21054077 17.98886108 C14.1959098 20.22175106 14.18911449 22.45456992 14.18359375 24.6875 C14.17784163 26.23968508 14.17208391 27.79187014 14.1663208 29.34405518 C14.15580717 32.60242036 14.14996735 35.86076086 14.14648438 39.11914062 C14.14100871 43.28652442 14.11700237 47.45357999 14.08851242 51.62086105 C14.06984856 54.82941628 14.06467838 58.03789319 14.0631485 61.24649811 C14.06012825 62.78223712 14.05212092 64.31797496 14.03896332 65.85366058 C14.02182908 68.00783381 14.02380088 70.16121519 14.03027344 72.31542969 C14.02662781 73.53961609 14.02298218 74.76380249 14.01922607 76.02508545 C14.43151516 79.80087558 15.39053752 82.17384887 17.38671875 85.390625 C20.45388999 87.68645363 20.45388999 87.68645363 23.38671875 89.390625 C23.38671875 89.720625 23.38671875 90.050625 23.38671875 90.390625 C19.01184544 90.47801491 14.63719797 90.531149 10.26171875 90.578125 C9.02421875 90.60326172 7.78671875 90.62839844 6.51171875 90.65429688 C5.31289062 90.66396484 4.1140625 90.67363281 2.87890625 90.68359375 C1.7791748 90.6993042 0.67944336 90.71501465 -0.45361328 90.73120117 C-5.36119984 90.20221931 -8.59169451 88.4950431 -11.92578125 84.890625 C-14.68738866 80.79935476 -14.74693884 77.64406153 -14.77441406 72.8112793 C-14.77937897 72.1474826 -14.78434387 71.48368591 -14.78945923 70.79977417 C-14.80405796 68.60478679 -14.81087941 66.4098717 -14.81640625 64.21484375 C-14.8221601 62.68650816 -14.82791781 61.15817259 -14.8336792 59.62983704 C-14.84418303 56.42452661 -14.85002956 53.21924122 -14.85351562 50.01391602 C-14.85899554 45.91494003 -14.88301515 41.81629703 -14.91148758 37.71742535 C-14.9301507 34.55948432 -14.93532153 31.40162287 -14.9368515 28.24363136 C-14.93987087 26.73301183 -14.94787519 25.22239345 -14.96103668 23.71182823 C-14.97817288 21.59368254 -14.97619894 19.47634199 -14.96972656 17.3581543 C-14.97337219 16.15474899 -14.97701782 14.95134369 -14.98077393 13.71147156 C-14.43954382 8.82064716 -12.7404623 5.55568127 -9.33911133 2.04003906 C-5.9708556 0.00188987 -3.91709926 -0.07154519 0 0 Z " fill="#CE2A55" transform="translate(62.61328125,249.609375)"/>
<path d="M0 0 C1.30839844 0.01804687 2.61679688 0.03609375 3.96484375 0.0546875 C7.18564689 0.10170652 10.40494474 0.16741819 13.625 0.25 C12.83609375 0.86746094 12.0471875 1.48492187 11.234375 2.12109375 C7.83668463 4.89316149 6.01138022 7.09085935 4.625 11.25 C4.52032055 13.44127395 4.47633897 15.63560831 4.46386719 17.8293457 C4.45890228 18.4931424 4.45393738 19.15693909 4.44882202 19.84085083 C4.43422329 22.03583821 4.42740184 24.2307533 4.421875 26.42578125 C4.41612115 27.95411684 4.41036344 29.48245241 4.40460205 31.01078796 C4.39409822 34.21609839 4.38825169 37.42138378 4.38476562 40.62670898 C4.37928571 44.72568497 4.3552661 48.82432797 4.32679367 52.92319965 C4.30813055 56.08114068 4.30295972 59.23900213 4.30142975 62.39699364 C4.29841038 63.90761317 4.29040606 65.41823155 4.27724457 66.92879677 C4.26010837 69.04694246 4.26208231 71.16428301 4.26855469 73.2824707 C4.26490906 74.48587601 4.26126343 75.68928131 4.25750732 76.92915344 C4.89422033 82.68280876 7.37660594 86.44109498 11.625 90.25 C7.25022526 90.36651725 2.87585173 90.43736 -1.5 90.5 C-2.7375 90.53351563 -3.975 90.56703125 -5.25 90.6015625 C-15.53482168 90.71215198 -15.53482168 90.71215198 -19.0546875 88.609375 C-23.61344296 83.97387281 -24.75055536 79.63146571 -24.77905273 73.23828125 C-24.78591599 72.56429291 -24.79277924 71.89030457 -24.79985046 71.19589233 C-24.81804051 68.98454274 -24.81429301 66.7739078 -24.80859375 64.5625 C-24.81315886 63.01602957 -24.81846541 61.46956118 -24.82447815 59.9230957 C-24.83339354 56.68855525 -24.83100366 53.45426193 -24.82104492 50.21972656 C-24.80954852 46.08366782 -24.82978414 41.948462 -24.85896206 37.81251526 C-24.87734437 34.62107975 -24.87702777 31.42984798 -24.87132454 28.2383728 C-24.87117162 26.71380414 -24.87719188 25.18922141 -24.88961601 23.66470337 C-24.90456641 21.52983681 -24.89382262 19.39653769 -24.87670898 17.26171875 C-24.87654282 16.04959717 -24.87637665 14.83747559 -24.87620544 13.58862305 C-24.114325 8.51359513 -21.57885728 5.4578568 -18.0234375 1.890625 C-12.81005261 -1.27874555 -5.84619202 -0.15245837 0 0 Z " fill="#3F80FF" transform="translate(72.375,362.75)"/>
<path d="M0 0 C1.24716797 0.00966797 2.49433594 0.01933594 3.77929688 0.02929688 C5.07287109 0.05443359 6.36644531 0.07957031 7.69921875 0.10546875 C9.66858398 0.12577148 9.66858398 0.12577148 11.67773438 0.14648438 C14.91447952 0.18179432 18.1503898 0.23111595 21.38671875 0.29296875 C20.62359375 0.84984375 19.86046875 1.40671875 19.07421875 1.98046875 C15.3903051 5.15034794 13.58494739 7.61828375 13.00576782 12.51133728 C13.00338104 13.72567947 13.00099426 14.94002167 12.99853516 16.19116211 C12.99064972 17.20192558 12.99064972 17.20192558 12.98260498 18.23310852 C12.96945344 20.44991572 12.97812623 22.6659986 12.98828125 24.8828125 C12.98625887 26.43071123 12.98334606 27.97860904 12.97958374 29.52650452 C12.97516677 32.76702974 12.98157016 36.00730646 12.99560547 39.24780273 C13.01268288 43.39161729 13.00286171 47.53484824 12.98488808 51.67864132 C12.97402092 54.87435766 12.97751021 58.06993684 12.98527145 61.26565742 C12.98726612 62.7930057 12.98484007 64.32036662 12.97783279 65.84770012 C12.97017125 67.98725995 12.98188728 70.12588987 12.99853516 72.26538086 C13.00092194 73.48051865 13.00330872 74.69565643 13.00576782 75.94761658 C13.52642528 80.51981321 14.8910261 83.98423768 18.38671875 87.04296875 C19.04671875 87.45546875 19.70671875 87.86796875 20.38671875 88.29296875 C21.37671875 88.95296875 22.36671875 89.61296875 23.38671875 90.29296875 C19.36669245 90.39237971 15.34714912 90.46468938 11.32617188 90.51269531 C9.96048507 90.53272194 8.59488306 90.55995207 7.22949219 90.59472656 C5.25884773 90.64363307 3.28755892 90.66388222 1.31640625 90.68359375 C0.13288574 90.70454102 -1.05063477 90.72548828 -2.27001953 90.74707031 C-7.57493161 90.02652581 -10.47776939 87.72826899 -13.75698853 83.58329773 C-15.88757596 79.80677398 -16.11952397 77.60387527 -16.13085938 73.29711914 C-16.14137329 72.28854607 -16.14137329 72.28854607 -16.15209961 71.25959778 C-16.16960103 69.05284432 -16.15808516 66.84738987 -16.14453125 64.640625 C-16.14722878 63.09655005 -16.15111337 61.55247676 -16.15612793 60.00840759 C-16.16201256 56.77798227 -16.15349517 53.54800054 -16.13476562 50.31762695 C-16.11199524 46.19059641 -16.12509265 42.06460761 -16.14905548 37.93761539 C-16.16355825 34.75040438 -16.15888681 31.56343745 -16.14854431 28.3762188 C-16.14588836 26.85527865 -16.14910674 25.33431587 -16.15846252 23.81340218 C-16.23071972 8.76455421 -16.23071972 8.76455421 -11.61328125 3.29296875 C-7.81286816 0.17155538 -4.83869604 -0.06628351 0 0 Z " fill="#189C5F" transform="translate(63.61328125,135.70703125)"/>
<path d="M0 0 C6.80970992 7.18802714 10.57758624 15.49317424 10.3125 25.375 C9.44628912 33.24863481 5.64130843 40.31789081 2.25 47.375 C1.59 47.375 0.93 47.375 0.25 47.375 C0.25 48.035 0.25 48.695 0.25 49.375 C-4.74500882 48.80509319 -8.83892635 47.16050338 -13.31640625 44.98828125 C-14.03175034 44.64878952 -14.74709442 44.30929779 -15.4841156 43.95951843 C-17.76366969 42.87586662 -20.03814802 41.78202132 -22.3125 40.6875 C-23.81281348 39.97129764 -25.31346198 39.25579666 -26.81445312 38.54101562 C-29.02278009 37.48920257 -31.23081595 36.4368257 -33.43740845 35.38137817 C-39.84677466 32.3172717 -46.28946857 29.32986055 -52.75 26.375 C-51.20059091 21.55069386 -49.31038751 17.26780856 -46.9375 12.8125 C-46.60685547 12.16603516 -46.27621094 11.51957031 -45.93554688 10.85351562 C-42.93485245 5.1919367 -39.20158218 1.00141613 -33.6875 -2.375 C-33.03652344 -2.78234375 -32.38554687 -3.1896875 -31.71484375 -3.609375 C-21.43606931 -8.9224592 -9.33683106 -5.51721835 0 0 Z " fill="#5D5D8A" transform="translate(493.75,177.625)"/>
<path d="M0 0 C0.72323534 -0.00467997 1.44647069 -0.00935994 2.19162226 -0.01418173 C4.62154489 -0.02617337 7.05090787 -0.01665855 9.48083496 -0.00723267 C11.22023346 -0.01129653 12.95962938 -0.01663736 14.69902039 -0.02316284 C19.42829631 -0.03686435 24.15737637 -0.03152613 28.88665581 -0.02202559 C33.83004163 -0.01444365 38.77341041 -0.02147051 43.71679688 -0.02618408 C52.01919575 -0.03164592 60.32151463 -0.02443881 68.62390137 -0.01016235 C78.23004711 0.00616497 87.83600185 0.00087677 97.44214296 -0.01564157 C105.68168924 -0.02924426 113.92117792 -0.03118206 122.16073179 -0.02332556 C127.08540192 -0.01864234 132.00998221 -0.01804198 136.93464661 -0.02793503 C141.56396258 -0.03658473 146.1930317 -0.03061945 150.82232094 -0.01325226 C152.5239197 -0.00927671 154.22553914 -0.01043964 155.92712975 -0.01704025 C158.24491566 -0.02520394 160.56190398 -0.01499779 162.87963867 0 C164.82753422 0.00169662 164.82753422 0.00169662 166.81478119 0.00342751 C169.93981934 0.38095093 169.93981934 0.38095093 171.88889313 1.68210411 C172.93981934 3.38095093 172.93981934 3.38095093 172.81481934 6.94345093 C171.93981934 10.38095093 171.93981934 10.38095093 168.93981934 12.38095093 C165.84880924 12.63821983 165.84880924 12.63821983 161.96229553 12.64837646 C160.89075152 12.65517313 160.89075152 12.65517313 159.79756016 12.66210711 C157.39773036 12.67479331 154.99812627 12.67312806 152.5982666 12.67147827 C150.88019518 12.67746085 149.16212645 12.68426577 147.44406128 12.6918335 C142.7726174 12.70952714 138.10124676 12.71419026 133.42977262 12.71546507 C129.53299652 12.71736225 125.63623755 12.72471761 121.73946804 12.73180926 C112.5480236 12.7481032 103.35661835 12.75297725 94.16516113 12.7515564 C84.67602126 12.75035433 75.1871086 12.77146684 65.69802624 12.80304372 C57.55698306 12.82917174 49.41601426 12.83992517 41.27492946 12.83864558 C36.40998188 12.83813497 31.54523619 12.84387273 26.68033028 12.86500168 C22.10596703 12.88432595 17.5319995 12.8845486 12.95762253 12.86996841 C11.27739702 12.86787204 9.59714712 12.87263029 7.91696358 12.88468933 C5.62561555 12.90007159 3.33564407 12.89088197 1.04432678 12.87542725 C-0.88006304 12.87706155 -0.88006304 12.87706155 -2.84332943 12.87872887 C-6.617262 12.29474775 -7.80738463 11.41053018 -10.06018066 8.38095093 C-10.54024921 5.56912088 -10.5679574 4.14234048 -8.97409821 1.75241661 C-6.04938377 -0.34336097 -3.56567838 0.0031057 0 0 Z " fill="#B6B6EA" transform="translate(210.0601806640625,174.61904907226563)"/>
<path d="M0 0 C0.71436267 -0.00538554 1.42872535 -0.01077108 2.16473538 -0.01631981 C4.56467381 -0.0306571 6.96406515 -0.02348173 9.36402893 -0.01637268 C11.0821019 -0.02207326 12.80017108 -0.0290363 14.51823425 -0.03717041 C19.18971816 -0.05515177 23.86101476 -0.05392409 28.53252292 -0.04822803 C32.42930495 -0.04514327 36.32605063 -0.05122068 40.22282749 -0.05726677 C49.41429373 -0.07132681 58.60566705 -0.0697385 67.7971344 -0.05836487 C77.28628597 -0.0468825 86.77515496 -0.06095795 96.26426929 -0.08776134 C104.40532184 -0.10989779 112.54628555 -0.11656036 120.68736607 -0.11068493 C125.55230126 -0.10730917 130.4170553 -0.10977132 135.28196526 -0.12693596 C139.8563466 -0.14237028 144.43030845 -0.13848882 149.004673 -0.11963081 C150.68489182 -0.11593512 152.36514148 -0.11908184 154.04533195 -0.1295166 C156.33669854 -0.14266207 158.62666317 -0.13123819 160.91796875 -0.11352539 C162.2008953 -0.11331611 163.48382185 -0.11310682 164.80562496 -0.1128912 C168.57817178 0.47415133 169.76986606 1.35894916 172.0224762 4.38768005 C172.50251368 7.19932816 172.53046207 8.62617362 170.93639374 11.0157938 C168.01235688 13.11172838 165.52768267 12.76868866 161.96229553 12.77536011 C160.87744251 12.78343841 160.87744251 12.78343841 159.77067327 12.79167992 C157.34076396 12.80601807 154.91139493 12.79884164 152.48146057 12.79173279 C150.74206096 12.79743327 149.00266508 12.80439628 147.26327515 12.81253052 C142.53400965 12.8305116 137.80492918 12.82928441 133.07563972 12.82358813 C129.13154236 12.82050376 125.18748092 12.82658026 121.24338865 12.83262688 C111.94169358 12.84668643 102.64009033 12.84509862 93.33839417 12.83372498 C83.73220837 12.82223881 74.12630159 12.83632454 64.52015257 12.86312145 C56.2806029 12.88524823 48.04114102 12.89192277 39.80156374 12.88604504 C34.87685753 12.88266742 29.95233025 12.88514383 25.02764893 12.90229607 C20.39828032 12.91771537 15.76932651 12.9138658 11.13997459 12.89499092 C9.43837249 12.89129124 7.73673999 12.89445344 6.03516579 12.90487671 C3.71717847 12.91799482 1.40058311 12.90662291 -0.91734314 12.8888855 C-2.21594017 12.88867621 -3.5145372 12.88846693 -4.85248566 12.8882513 C-7.9775238 12.38768005 -7.9775238 12.38768005 -9.9265976 10.51651096 C-10.9775238 8.38768005 -10.9775238 8.38768005 -10.8525238 5.82518005 C-8.78966713 0.07865074 -5.81076387 0.01100897 0 0 Z " fill="#B6B6EA" transform="translate(210.97752380371094,260.61231994628906)"/>
<path d="M0 0 C1.02677478 -0.00256327 1.02677478 -0.00256327 2.07429248 -0.00517833 C4.3729424 -0.00847827 6.6713018 0.00253856 8.96992493 0.01345825 C10.61566664 0.01402226 12.26140885 0.01370601 13.90715027 0.01257324 C18.38001436 0.01199831 22.85277165 0.02377527 27.32561088 0.03772116 C31.99812516 0.05020519 36.67064177 0.05139718 41.34317017 0.05377197 C50.19354415 0.05999359 59.04386886 0.07641363 67.89422113 0.09647095 C77.96906187 0.11880874 88.04390495 0.12981804 98.11876428 0.13986182 C118.84562726 0.16077927 139.57244584 0.19596849 160.29927063 0.24050903 C160.4204425 0.85539185 160.54161438 1.47027466 160.66645813 2.10379028 C160.83403625 2.91203247 161.00161438 3.72027466 161.17427063 4.55300903 C161.3366925 5.35351685 161.49911438 6.15402466 161.66645813 6.97879028 C162.24406062 9.49352021 162.24406062 9.49352021 164.29927063 12.24050903 C141.92510862 12.33386602 119.55097862 12.40444584 97.17666149 12.44775772 C86.78834722 12.46840089 76.40015382 12.49655494 66.01191711 12.54226685 C56.95967875 12.58208097 47.90752789 12.60792907 38.8552044 12.61686301 C34.06007927 12.62208698 29.26520456 12.63440143 24.47015953 12.66342926 C19.95989342 12.69051275 15.44998166 12.69896842 10.93964195 12.69293976 C9.28156104 12.69404317 7.62346868 12.70203915 5.96545792 12.71733093 C3.70647193 12.73714924 1.44883466 12.73247938 -0.81018066 12.7215271 C-2.70861331 12.72705786 -2.70861331 12.72705786 -4.64539814 12.73270035 C-7.70072937 12.24050903 -7.70072937 12.24050903 -9.63920116 10.4057579 C-11.14949119 7.32514851 -10.68335716 5.4691432 -9.70072937 2.24050903 C-6.05075221 -0.19280907 -4.34892769 -0.00652502 0 0 Z " fill="#B6B6EA" transform="translate(210.7007293701172,401.7594909667969)"/>
<path d="M0 0 C1.00839879 -0.00256327 1.00839879 -0.00256327 2.03716928 -0.00517833 C4.29436256 -0.0084779 6.55125991 0.00253793 8.8084259 0.01345825 C10.42461134 0.01402227 12.04079729 0.013706 13.65698242 0.01257324 C18.04927138 0.01199834 22.44145157 0.02377479 26.8337152 0.03772116 C31.42214774 0.05020571 36.01058264 0.05139722 40.59902954 0.05377197 C49.29003211 0.05999344 57.98098449 0.07641327 66.67196494 0.09647095 C76.56543053 0.11880922 86.45889849 0.12981816 96.35238302 0.13986182 C116.70600412 0.16077892 137.05958002 0.19596784 157.41316223 0.24050903 C158.58562994 4.33953001 158.48392286 7.99487161 158.41316223 12.24050903 C136.96895942 12.33389566 115.52479007 12.40446041 94.08042526 12.44775772 C84.12372292 12.46839458 74.16714683 12.49653664 64.21052551 12.54226685 C55.53366744 12.58210022 46.85690078 12.60793367 38.17995381 12.61686301 C33.58432402 12.62208371 28.9889558 12.63437747 24.39340973 12.66342926 C20.06945259 12.69054314 15.7458652 12.69896224 11.42183113 12.69293976 C9.83350936 12.69404181 8.24517546 12.70201983 6.65692711 12.71733093 C4.49023443 12.73719693 2.32494262 12.73246208 0.15821838 12.7215271 C-1.66140097 12.72705786 -1.66140097 12.72705786 -3.5177803 12.73270035 C-7.19565715 12.14287137 -8.41528949 11.22676475 -10.58683777 8.24050903 C-10.52433777 5.11550903 -10.52433777 5.11550903 -9.58683777 2.24050903 C-5.96111946 -0.1766365 -4.31528638 -0.00659326 0 0 Z " fill="#B6B5EA" transform="translate(210.5868377685547,374.7594909667969)"/>
<path d="M0 0 C0.72323534 -0.00467997 1.44647069 -0.00935994 2.19162226 -0.01418173 C4.62154489 -0.02617337 7.05090787 -0.01665855 9.48083496 -0.00723267 C11.22023346 -0.01129653 12.95962938 -0.01663736 14.69902039 -0.02316284 C19.42829631 -0.03686435 24.15737637 -0.03152613 28.88665581 -0.02202559 C33.83004163 -0.01444365 38.77341041 -0.02147051 43.71679688 -0.02618408 C52.01919575 -0.03164592 60.32151463 -0.02443881 68.62390137 -0.01016235 C78.23004711 0.00616497 87.83600185 0.00087677 97.44214296 -0.01564157 C105.68168924 -0.02924426 113.92117792 -0.03118206 122.16073179 -0.02332556 C127.08540192 -0.01864234 132.00998221 -0.01804198 136.93464661 -0.02793503 C141.56396258 -0.03658473 146.1930317 -0.03061945 150.82232094 -0.01325226 C152.5239197 -0.00927671 154.22553914 -0.01043964 155.92712975 -0.01704025 C158.24491566 -0.02520394 160.56190398 -0.01499779 162.87963867 0 C164.82753422 0.00169662 164.82753422 0.00169662 166.81478119 0.00342751 C169.93981934 0.38095093 169.93981934 0.38095093 171.85764313 1.74851036 C173.41594228 4.0991726 173.35356706 5.62263276 172.93981934 8.38095093 C171.85764313 10.01339149 171.85764313 10.01339149 169.93981934 11.38095093 C166.81478119 11.75847435 166.81478119 11.75847435 162.87963867 11.76190186 C162.15640333 11.76658183 161.43316798 11.7712618 160.68801641 11.77608359 C158.25809378 11.78807522 155.8287308 11.77856041 153.39880371 11.76913452 C151.65940521 11.77319838 149.92000929 11.77853922 148.18061829 11.7850647 C143.45134236 11.7987662 138.72226231 11.79342798 133.99298286 11.78392744 C129.04959704 11.7763455 124.10622826 11.78337237 119.1628418 11.78808594 C110.86044292 11.79354777 102.55812404 11.78634066 94.2557373 11.77206421 C84.64959156 11.75573688 75.04363682 11.76102509 65.43749571 11.77754343 C57.19794944 11.79114611 48.95846075 11.79308392 40.71890688 11.78522742 C35.79423675 11.7805442 30.86965647 11.77994383 25.94499207 11.78983688 C21.31567609 11.79848659 16.68660697 11.79252131 12.05731773 11.77515411 C10.35571897 11.77117857 8.65409953 11.7723415 6.95250893 11.77894211 C4.63472301 11.78710579 2.3177347 11.77689965 0 11.76190186 C-1.29859703 11.76077078 -2.59719406 11.7596397 -3.93514252 11.75847435 C-7.06018066 11.38095093 -7.06018066 11.38095093 -8.97800446 10.01339149 C-10.53630361 7.66272926 -10.47392839 6.13926909 -10.06018066 3.38095093 C-7.49454301 -0.48926073 -4.35209807 0.00379067 0 0 Z " fill="#B5B5EA" transform="translate(210.0601806640625,288.6190490722656)"/>
<path d="M0 0 C0.72323534 -0.00467997 1.44647069 -0.00935994 2.19162226 -0.01418173 C4.62154489 -0.02617337 7.05090787 -0.01665855 9.48083496 -0.00723267 C11.22023346 -0.01129653 12.95962938 -0.01663736 14.69902039 -0.02316284 C19.42829631 -0.03686435 24.15737637 -0.03152613 28.88665581 -0.02202559 C33.83004163 -0.01444365 38.77341041 -0.02147051 43.71679688 -0.02618408 C52.01919575 -0.03164592 60.32151463 -0.02443881 68.62390137 -0.01016235 C78.23004711 0.00616497 87.83600185 0.00087677 97.44214296 -0.01564157 C105.68168924 -0.02924426 113.92117792 -0.03118206 122.16073179 -0.02332556 C127.08540192 -0.01864234 132.00998221 -0.01804198 136.93464661 -0.02793503 C141.56396258 -0.03658473 146.1930317 -0.03061945 150.82232094 -0.01325226 C152.5239197 -0.00927671 154.22553914 -0.01043964 155.92712975 -0.01704025 C158.24491566 -0.02520394 160.56190398 -0.01499779 162.87963867 0 C164.82753422 0.00169662 164.82753422 0.00169662 166.81478119 0.00342751 C169.93981934 0.38095093 169.93981934 0.38095093 171.85764313 1.74851036 C173.41594228 4.0991726 173.35356706 5.62263276 172.93981934 8.38095093 C171.85764313 10.01339149 171.85764313 10.01339149 169.93981934 11.38095093 C166.81478119 11.75847435 166.81478119 11.75847435 162.87963867 11.76190186 C162.15640333 11.76658183 161.43316798 11.7712618 160.68801641 11.77608359 C158.25809378 11.78807522 155.8287308 11.77856041 153.39880371 11.76913452 C151.65940521 11.77319838 149.92000929 11.77853922 148.18061829 11.7850647 C143.45134236 11.7987662 138.72226231 11.79342798 133.99298286 11.78392744 C129.04959704 11.7763455 124.10622826 11.78337237 119.1628418 11.78808594 C110.86044292 11.79354777 102.55812404 11.78634066 94.2557373 11.77206421 C84.64959156 11.75573688 75.04363682 11.76102509 65.43749571 11.77754343 C57.19794944 11.79114611 48.95846075 11.79308392 40.71890688 11.78522742 C35.79423675 11.7805442 30.86965647 11.77994383 25.94499207 11.78983688 C21.31567609 11.79848659 16.68660697 11.79252131 12.05731773 11.77515411 C10.35571897 11.77117857 8.65409953 11.7723415 6.95250893 11.77894211 C4.63472301 11.78710579 2.3177347 11.77689965 0 11.76190186 C-1.29859703 11.76077078 -2.59719406 11.7596397 -3.93514252 11.75847435 C-7.06018066 11.38095093 -7.06018066 11.38095093 -8.97800446 10.01339149 C-10.53630361 7.66272926 -10.47392839 6.13926909 -10.06018066 3.38095093 C-7.49454301 -0.48926073 -4.35209807 0.00379067 0 0 Z " fill="#B5B5EA" transform="translate(210.0601806640625,147.61904907226563)"/>
<path d="M0 0 C1.02351563 0.48726563 2.04703125 0.97453125 3.1015625 1.4765625 C4.60925612 2.19295859 6.11708146 2.90907748 7.625 3.625 C8.44226563 4.01308838 9.25953125 4.40117676 10.1015625 4.80102539 C15.66907892 7.43861606 21.24831489 10.04989839 26.8359375 12.64453125 C27.50887848 12.95731018 28.18181946 13.27008911 28.87515259 13.59234619 C32.95314679 15.48772048 32.95314679 15.48772048 37.0335083 17.37799072 C38.96084068 18.26938268 40.88677087 19.16374464 42.8125 20.05859375 C43.93269531 20.57736084 45.05289063 21.09612793 46.20703125 21.63061523 C49 23 49 23 52 25 C40.92479633 39.63020732 27.36987015 48.20334709 11.95849609 57.74414062 C10.07577414 58.85304225 10.07577414 58.85304225 9 60 C6.34387608 60.27959199 4.66054534 60.44911407 2.40893555 58.91821289 C0.335328 56.09507401 0.24863061 53.51846798 -0.16796875 50.05859375 C-0.25250809 49.37628189 -0.33704742 48.69397003 -0.42414856 47.99098206 C-0.60064854 46.54509576 -0.7708832 45.09843284 -0.93530273 43.65112305 C-1.18403673 41.46789829 -1.45251981 39.28784535 -1.72460938 37.10742188 C-2.98376386 26.75516463 -3.73709314 17.12834356 -1.5 6.875 C-1.35691406 6.2046875 -1.21382813 5.534375 -1.06640625 4.84375 C-0.72000217 3.22719762 -0.36137296 1.61327213 0 0 Z " fill="#FDAD93" transform="translate(371,354)"/>
<path d="M0 0 C1.1859375 0.02255859 2.371875 0.04511719 3.59375 0.06835938 C6.48055497 0.12656109 9.36455431 0.20825702 12.25 0.3125 C12.25 0.6425 12.25 0.9725 12.25 1.3125 C11.41597656 1.52003906 10.58195312 1.72757813 9.72265625 1.94140625 C-1.6900269 5.0658407 -9.50984009 10.13963481 -15.75 20.3125 C-18.6038625 25.71805132 -19.83798778 31.01815216 -19.95532227 37.1027832 C-19.97526749 38.02336014 -19.99521271 38.94393707 -20.01576233 39.89241028 C-20.04083107 41.36299141 -20.04083107 41.36299141 -20.06640625 42.86328125 C-20.08718735 43.87722458 -20.10796844 44.89116791 -20.12937927 45.93583679 C-20.19461114 49.16549085 -20.25363702 52.39522421 -20.3125 55.625 C-20.35571029 57.81836748 -20.39932538 60.01172703 -20.44335938 62.20507812 C-20.55102499 67.57413874 -20.65029467 72.94326206 -20.75 78.3125 C-28.34 78.3125 -35.93 78.3125 -43.75 78.3125 C-43.81931472 72.40791307 -43.87891335 66.50476906 -43.91479492 60.60009766 C-43.92977142 58.59646795 -43.95015981 56.59287039 -43.97631836 54.58935547 C-44.18185361 38.42864256 -44.07008346 23.83457836 -32.78125 11.08984375 C-23.28766921 1.88863773 -12.89089853 -0.47393009 0 0 Z " fill="#322F4C" transform="translate(51.75,18.6875)"/>
<path d="M0 0 C0.8345723 -0.00525696 1.66914459 -0.01051392 2.52900696 -0.01593018 C5.28507247 -0.02912421 8.04055957 -0.02039508 10.79663086 -0.01025391 C12.71186941 -0.01227462 14.62710722 -0.01518604 16.54234314 -0.01895142 C20.55467053 -0.0233738 24.56679748 -0.01694573 28.57910156 -0.00292969 C33.72649848 0.01417367 38.87342654 0.00431317 44.02080631 -0.01364708 C47.97472174 -0.02447737 51.92852563 -0.02104225 55.88244438 -0.0132637 C57.78069552 -0.0112602 59.67895674 -0.0137262 61.57719612 -0.02070236 C64.22751911 -0.02830571 66.87707781 -0.01672911 69.52734375 0 C70.31443726 -0.00607269 71.10153076 -0.01214539 71.91247559 -0.0184021 C77.1638633 0.0431303 77.1638633 0.0431303 79.71751404 1.68978882 C81.43949843 4.66964291 80.51162442 7.19563078 79.69897461 10.38818359 C75.939841 12.89427267 72.9733926 12.68378533 68.61914062 12.67871094 C67.79607422 12.68542816 66.97300781 12.69214539 66.125 12.69906616 C63.40089909 12.71808313 60.67704403 12.72197208 57.95288086 12.72412109 C56.06102903 12.73054601 54.16917821 12.73727414 52.27732849 12.74429321 C48.3103505 12.75627492 44.34345966 12.75997307 40.37646484 12.75878906 C35.29072485 12.75858572 30.20554273 12.7858994 25.11993504 12.82033348 C21.21231006 12.84255869 17.30482032 12.84662797 13.3971386 12.84556961 C11.52202365 12.84793174 9.64690532 12.85678954 7.77185249 12.87223434 C5.15023715 12.89180784 2.52983761 12.88609098 -0.09179688 12.87402344 C-0.86751541 12.88526245 -1.64323395 12.89650146 -2.44245911 12.90808105 C-5.96694929 12.86680766 -7.92967759 12.66801694 -10.78285217 10.51797485 C-12.30102539 8.38818359 -12.30102539 8.38818359 -12.80102539 5.82568359 C-12.30102539 3.38818359 -12.30102539 3.38818359 -10.78858948 1.76010132 C-7.26154052 -0.18510323 -3.92487907 -0.03035985 0 0 Z " fill="#B6B6EA" transform="translate(212.301025390625,315.61181640625)"/>
<path d="M0 0 C1.23459961 -0.01007584 1.23459961 -0.01007584 2.49414062 -0.02035522 C5.21824153 -0.03937219 7.94209659 -0.04326115 10.66625977 -0.04541016 C12.55811159 -0.05183508 14.44996242 -0.0585632 16.34181213 -0.06558228 C20.30879012 -0.07756398 24.27568097 -0.08126214 28.24267578 -0.08007812 C33.32841577 -0.07987478 38.41359789 -0.10718846 43.49920559 -0.14162254 C47.40683057 -0.16384775 51.31432031 -0.16791703 55.22200203 -0.16685867 C57.09711697 -0.1692208 58.97223531 -0.1780786 60.84728813 -0.19352341 C63.46890348 -0.2130969 66.08930301 -0.20738005 68.7109375 -0.1953125 C69.8745153 -0.21217102 69.8745153 -0.21217102 71.06159973 -0.22937012 C74.57158659 -0.18826656 76.56518441 0.03172152 79.43714905 2.12557983 C80.92016602 4.29052734 80.92016602 4.29052734 80.85766602 7.41552734 C79.92016602 10.29052734 79.92016602 10.29052734 76.92016602 12.29052734 C74.19345634 12.49531188 71.56803481 12.58423352 68.84033203 12.58105469 C68.01726562 12.58777191 67.19419922 12.59448914 66.34619141 12.60140991 C63.6220905 12.62042688 60.89823544 12.62431583 58.17407227 12.62646484 C56.28222044 12.63288976 54.39036962 12.63961789 52.4985199 12.64663696 C48.53154191 12.65861867 44.56465106 12.66231682 40.59765625 12.66113281 C35.51191626 12.66092947 30.42673414 12.68824315 25.34112644 12.72267723 C21.43350146 12.74490244 17.52601172 12.74897172 13.61833 12.74791336 C11.74321506 12.75027549 9.86809672 12.75913329 7.9930439 12.77457809 C5.37142855 12.79415159 2.75102902 12.78843473 0.12939453 12.77636719 C-0.64632401 12.7876062 -1.42204254 12.79884521 -2.2212677 12.8104248 C-5.73125456 12.76932125 -7.72485238 12.54933317 -10.59681702 10.45547485 C-12.07983398 8.29052734 -12.07983398 8.29052734 -12.01733398 5.16552734 C-10.07432557 -0.79303178 -5.33467411 -0.00621697 0 0 Z " fill="#B5B5EA" transform="translate(212.079833984375,201.70947265625)"/>
<path d="M0 0 C0.84417984 -0.00525696 1.68835968 -0.01051392 2.55812073 -0.01593018 C5.35208571 -0.02914761 8.14548222 -0.020386 10.93945312 -0.01025391 C12.87854115 -0.01227414 14.81762844 -0.01518516 16.75671387 -0.01895142 C20.82209502 -0.02337713 24.88727852 -0.01693574 28.95263672 -0.00292969 C34.16844158 0.01416231 39.38378336 0.00432245 44.59957123 -0.01364708 C48.60410055 -0.02447822 52.60851976 -0.02104165 56.61305237 -0.0132637 C58.53642328 -0.01125984 60.45980414 -0.01372747 62.38316345 -0.02070236 C65.06951449 -0.02830582 67.75511149 -0.01672835 70.44140625 0 C71.23942154 -0.00607269 72.03743683 -0.01214539 72.8596344 -0.0184021 C78.21835227 0.043542 78.21835227 0.043542 80.71472168 1.75619507 C82.17092568 4.11857285 82.12852811 5.66935037 81.72070312 8.38818359 C80.71472168 10.02017212 80.71472168 10.02017212 78.72070312 11.38818359 C75.88795929 11.68437032 73.27501824 11.79793025 70.44140625 11.77636719 C69.59722641 11.78162415 68.75304657 11.7868811 67.88328552 11.79229736 C65.08932054 11.80551479 62.29592403 11.79675318 59.50195312 11.78662109 C57.5628651 11.78864133 55.62377781 11.79155234 53.68469238 11.7953186 C49.61931123 11.79974432 45.55412773 11.79330292 41.48876953 11.77929688 C36.27296467 11.76220488 31.05762289 11.77204474 25.84183502 11.79001427 C21.8373057 11.80084541 17.83288649 11.79740884 13.82835388 11.78963089 C11.90498297 11.78762703 9.98160211 11.79009466 8.0582428 11.79706955 C5.37189176 11.80467301 2.68629476 11.79309554 0 11.77636719 C-1.19702293 11.78547623 -1.19702293 11.78547623 -2.41822815 11.79476929 C-7.77694602 11.73282519 -7.77694602 11.73282519 -10.27331543 10.02017212 C-11.72951943 7.65779433 -11.68712186 6.10701682 -11.27929688 3.38818359 C-8.70642429 -0.7857488 -4.37437042 -0.03328784 0 0 Z " fill="#B5B5EA" transform="translate(211.279296875,429.61181640625)"/>
<path d="M0 0 C3.01953125 0.6875 3.01953125 0.6875 5.01953125 2.3125 C6.41106693 5.61739725 5.99965083 7.23676475 5.01953125 10.6875 C3.33371265 13.09055489 1.31689757 15.09153521 -0.7734375 17.14453125 C-1.35708572 17.7329631 -1.94073395 18.32139496 -2.54206848 18.92765808 C-3.77589308 20.16487583 -5.01601747 21.39583904 -6.26196289 22.62084961 C-8.16192694 24.49404332 -10.03374742 26.39240563 -11.90429688 28.29492188 C-13.10907724 29.49639805 -14.3154078 30.69632218 -15.5234375 31.89453125 C-16.07992477 32.46113968 -16.63641205 33.02774811 -17.20976257 33.61152649 C-20.62721502 36.92865512 -23.00348188 38.57120693 -27.98046875 38.6875 C-30.0703125 37.5 -30.0703125 37.5 -31.91796875 35.6875 C-32.58699219 35.03910156 -33.25601563 34.39070313 -33.9453125 33.72265625 C-34.61691406 33.05105469 -35.28851563 32.37945312 -35.98046875 31.6875 C-37.00333984 30.78837891 -37.00333984 30.78837891 -38.046875 29.87109375 C-41.09027864 27.12280804 -42.78758288 25.58178901 -43.66796875 21.5 C-42.81295418 18.00221311 -41.99552137 16.67108725 -38.98046875 14.6875 C-35.69165561 14.54450812 -33.81957988 14.99523332 -31.26171875 17.10546875 C-29.77841664 18.5782758 -28.37329908 20.12885654 -26.98046875 21.6875 C-23.41952847 20.19000685 -21.29682257 18.15021642 -18.6796875 15.3359375 C-17.86693359 14.48515625 -17.05417969 13.634375 -16.21679688 12.7578125 C-14.51918346 10.9626351 -12.83161121 9.15790816 -11.15429688 7.34375 C-4.1809411 0.10070643 -4.1809411 0.10070643 0 0 Z " fill="#DED9FB" transform="translate(127.98046875,275.3125)"/>
<path d="M0 0 C2.34767271 1.56511514 2.88059401 2.42552735 3.45361328 5.18237305 C2.74704218 9.57125202 -0.04682692 11.78106147 -3.1328125 14.83203125 C-3.76226776 15.46864182 -4.39172302 16.10525238 -5.04025269 16.76115417 C-6.37410525 18.10278577 -7.71438815 19.43805046 -9.06054688 20.76733398 C-11.1160468 22.80363044 -13.14057035 24.86749851 -15.1640625 26.93554688 C-16.46437404 28.23614881 -17.76640279 29.53503666 -19.0703125 30.83203125 C-19.67368439 31.45068558 -20.27705627 32.0693399 -20.89871216 32.70674133 C-23.7371248 35.46841282 -25.23644598 36.87076358 -29.22094727 37.54516602 C-32.12894064 36.97470575 -33.29463765 36.4754433 -35.39453125 34.4453125 C-35.95720703 33.91292969 -36.51988281 33.38054687 -37.09960938 32.83203125 C-37.66486328 32.26871094 -38.23011719 31.70539063 -38.8125 31.125 C-39.39708984 30.56941406 -39.98167969 30.01382813 -40.58398438 29.44140625 C-45.88575595 24.34236754 -45.88575595 24.34236754 -46.25 20.0625 C-46 17 -46 17 -44.875 15.125 C-41.9583362 13.37500172 -40.35889159 13.41865338 -37 14 C-34.43656531 15.77587343 -32.20895653 17.80411422 -30 20 C-26.55106156 18.52028789 -24.35517546 16.57640468 -21.7421875 13.90234375 C-20.95199219 13.10119141 -20.16179687 12.30003906 -19.34765625 11.47460938 C-18.53167969 10.63736328 -17.71570313 9.80011719 -16.875 8.9375 C-15.24961294 7.27777378 -13.62211373 5.62011253 -11.9921875 3.96484375 C-10.91493408 2.86064087 -10.91493408 2.86064087 -9.81591797 1.73413086 C-6.43359709 -1.49585371 -4.44135086 -1.08767776 0 0 Z " fill="#DADCFB" transform="translate(131,165)"/>
<path d="M0 0 C2.2114156 3.3171234 2.69550654 4.15316266 2 8 C0.11013467 10.3992453 -1.72129769 12.44603514 -3.87890625 14.578125 C-4.48379379 15.19016785 -5.08868134 15.80221069 -5.7118988 16.43280029 C-6.99447659 17.72315715 -8.28348606 19.00714827 -9.57836914 20.28515625 C-11.55046667 22.23808364 -13.49155773 24.21845099 -15.43164062 26.203125 C-16.68312404 27.45489889 -17.93632579 28.70495768 -19.19140625 29.953125 C-19.76774307 30.54474426 -20.3440799 31.13636353 -20.93788147 31.74591064 C-23.88218994 34.60775846 -25.65140842 35.90084045 -29.69140625 37.05004883 C-33.30576165 36.99537477 -34.2550524 36.75392454 -36.74609375 34.24609375 C-37.35517578 33.63830078 -37.96425781 33.03050781 -38.59179688 32.40429688 C-39.20087891 31.75525391 -39.80996094 31.10621094 -40.4375 30.4375 C-41.07365234 29.81552734 -41.70980469 29.19355469 -42.36523438 28.55273438 C-45.29632006 25.53979237 -46.8714485 23.89567995 -47.48046875 19.65234375 C-47 17 -47 17 -45.875 15.125 C-42.9583362 13.37500172 -41.35889159 13.41865338 -38 14 C-35.43656531 15.77587343 -33.20895653 17.80411422 -31 20 C-27.55106156 18.52028789 -25.35517546 16.57640468 -22.7421875 13.90234375 C-21.95199219 13.10119141 -21.16179687 12.30003906 -20.34765625 11.47460938 C-19.53167969 10.63736328 -18.71570313 9.80011719 -17.875 8.9375 C-16.24961294 7.27777378 -14.62211373 5.62011253 -12.9921875 3.96484375 C-11.91493408 2.86064087 -11.91493408 2.86064087 -10.81591797 1.73413086 C-7.21841354 -1.70134561 -4.73105363 -1.01379721 0 0 Z " fill="#DBDCFF" transform="translate(132,388)"/>
<path d="M0 0 C4.57970134 1.4254293 8.87630139 3.2425024 13.19921875 5.30078125 C13.87491409 5.61903366 14.55060944 5.93728607 15.2467804 6.2651825 C17.39519607 7.2777937 19.54142236 8.29494443 21.6875 9.3125 C32.96328161 14.64778445 32.96328161 14.64778445 44.26953125 19.91796875 C45.09686768 20.30106201 45.9242041 20.68415527 46.77661133 21.07885742 C48.84293811 21.93492978 50.81778049 22.52641992 53 23 C53.33 22.34 53.66 21.68 54 21 C53.39254603 25.85963179 51.27241033 29.7405518 49 34 C44.47177854 32.58765805 40.21759013 30.80349955 35.94140625 28.76953125 C35.2751976 28.45602219 34.60898895 28.14251312 33.92259216 27.81950378 C31.80105971 26.82031746 29.68173363 25.81655139 27.5625 24.8125 C26.17527914 24.15788742 24.7879104 23.50358814 23.40039062 22.84960938 C21.33232888 21.87471418 19.26442307 20.89949965 17.19717407 19.92288208 C10.14291268 16.59065895 3.07268091 13.29290716 -4 10 C-3.31620454 6.04991941 -2.21156817 3.36542982 0 0 Z " fill="#DCD7F9" transform="translate(441,204)"/>
<path d="M0 0 C4.62994259 1.72488057 7.62722164 3.61948611 10 8 C10.79448427 13.31007343 10.64735479 17.60569737 8.375 22.5 C5.17190542 25.8716785 2.59395636 27.84631856 -2.17578125 28.12890625 C-7.99705554 27.80604566 -11.03991618 26.24984605 -15 22 C-17.28466838 18.05375462 -17.47409741 14.50392543 -17 10 C-13.30090764 2.74408806 -8.25966171 -1.03245771 0 0 Z " fill="#DAD9FB" transform="translate(108,44)"/>
<path d="M0 0 C3.62011046 2.33296007 5.89022378 4.96794755 7.8125 8.8125 C8.31420828 15.33470758 7.00617574 19.20751006 2.8125 24.1875 C-1.76505464 26.66700876 -6.09329697 26.44160339 -11.1875 25.8125 C-14.38306529 24.54758874 -15.72309295 23.32494916 -18 20.8125 C-19.84223845 16.15842392 -19.96813124 11.74204172 -19.1875 6.8125 C-17.56649612 3.55762713 -15.2398848 1.58424885 -12.3125 -0.5625 C-7.90416955 -1.85906778 -4.27897212 -1.59412687 0 0 Z " fill="#DBDAFC" transform="translate(68.1875,45.1875)"/>
<path d="M0 0 C3.99303905 2.08515993 6.50428716 4.05960205 8.09765625 8.27734375 C8.65116134 12.5572634 8.59904872 16.08983526 6.91015625 20.08984375 C2.05011419 25.95541175 2.05011419 25.95541175 -2.4609375 26.69921875 C-7.09632858 26.92564219 -10.75560407 26.979743 -14.46484375 23.96484375 C-18.57454694 19.43363254 -19.46000477 16.81402201 -19.35546875 10.85546875 C-18.60525298 6.5869997 -16.21263517 3.9498726 -12.90234375 1.27734375 C-8.69596426 -1.17569165 -4.68515199 -1.77978053 0 0 Z " fill="#DBDAFD" transform="translate(152.90234375,44.72265625)"/>
<path d="M0 0 C5.0620408 2.1365181 9.05030368 5.32964749 12 10 C12 10.99 12 11.98 12 13 C9.79793277 14.72530031 7.67154067 16.20985914 5.3125 17.6875 C4.37374023 18.31108398 4.37374023 18.31108398 3.41601562 18.94726562 C-0.13045234 21.20883525 -2.65333676 22.67842657 -7 22 C-8.75 20.9375 -8.75 20.9375 -10 19 C-11.35901873 13.06973645 -11.0985699 7.05657244 -11 1 C-7.48771862 -0.75614069 -3.83296463 -0.54407313 0 0 Z " fill="#60608B" transform="translate(382,392)"/>
<path d="M0 0 C0.66 0.33 1.32 0.66 2 1 C-0.97 3.97 -3.94 6.94 -7 10 C-7 7 -7 7 -4.625 4.4375 C-3.75875 3.633125 -2.8925 2.82875 -2 2 C-1.34 1.34 -0.68 0.68 0 0 Z " fill="#844878" transform="translate(458,176)"/>
</svg>
