<?xml version="1.0" encoding="UTF-8"?>
<svg version="1.1" xmlns="http://www.w3.org/2000/svg" width="512" height="512">
<path d="M0 0 C1.9505127 0.18320801 1.9505127 0.18320801 3.94042969 0.37011719 C19.462718 1.96586645 19.462718 1.96586645 23.875 4.8125 C25.36711165 7.27009567 25.51484908 9.74482722 25.9375 12.5625 C26.48575439 12.63766846 27.03400879 12.71283691 27.59887695 12.7902832 C57.80383772 16.9830398 57.80383772 16.9830398 64.9375 25.5625 C68.83453851 31.31210795 70.19194684 36.85261623 71.5 43.625 C71.70906982 44.66398437 71.91813965 45.70296875 72.13354492 46.7734375 C74.19461267 57.30725303 75.64791667 67.91033201 76.9375 78.5625 C77.51902832 78.55379883 78.10055664 78.54509766 78.69970703 78.53613281 C83.14369608 78.49768842 87.41609305 78.5733939 91.8125 79.3125 C92.71742188 79.45171875 93.62234375 79.5909375 94.5546875 79.734375 C97.61550183 80.79813342 98.43090479 81.70091665 99.9375 84.5625 C100.30617951 86.89051009 100.64288381 89.22396267 100.9375 91.5625 C102.36664482 91.55250725 102.36664482 91.55250725 103.82466125 91.54231262 C112.842194 91.48126502 121.85968433 91.43641447 130.87737751 91.40706348 C135.51249679 91.39146613 140.14744808 91.37033735 144.7824707 91.33618164 C149.26288166 91.30337519 153.74313191 91.28560249 158.22365379 91.27786827 C159.92552403 91.27236271 161.62738634 91.26161261 163.32918739 91.24530983 C179.94067249 91.09263241 193.1086991 93.36058978 205.60546875 105.0703125 C214.76623474 114.86020983 217.39560784 125.71457471 217.32518005 138.77011108 C217.33325836 140.5769759 217.33325836 140.5769759 217.34149987 142.42034304 C217.35328312 145.74241164 217.35173106 149.0639751 217.34433305 152.38602304 C217.33958698 155.9771342 217.35212394 159.5681925 217.36235046 163.1592865 C217.37951591 170.18629617 217.38038314 177.21321633 217.37513756 184.24024151 C217.37109028 189.95409137 217.37254604 195.66791485 217.37788582 201.38176346 C217.37863424 202.19609966 217.37938266 203.01043587 217.38015376 203.84944893 C217.3816853 205.50396708 217.38322365 207.15848523 217.38476873 208.81300338 C217.39848572 224.31670834 217.39306181 239.82036279 217.38158352 255.32406659 C217.37165283 269.49397271 217.38459038 283.66374821 217.40851771 297.83363418 C217.43292624 312.39871564 217.44251222 326.96373631 217.43586498 341.5288378 C217.43237655 349.69985034 217.43457993 357.87076246 217.45211601 366.04175949 C217.46685998 372.99779514 217.46744491 379.95365966 217.4500451 386.90969203 C217.44155052 390.45544105 217.43934728 394.00088466 217.45469666 397.54661751 C217.471163 401.39820737 217.45635577 405.24932938 217.43870544 409.10092163 C217.44831045 410.21057104 217.45791546 411.32022046 217.46781152 412.46349561 C217.35006938 424.98781026 212.86180961 435.73140225 203.90625 444.56640625 C193.71334626 453.11588892 182.38172978 455.68395533 169.37769604 455.69113445 C168.65757878 455.69288749 167.93746151 455.69464053 167.19552252 455.69644669 C164.79391823 455.70108108 162.39237517 455.69864783 159.99076843 455.69621277 C158.24691256 455.69808203 156.5030571 455.70038319 154.7592023 455.70307809 C149.97564334 455.70918821 145.19210187 455.70906342 140.40853989 455.70788372 C135.24618328 455.70767951 130.08383227 455.71320033 124.92147827 455.71794128 C114.81088924 455.72624392 104.70030605 455.72899594 94.58971389 455.72955366 C86.37108072 455.73002898 78.15244947 455.73208449 69.93381691 455.73525429 C46.6290289 455.74405956 23.3242455 455.74867383 0.01945581 455.74792381 C-1.86467311 455.74786388 -1.86467311 455.74786388 -3.78686523 455.74780273 C-5.04448586 455.74776185 -6.30210648 455.74772097 -7.59783681 455.74767885 C-27.98209611 455.74727235 -48.36633694 455.75684332 -68.7505909 455.7709411 C-89.68437832 455.78530464 -110.61815673 455.79221131 -131.5519492 455.79134732 C-143.3033461 455.79101536 -155.05472364 455.79376216 -166.8061161 455.80452538 C-176.81072337 455.81363004 -186.8153025 455.81580587 -196.81991211 455.80901595 C-201.92299663 455.80575068 -207.02602714 455.80569439 -212.12910652 455.8143692 C-216.80418107 455.82223464 -221.47915879 455.82080228 -226.15423097 455.81208507 C-227.84192918 455.8105502 -229.52963461 455.81236577 -231.21732429 455.81794515 C-247.61947098 455.86856122 -262.67238924 454.49214476 -275.24609375 442.6796875 C-283.77551724 432.73786486 -286.37508461 423.04048913 -286.28613281 410.33813477 C-286.28654068 409.22830231 -286.28694855 408.11846985 -286.28736877 406.9750061 C-286.28756582 404.57312782 -286.2835452 402.17124626 -286.27576447 399.76938057 C-286.26552011 395.96495382 -286.27093496 392.16085371 -286.28118896 388.35643005 C-286.3091338 377.54248137 -286.32209728 366.72874603 -286.29248047 355.91479492 C-286.27452562 349.29298443 -286.28806423 342.67166883 -286.31893158 336.04987907 C-286.32503309 333.53056014 -286.3201736 331.0111895 -286.30405426 328.49191475 C-286.282433 324.96604197 -286.29776272 321.44208011 -286.32128906 317.91625977 C-286.30592606 316.88068436 -286.29056305 315.84510895 -286.2747345 314.77815247 C-286.3628258 308.58309509 -287.33448529 305.09570512 -291.5807457 300.49928188 C-295.03557322 295.98352152 -295.31457393 291.12910536 -295.32992554 285.61299133 C-295.33445665 284.93775632 -295.33898776 284.2625213 -295.34365618 283.56682462 C-295.35625888 281.31702136 -295.35468251 279.06746147 -295.35302734 276.81762695 C-295.35901531 275.19913931 -295.36582148 273.58065452 -295.37338257 271.96217346 C-295.39102565 267.57348506 -295.39573732 263.1848747 -295.39701414 258.79615426 C-295.39843762 256.05054368 -295.40271103 253.30495282 -295.40800858 250.55934715 C-295.42650552 240.96997193 -295.43467989 231.38065224 -295.43310547 221.79125977 C-295.4319052 212.87079552 -295.4529859 203.95057368 -295.4845928 195.03017074 C-295.51080316 187.35774298 -295.52147072 179.68539414 -295.52019465 172.01292199 C-295.51968628 167.43674869 -295.52529982 162.86079072 -295.54655075 158.28466225 C-295.56601273 153.97616159 -295.56600364 149.66807986 -295.55151749 145.35956383 C-295.54943789 143.78547931 -295.55407922 142.21136803 -295.5662384 140.6373291 C-295.66839452 126.4871156 -292.94327662 114.92731664 -283.02734375 104.40234375 C-271.88821598 93.89187927 -260.14103132 91.31273122 -245.24609375 91.1484375 C-244.14902603 91.12907135 -243.05195831 91.1097052 -241.92164612 91.0897522 C-238.44784099 91.03039209 -234.97400194 90.98374616 -231.5 90.9375 C-229.13214771 90.8992801 -226.76430872 90.86022608 -224.39648438 90.8203125 C-218.61860848 90.72472677 -212.84065117 90.63955417 -207.0625 90.5625 C-206.87204102 90.00747803 -206.68158203 89.45245605 -206.48535156 88.88061523 C-206.2272168 88.15559814 -205.96908203 87.43058105 -205.703125 86.68359375 C-205.45079102 85.96357178 -205.19845703 85.2435498 -204.93847656 84.50170898 C-203.603247 81.54582036 -202.04420525 80.71452248 -199.0625 79.5625 C-193.41739771 78.34492892 -187.80518939 78.47605377 -182.0625 78.5625 C-181.99337402 77.39956421 -181.99337402 77.39956421 -181.92285156 76.21313477 C-181.36253231 67.86998116 -180.26954352 59.73093838 -178.8125 51.5 C-178.62042969 50.32373047 -178.42835938 49.14746094 -178.23046875 47.93554688 C-176.42651092 37.6734094 -174.06437329 26.53919362 -165.3984375 19.88671875 C-160.87373786 17.32171343 -156.14130236 16.46175343 -151.0625 15.5625 C-149.58059618 15.2832569 -148.09883311 15.00326617 -146.6171875 14.72265625 C-134.95406597 12.5625 -134.95406597 12.5625 -131.0625 12.5625 C-130.98 11.469375 -130.8975 10.37625 -130.8125 9.25 C-130.0625 5.5625 -130.0625 5.5625 -128.36694336 3.88916016 C-125.63108103 2.31413357 -123.57641585 1.97800689 -120.44140625 1.6484375 C-119.33990234 1.52726562 -118.23839844 1.40609375 -117.10351562 1.28125 C-115.95560547 1.1678125 -114.80769531 1.054375 -113.625 0.9375 C-111.9553418 0.75574219 -111.9553418 0.75574219 -110.25195312 0.5703125 C-73.67470974 -3.3267418 -36.62349956 -3.447198 0 0 Z M-109.81640625 53.125 C-113.94630312 53.5987619 -117.96726433 53.66245708 -122.125 53.625 C-123.43597656 53.61597656 -124.74695313 53.60695312 -126.09765625 53.59765625 C-127.07605469 53.58605469 -128.05445313 53.57445312 -129.0625 53.5625 C-134.22743825 61.04275539 -136.40454926 70.49819452 -136.0625 79.5625 C-134.825 79.871875 -133.5875 80.18125 -132.3125 80.5 C-128.0625 82.5625 -128.0625 82.5625 -124.0625 91.5625 C-76.8725 91.5625 -29.6825 91.5625 18.9375 91.5625 C19.9275 88.5925 20.9175 85.6225 21.9375 82.5625 C24.19921875 81.02734375 24.19921875 81.02734375 26.625 80.5 C27.43324219 80.30277344 28.24148438 80.10554688 29.07421875 79.90234375 C29.68910156 79.79019531 30.30398438 79.67804688 30.9375 79.5625 C29.27731074 66.44561765 29.27731074 66.44561765 23.9375 54.5625 C20.74076868 53.49692289 18.62474978 53.51148333 15.2734375 53.59375 C8.06711106 53.64941266 0.99254801 52.98213271 -6.16845703 52.27938843 C-40.4181391 49.00560305 -75.62743105 49.02465148 -109.81640625 53.125 Z " fill="#984E2C" transform="translate(295.0625,29.4375)"/>
<path d="M0 0 C1.3003418 0.12213867 2.60068359 0.24427734 3.94042969 0.37011719 C19.83743735 2.004389 19.83743735 2.004389 23.875 5 C26.56755334 8.95963726 26.11618338 13.37396619 26.140625 17.95703125 C26.14632507 18.78200607 26.15202515 19.6069809 26.15789795 20.45695496 C26.16734123 22.20281698 26.17387926 23.94869677 26.17773438 25.69458008 C26.18742586 28.35464918 26.21844912 31.01394078 26.25 33.67382812 C26.25653189 35.37239126 26.26178163 37.0709599 26.265625 38.76953125 C26.2779718 39.56035599 26.2903186 40.35118073 26.30303955 41.16596985 C26.28361582 46.02434657 25.62667115 49.35074731 22.9375 53.5625 C15.68063595 57.19093203 3.86248271 54.26458581 -3.97265625 53.49487305 C-39.0423067 50.05331754 -74.86526814 50.09456854 -109.89453125 54.10546875 C-113.55483082 54.52084827 -117.19051924 54.82166385 -120.875 54.9375 C-121.95394531 54.98648438 -123.03289062 55.03546875 -124.14453125 55.0859375 C-127.0625 54.5625 -127.0625 54.5625 -129.20947266 52.62353516 C-131.77413072 48.3869498 -131.65641879 44.92839213 -131.62890625 40.0625 C-131.63510483 39.14919922 -131.64130341 38.23589844 -131.64768982 37.29492188 C-131.6547777 35.3685004 -131.65163201 33.44201754 -131.63891602 31.515625 C-131.62504368 28.5717687 -131.65914261 25.63108832 -131.69726562 22.6875 C-131.69821682 20.81249922 -131.69635797 18.93749448 -131.69140625 17.0625 C-131.70466446 16.18529297 -131.71792267 15.30808594 -131.73158264 14.40429688 C-131.66616886 10.10175733 -131.4606884 8.11444785 -128.88061523 4.53808594 C-125.80810205 2.38415917 -124.04754671 1.80499786 -120.34375 1.453125 C-119.24546875 1.33839844 -118.1471875 1.22367188 -117.015625 1.10546875 C-115.87609375 1.00878906 -114.7365625 0.91210938 -113.5625 0.8125 C-112.45390625 0.70035156 -111.3453125 0.58820312 -110.203125 0.47265625 C-106.82487945 0.13875989 -103.44554456 -0.15663794 -100.0625 -0.4375 C-98.96969727 -0.5288623 -97.87689453 -0.62022461 -96.75097656 -0.71435547 C-64.5994175 -3.29513084 -32.11471054 -3.02280687 0 0 Z " fill="#414141" transform="translate(295.0625,29.4375)"/>
<path d="M0 0 C2.53995611 0.01073771 5.07920538 0.00001414 7.61914062 -0.01269531 C15.93538883 -0.02191866 24.19727472 0.23530237 32.47851562 1.02636719 C33.2179541 1.08709412 33.95739258 1.14782104 34.71923828 1.21038818 C39.44937555 1.73096185 42.1745695 2.89469356 45.54101562 6.26074219 C51.49938498 18.29949528 49.59017737 36.05317038 46.58789062 48.72949219 C45.33998386 51.74681898 44.11991033 53.25995348 41.54101562 55.26074219 C37.63740274 56.4705642 33.59598516 56.80377646 29.54101562 57.26074219 C28.62964844 57.37289062 27.71828125 57.48503906 26.77929688 57.60058594 C10.41817127 59.23000227 -6.34521196 58.69882336 -22.70898438 57.44824219 C-23.70196533 57.37822998 -24.69494629 57.30821777 -25.71801758 57.23608398 C-35.31829361 56.40218108 -35.31829361 56.40218108 -39.45898438 53.26074219 C-40.61668672 50.67293694 -41.27493476 48.72713757 -41.83398438 46.01074219 C-41.99261963 45.29982422 -42.15125488 44.58890625 -42.31469727 43.85644531 C-44.40320043 33.68751776 -43.93656825 23.76127804 -42.27148438 13.57324219 C-42.12054321 12.56583984 -42.12054321 12.56583984 -41.96655273 11.53808594 C-41.36062455 8.34341414 -40.66748607 6.47584188 -38.39135742 4.12768555 C-34.77881501 1.82770121 -31.56727952 1.36889681 -27.39648438 1.02636719 C-26.21771729 0.91376556 -26.21771729 0.91376556 -25.01513672 0.79888916 C-16.68556861 0.07208626 -8.35655177 -0.04181492 0 0 Z " fill="#FBDB91" transform="translate(100.458984375,315.7392578125)"/>
<path d="M0 0 C2.70254076 0.01070313 5.40441303 0.00004549 8.10693359 -0.01269531 C16.70765762 -0.02247575 25.27629676 0.19229342 33.84521484 0.96386719 C34.94795242 1.04238922 34.94795242 1.04238922 36.07296753 1.12249756 C39.88966858 1.52822596 41.77164307 2.20671135 44.76538086 4.66650391 C51.19453249 12.71601083 50.56919295 25.49034869 49.83740234 35.26074219 C48.05939761 50.21311935 48.05939761 50.21311935 42.83740234 55.26074219 C40.34912109 56.15136719 40.34912109 56.15136719 37.52490234 56.51074219 C35.91421875 56.71570313 35.91421875 56.71570313 34.27099609 56.92480469 C32.57136719 57.09109375 32.57136719 57.09109375 30.83740234 57.26074219 C29.75587891 57.37160156 28.67435547 57.48246094 27.56005859 57.59667969 C11.52155186 58.93171849 -4.69347615 58.72854529 -20.72509766 57.44824219 C-21.66998047 57.37822998 -22.61486328 57.30821777 -23.58837891 57.23608398 C-29.00872423 56.74506101 -33.38173474 55.93147457 -38.16259766 53.26074219 C-39.46728516 51.49902344 -39.46728516 51.49902344 -40.03759766 49.57324219 C-40.24126953 48.950625 -40.44494141 48.32800781 -40.65478516 47.68652344 C-43.15703236 35.73348104 -45.20664695 17.31743305 -39.16259766 6.26074219 C-30.1284183 -2.43539201 -11.82297907 -0.05547689 0 0 Z " fill="#FBDB91" transform="translate(345.16259765625,315.7392578125)"/>
<path d="M0 0 C0.029729 1.64983887 0.029729 1.64983887 0.06005859 3.33300781 C0.13619901 7.41836222 0.22490336 11.50336438 0.31738281 15.58837891 C0.35563771 17.3555607 0.3904967 19.12281944 0.421875 20.89013672 C0.46760152 23.43224563 0.52558289 25.97382648 0.5859375 28.515625 C0.59748871 29.30430969 0.60903992 30.09299438 0.62094116 30.90557861 C0.72694681 34.85599501 1.1940201 37.52606065 3 41 C2.07213234 42.67392341 1.13005688 44.34222667 0.10351562 45.95751953 C-1.91391125 49.69154458 -2.48206931 53.79885712 -3.25 57.9375 C-3.42273438 58.81212891 -3.59546875 59.68675781 -3.7734375 60.58789062 C-4.19347681 62.72309046 -4.59832049 64.86127025 -5 67 C-3.906875 67.103125 -2.81375 67.20625 -1.6875 67.3125 C2 68 2 68 5 71 C5.99 75.455 5.99 75.455 7 80 C-20.39 80 -47.78 80 -76 80 C-74 71 -74 71 -71 68 C-64.52637717 65.77877529 -57.76208813 65.78952929 -51 66 C-50.95391602 65.22470947 -50.90783203 64.44941895 -50.86035156 63.65063477 C-50.30003231 55.30748116 -49.20704352 47.16843838 -47.75 38.9375 C-47.55792969 37.76123047 -47.36585937 36.58496094 -47.16796875 35.37304688 C-45.36401092 25.1109094 -43.00187329 13.97669362 -34.3359375 7.32421875 C-29.81123786 4.75921343 -25.07880236 3.89925343 -20 3 C-18.51809618 2.7207569 -17.03633311 2.44076617 -15.5546875 2.16015625 C-3.89156597 0 -3.89156597 0 0 0 Z " fill="#E2F4FA" transform="translate(164,42)"/>
<path d="M0 0 C31.81800353 4.3624096 31.81800353 4.3624096 39 13 C42.89703851 18.74960795 44.25444684 24.29011623 45.5625 31.0625 C45.77156982 32.10148437 45.98063965 33.14046875 46.19604492 34.2109375 C48.25711267 44.74475303 49.71041667 55.34783201 51 66 C51.58152832 65.99129883 52.16305664 65.98259766 52.76220703 65.97363281 C57.20619608 65.93518842 61.47859305 66.0108939 65.875 66.75 C66.77992188 66.88921875 67.68484375 67.0284375 68.6171875 67.171875 C71.71081823 68.24703847 72.50406637 69.08339985 74 72 C74.495 75.96 74.495 75.96 75 80 C47.94 80 20.88 80 -7 80 C-5.80373832 70.42990654 -5.80373832 70.42990654 -3 68 C-0.67855782 67.29303813 1.65460636 66.62291055 4 66 C2.55101008 55.26798584 2.55101008 55.26798584 -1.25 45.25 C-3 42 -3 42 -2.671875 39.984375 C-2.45015625 39.32953125 -2.2284375 38.6746875 -2 38 C-0.77681134 34.33043403 -0.76883876 30.87678997 -0.68359375 27.05078125 C-0.66281265 26.27816452 -0.64203156 25.50554779 -0.62062073 24.70951843 C-0.55528962 22.2439352 -0.49631685 19.77824639 -0.4375 17.3125 C-0.39429913 15.63996309 -0.35068434 13.96743681 -0.30664062 12.29492188 C-0.1996251 8.1967225 -0.09831143 4.09841704 0 0 Z " fill="#9EC5EA" transform="translate(321,42)"/>
<path d="M0 0 C6.47972961 -0.20902354 12.86114834 0.10978648 19.3125 0.6875 C20.08899902 0.74083496 20.86549805 0.79416992 21.66552734 0.84912109 C25.67693075 1.24861493 27.63603587 1.72484312 30.9296875 4.21484375 C37.87288226 13.55540576 37.03743165 28.11033659 35.4609375 39.109375 C33.50675833 50.64373096 33.50675833 50.64373096 29 55 C26.51171875 55.890625 26.51171875 55.890625 23.6875 56.25 C22.07681641 56.45496094 22.07681641 56.45496094 20.43359375 56.6640625 C18.73396484 56.83035156 18.73396484 56.83035156 17 57 C15.91847656 57.11085938 14.83695312 57.22171875 13.72265625 57.3359375 C-2.31585048 58.67097631 -18.53087849 58.46780311 -34.5625 57.1875 C-35.50738281 57.11748779 -36.45226562 57.04747559 -37.42578125 56.9753418 C-42.83059866 56.48572548 -47.28626457 55.77862299 -52 53 C-53.33984375 50.51953125 -53.33984375 50.51953125 -53.9375 47.8125 C-54.15277344 46.91144531 -54.36804688 46.01039063 -54.58984375 45.08203125 C-54.72519531 44.39496094 -54.86054688 43.70789063 -55 43 C-54.14728516 43.23396484 -54.14728516 43.23396484 -53.27734375 43.47265625 C-48.08082264 44.78263069 -44.24585005 45.11613831 -39 44 C-39 44.33 -39 44.66 -39 45 C-38.236875 45.144375 -37.47375 45.28875 -36.6875 45.4375 C-34 46 -34 46 -31 47 C-23.24171889 48.4279045 -15.56290821 48.1815301 -8 45.875 C-5 45 -5 45 -3 46 C-3.66 46.66 -4.32 47.32 -5 48 C-2.03 48 0.94 48 4 48 C4 48.33 4 48.66 4 49 C8.62 49 13.24 49 18 49 C22.02407716 36.08941911 23.91944678 18.72239309 18 6 C14.75762661 2.59703736 11.29189407 2.35920947 6.75 1.8125 C5.48671875 1.65394531 4.2234375 1.49539063 2.921875 1.33203125 C1.95765625 1.22246094 0.9934375 1.11289062 0 1 C0 0.67 0 0.34 0 0 Z " fill="#ED984E" transform="translate(359,316)"/>
<path d="M0 0 C6.49010984 -0.20935838 12.8553975 0.13522432 19.3125 0.75 C20.47724854 0.8425708 20.47724854 0.8425708 21.66552734 0.93701172 C26.53250413 1.44273992 29.53989865 2.26570194 33 6 C38.95836935 18.03875309 37.04916174 35.7924282 34.046875 48.46875 C32.79896824 51.4860768 31.57889471 52.99921129 29 55 C25.09638712 56.20982201 21.05496953 56.54303428 17 57 C16.08863281 57.11214844 15.17726563 57.22429687 14.23828125 57.33984375 C-2.12284435 58.96926008 -18.88622759 58.43808117 -35.25 57.1875 C-36.24298096 57.11748779 -37.23596191 57.04747559 -38.2590332 56.9753418 C-47.86472022 56.14096888 -47.86472022 56.14096888 -52 53 C-53.375 49.3125 -53.375 49.3125 -54 46 C-50.54168414 45.97105453 -47.08339928 45.95322 -43.625 45.9375 C-42.64015625 45.92912109 -41.6553125 45.92074219 -40.640625 45.91210938 C-39.22910156 45.90727539 -39.22910156 45.90727539 -37.7890625 45.90234375 C-36.91975098 45.89710693 -36.05043945 45.89187012 -35.15478516 45.88647461 C-33 46 -33 46 -31 47 C-30.21625 47 -29.4325 47 -28.625 47 C-26 47 -26 47 -24.19921875 47.55859375 C-21.30573291 48.13934668 -19.07625004 47.62986682 -16.1875 47.0625 C-11.67470374 46.23948085 -7.57446726 45.79206967 -3 46 C-3.66 46.66 -4.32 47.32 -5 48 C-2.03 48 0.94 48 4 48 C4 48.33 4 48.66 4 49 C8.62 49 13.24 49 18 49 C21.97432647 33.433888 22.32977035 19.51501042 18 4 C12.06 3.01 6.12 2.02 0 1 C0 0.67 0 0.34 0 0 Z " fill="#ED9A4F" transform="translate(113,316)"/>
<path d="M0 0 C1.6340831 -0.00287018 1.6340831 -0.00287018 3.30117798 -0.00579834 C5.59206373 -0.00715158 7.88295737 -0.00351575 10.17382812 0.00488281 C13.64731397 0.01557345 17.12028023 0.00496845 20.59375 -0.0078125 C22.83333446 -0.00649035 25.0729186 -0.00392681 27.3125 0 C28.84588516 -0.00607269 28.84588516 -0.00607269 30.4102478 -0.01226807 C49.13063732 0.10719982 49.13063732 0.10719982 54.2890625 5.265625 C55.2790625 9.720625 55.2790625 9.720625 56.2890625 14.265625 C28.8990625 14.265625 1.5090625 14.265625 -26.7109375 14.265625 C-24.7109375 5.265625 -24.7109375 5.265625 -21.7109375 2.265625 C-14.77136167 -0.15338364 -7.25851061 -0.02863262 0 0 Z " fill="#F29A49" transform="translate(114.7109375,107.734375)"/>
<path d="M0 0 C3.24939936 -0.00219439 6.4984628 -0.02042511 9.74780273 -0.03930664 C11.8448068 -0.04224019 13.94181245 -0.04422524 16.03881836 -0.04516602 C16.99434097 -0.05235153 17.94986359 -0.05953705 18.93434143 -0.06694031 C35.75534547 -0.01077561 35.75534547 -0.01077561 39.94056702 3.76252747 C41.19116211 6.18530273 41.19116211 6.18530273 42.19116211 14.18530273 C15.13116211 14.18530273 -11.92883789 14.18530273 -39.80883789 14.18530273 C-38.65036795 4.91754317 -38.65036795 4.91754317 -35.80883789 2.18530273 C-24.81882868 -1.47803367 -11.43174431 -0.0008644 0 0 Z " fill="#F6D290" transform="translate(353.808837890625,107.814697265625)"/>
<path d="M0 0 C-0.99 5.61 -1.98 11.22 -3 17 C-18.18 16.67 -33.36 16.34 -49 16 C-48 3 -48 3 -47 2 C-41.07513178 0.91618264 -35.13461367 0.68039832 -29.125 0.4375 C-28.12009521 0.3950415 -27.11519043 0.35258301 -26.07983398 0.30883789 C-17.37796533 -0.03442973 -8.7078291 -0.07706043 0 0 Z " fill="#B5D6F1" transform="translate(162,92)"/>
<path d="M0 0 C1.12209366 0.00141495 2.24418732 0.0028299 3.40028381 0.00428772 C6.96610233 0.00986225 10.53185687 0.02241009 14.09765625 0.03515625 C16.52278555 0.04017454 18.94791584 0.04473687 21.37304688 0.04882812 C27.30210497 0.05982334 33.23112604 0.07653605 39.16015625 0.09765625 C39.65515625 3.56265625 39.65515625 3.56265625 40.16015625 7.09765625 C18.4833092 7.92202102 -3.14825486 8.2341738 -24.83984375 8.09765625 C-24.10546875 4.30859375 -24.10546875 4.30859375 -21.71484375 2.41015625 C-14.93073888 -0.6869351 -7.30779678 -0.03494205 0 0 Z " fill="#F5D292" transform="translate(114.83984375,107.90234375)"/>
<path d="M0 0 C0 2.97 0 5.94 0 9 C-15.18 8.67 -30.36 8.34 -46 8 C-46 5.69 -46 3.38 -46 1 C-30.65216249 0.1540562 -15.37012015 -0.12070775 0 0 Z " fill="#9DC4E7" transform="translate(159,100)"/>
<path d="M0 0 C1.9375 1.5 1.9375 1.5 4 4 C4.495 7.96 4.495 7.96 5 12 C-22.06 12 -49.12 12 -77 12 C-76.67 11.01 -76.34 10.02 -76 9 C-53.89 9 -31.78 9 -9 9 C-8.34 7.68 -7.68 6.36 -7 5 C-5.2734375 3.515625 -5.2734375 3.515625 -3.375 2.25 C-2.42753906 1.60804687 -2.42753906 1.60804687 -1.4609375 0.953125 C-0.97882813 0.63859375 -0.49671875 0.3240625 0 0 Z " fill="#F29948" transform="translate(391,110)"/>
<path d="M0 0 C1.60379341 -0.05416188 3.20811406 -0.09286638 4.8125 -0.125 C5.70582031 -0.14820312 6.59914063 -0.17140625 7.51953125 -0.1953125 C10 0 10 0 13 2 C7.375 7 7.375 7 4 7 C4 7.99 4 8.98 4 10 C-18.44 10 -40.88 10 -64 10 C-64 9.01 -64 8.02 -64 7 C-41.99073432 6.22687931 -20.02293171 5.85425671 2 6 C1.01 3.03 1.01 3.03 0 0 Z " fill="#F1B875" transform="translate(153,109)"/>
<path d="M0 0 C1.99609375 0.015625 1.99609375 0.015625 4.4375 0.25 C5.64212891 0.35054688 5.64212891 0.35054688 6.87109375 0.453125 C9 1 9 1 11 4 C-10.32598745 7.95779587 -31.98572282 7.83044831 -53.5625 6.125 C-54.59737549 6.04660889 -55.63225098 5.96821777 -56.69848633 5.88745117 C-57.6448999 5.80342041 -58.59131348 5.71938965 -59.56640625 5.6328125 C-60.40115479 5.55949707 -61.23590332 5.48618164 -62.09594727 5.41064453 C-62.72428467 5.27513184 -63.35262207 5.13961914 -64 5 C-64.33 4.34 -64.66 3.68 -65 3 C-63.8006356 2.96574669 -63.8006356 2.96574669 -62.57704163 2.93080139 C-55.05725301 2.71518512 -47.53762036 2.49496272 -40.01812077 2.26950932 C-36.15187963 2.15375388 -32.28560252 2.03980706 -28.41918945 1.92993164 C-24.69083449 1.82391398 -20.96264527 1.71322648 -17.23452568 1.59924126 C-15.809157 1.55649425 -14.38373605 1.5154563 -12.95826912 1.4761219 C-10.9682256 1.42092197 -8.97836651 1.35918804 -6.98852539 1.29711914 C-5.85379288 1.26380997 -4.71906036 1.23050079 -3.54994202 1.19618225 C-1.06639386 1.28332108 -1.06639386 1.28332108 0 0 Z " fill="#EE852A" transform="translate(131,367)"/>
<path d="M0 0 C0 0.66 0 1.32 0 2 C-19.8303533 6.80594445 -41.62252586 5.79842346 -61.8125 4.125 C-62.79089844 4.04660889 -63.76929688 3.96821777 -64.77734375 3.88745117 C-66.13472656 3.76140503 -66.13472656 3.76140503 -67.51953125 3.6328125 C-68.71219604 3.52283936 -68.71219604 3.52283936 -69.92895508 3.41064453 C-72 3 -72 3 -75 1 C-66.51560203 0.73797106 -58.03116947 0.47710337 -49.54669094 0.21769714 C-45.60654909 0.09719435 -41.66642012 -0.0237007 -37.72631836 -0.14550781 C-33.92029162 -0.26315533 -30.11423398 -0.37975206 -26.30815315 -0.49563599 C-24.85977097 -0.53991674 -23.4114001 -0.58456908 -21.96304131 -0.62960815 C-19.92648053 -0.6928733 -17.88988268 -0.7547886 -15.85327148 -0.81640625 C-14.11786354 -0.86970093 -14.11786354 -0.86970093 -12.34739685 -0.92407227 C-2.30377583 -1.15188792 -2.30377583 -1.15188792 0 0 Z " fill="#EF862A" transform="translate(386,369)"/>
<path d="M0 0 C5.41947104 4.52216046 10.46149992 9.30918427 15.4375 14.3125 C16.16904297 15.04017578 16.90058594 15.76785156 17.65429688 16.51757812 C18.34458984 17.20916016 19.03488281 17.90074219 19.74609375 18.61328125 C20.37185303 19.24016846 20.9976123 19.86705566 21.64233398 20.51293945 C23 22 23 22 23 23 C16.4 23.33 9.8 23.66 3 24 C2 16 1 8 0 0 Z " fill="#642C20" transform="translate(392,323)"/>
<path d="M0 0 C5.41947104 4.52216046 10.46149992 9.30918427 15.4375 14.3125 C16.16904297 15.04017578 16.90058594 15.76785156 17.65429688 16.51757812 C18.34458984 17.20916016 19.03488281 17.90074219 19.74609375 18.61328125 C20.37185303 19.24016846 20.9976123 19.86705566 21.64233398 20.51293945 C23 22 23 22 23 23 C16.4 23.33 9.8 23.66 3 24 C2.0625 15.375 2.0625 15.375 1.77368164 12.69287109 C1.30552071 8.43485874 0.75772421 4.21868076 0 0 Z " fill="#6C3122" transform="translate(146,323)"/>
<path d="M0 0 C1.31806641 -0.00386719 2.63613281 -0.00773437 3.99414062 -0.01171875 C5.27095703 -0.01042969 6.54777344 -0.00914063 7.86328125 -0.0078125 C9.57898315 -0.00612061 9.57898315 -0.00612061 11.3293457 -0.00439453 C14.8617891 0.13171561 18.21752462 0.44262103 21.6875 1.125 C22.1825 2.115 22.1825 2.115 22.6875 3.125 C10.65669178 5.17225696 -1.0733317 5.36602039 -13.25 5.25 C-15.10871908 5.23993971 -16.96744349 5.23081931 -18.82617188 5.22265625 C-23.3217495 5.2009082 -27.81706359 5.16655043 -32.3125 5.125 C-30.3125 2.125 -30.3125 2.125 -27.3125 1.125 C-18.2493081 -0.06334095 -9.12349228 -0.02716673 0 0 Z " fill="#FBE8A7" transform="translate(348.3125,107.875)"/>
<path d="M0 0 C6.16196061 5.33442458 6.67327436 12.86294698 7.2890625 20.66015625 C7.50069114 29.80828537 6.11004236 38.14535794 4 47 C3.67 47 3.34 47 3 47 C-1.6336914 32.17218753 -0.13112061 15.34716364 0 0 Z " fill="#EC8533" transform="translate(388,319)"/>
<path d="M0 0 C1.79133978 -0.05391993 3.58313899 -0.09275571 5.375 -0.125 C6.87160156 -0.15980469 6.87160156 -0.15980469 8.3984375 -0.1953125 C11 0 11 0 13 2 C12.43410156 2.40992187 11.86820312 2.81984375 11.28515625 3.2421875 C10.18494141 4.05042969 10.18494141 4.05042969 9.0625 4.875 C8.33160156 5.40867187 7.60070312 5.94234375 6.84765625 6.4921875 C4.88901765 7.88012104 4.88901765 7.88012104 4 10 C-18.11 10 -40.22 10 -63 10 C-63.33 10.66 -63.66 11.32 -64 12 C-63.67 10.68 -63.34 9.36 -63 8 C-41.22 7.67 -19.44 7.34 3 7 C2.505 4.525 2.505 4.525 2 2 C1.34 2 0.68 2 0 2 C0 1.34 0 0.68 0 0 Z " fill="#F0AE68" transform="translate(378,109)"/>
<path d="M0 0 C2.44206302 0.01076553 4.88339808 0.00003258 7.32543945 -0.01269531 C8.89770668 -0.01137432 10.46997346 -0.00881319 12.04223633 -0.00488281 C12.76219284 -0.00893127 13.48214935 -0.01297974 14.22392273 -0.01715088 C18.95834908 0.02623558 22.79915902 0.79567988 27.24926758 2.26074219 C24.10498997 4.10057118 21.83057969 4.50610235 18.20532227 4.48779297 C16.70421906 4.48756638 16.70421906 4.48756638 15.17279053 4.48733521 C14.0997467 4.47701263 13.02670288 4.46669006 11.92114258 4.45605469 C10.81700012 4.45322479 9.71285767 4.4503949 8.57525635 4.44747925 C5.04981637 4.43628708 1.52463073 4.41118394 -2.00073242 4.38574219 C-4.39135375 4.37571116 -6.78197907 4.36658552 -9.17260742 4.35839844 C-15.03206915 4.33635088 -20.89138262 4.30288272 -26.75073242 4.26074219 C-25.75073242 2.26074219 -25.75073242 2.26074219 -24.10498047 1.63671875 C-16.09654381 -0.06804322 -8.14902443 -0.04280728 0 0 Z " fill="#FDEBA9" transform="translate(118.750732421875,107.7392578125)"/>
<path d="M0 0 C-0.33 1.98 -0.66 3.96 -1 6 C-1.495 5.01 -1.495 5.01 -2 4 C-2.75394043 4.03029297 -3.50788086 4.06058594 -4.28466797 4.09179688 C-18.86199448 4.66876519 -33.41034439 5.17368638 -48 5 C-47.67 4.01 -47.34 3.02 -47 2 C-41.04840083 1.01905775 -35.14821491 0.68094806 -29.125 0.4375 C-28.12009521 0.3950415 -27.11519043 0.35258301 -26.07983398 0.30883789 C-17.38296164 -0.03423264 -8.70198418 -0.10512464 0 0 Z " fill="#C9E4F6" transform="translate(162,92)"/>
<path d="M0 0 C0.85271484 0.23396484 0.85271484 0.23396484 1.72265625 0.47265625 C6.91917736 1.78263069 10.75414995 2.11613831 16 1 C16 1.33 16 1.66 16 2 C17.1446875 2.2165625 17.1446875 2.2165625 18.3125 2.4375 C21 3 21 3 24 4 C31.75828111 5.4279045 39.43709179 5.1815301 47 2.875 C50 2 50 2 52 3 C48.94320977 6.25681982 46.65244092 7.28637285 42.30151367 7.45410156 C40.42354627 7.45347153 38.5455008 7.43106461 36.66796875 7.390625 C35.67622147 7.38496521 34.68447418 7.37930542 33.66267395 7.37347412 C30.50378586 7.35113344 27.34604364 7.30094038 24.1875 7.25 C22.04233412 7.22993206 19.89715041 7.2116818 17.75195312 7.1953125 C12.50091297 7.15127645 7.25053836 7.0843875 2 7 C1.34 4.69 0.68 2.38 0 0 Z " fill="#F0AF67" transform="translate(304,359)"/>
<path d="M0 0 C0.495 1.485 0.495 1.485 1 3 C-5.84460804 4.27536539 -12.64638381 4.12622488 -19.58984375 4.09765625 C-21.53933678 4.09553383 -21.53933678 4.09553383 -23.5282135 4.09336853 C-26.96243253 4.08957334 -30.39660842 4.07976908 -33.83081055 4.06866455 C-37.34358131 4.05838555 -40.85635912 4.05385708 -44.36914062 4.04882812 C-51.24611133 4.03814376 -58.12305359 4.02110388 -65 4 C-64.67 3.34 -64.34 2.68 -64 2 C-42.88 1.34 -21.76 0.68 0 0 Z " fill="#F2C17F" transform="translate(380,113)"/>
<path d="M0 0 C3.45831586 -0.02894547 6.91660072 -0.04678 10.375 -0.0625 C11.35984375 -0.07087891 12.3446875 -0.07925781 13.359375 -0.08789062 C14.77089844 -0.09272461 14.77089844 -0.09272461 16.2109375 -0.09765625 C17.51490479 -0.10551147 17.51490479 -0.10551147 18.84521484 -0.11352539 C21 0 21 0 23 1 C23.78375 1 24.5675 1 25.375 1 C28 1 28 1 29.80078125 1.55859375 C32.69426709 2.13934668 34.92374996 1.62986682 37.8125 1.0625 C42.32529626 0.23948085 46.42553274 -0.20793033 51 0 C45.60141906 5.17364007 36.93722705 4.14359658 29.90625 4.09765625 C29.07411987 4.0962413 28.24198975 4.09482635 27.38464355 4.09336853 C24.7563907 4.08782167 22.12822662 4.07527945 19.5 4.0625 C17.70573041 4.05747812 15.91145946 4.05291642 14.1171875 4.04882812 C9.74475805 4.03786972 5.37239402 4.02064248 1 4 C0.67 2.68 0.34 1.36 0 0 Z " fill="#F0B36C" transform="translate(59,362)"/>
<path d="M0 0 C1.60379341 -0.05416188 3.20811406 -0.09286638 4.8125 -0.125 C5.70582031 -0.14820312 6.59914063 -0.17140625 7.51953125 -0.1953125 C10 0 10 0 13 2 C7.375 7 7.375 7 4 7 C4 7.99 4 8.98 4 10 C-18.11 10 -40.22 10 -63 10 C-63 9.67 -63 9.34 -63 9 C-41.22 9 -19.44 9 3 9 C2.01 6.03 2.01 6.03 1 3 C0.505 1.515 0.505 1.515 0 0 Z " fill="#F0A860" transform="translate(153,109)"/>
<path d="M0 0 C2 1 2 1 2.62402344 2.71044922 C3.90592099 8.57184195 4.30471402 14.13381495 4.25 20.125 C4.25773438 20.97964844 4.26546875 21.83429688 4.2734375 22.71484375 C4.25762904 27.86049824 3.66387391 32.1272264 2 37 C0 35 0 35 -0.22705078 31.56005859 C-0.22673369 30.08948021 -0.21540987 28.61887858 -0.1953125 27.1484375 C-0.1924826 26.37440582 -0.18965271 25.60037415 -0.18673706 24.80288696 C-0.17552754 22.32676843 -0.15042203 19.8510095 -0.125 17.375 C-0.11497118 15.69792188 -0.10584516 14.02083811 -0.09765625 12.34375 C-0.07558574 8.22902777 -0.04105102 4.11457489 0 0 Z " fill="#F6780C" transform="translate(145,324)"/>
<path d="M0 0 C-0.33 0.99 -0.66 1.98 -1 3 C-8.25678685 3.7696683 -15.40388791 4.13923121 -22.69921875 4.09765625 C-24.14081108 4.09553383 -24.14081108 4.09553383 -25.61152649 4.09336853 C-28.63688466 4.08783675 -31.66216475 4.07529773 -34.6875 4.0625 C-36.75716038 4.05747616 -38.82682193 4.05291481 -40.89648438 4.04882812 C-45.931019 4.03788981 -50.96549633 4.02067362 -56 4 C-56.33 3.34 -56.66 2.68 -57 2 C-56.45178085 1.98969254 -55.90356171 1.97938507 -55.33872986 1.96876526 C-49.61185883 1.86024271 -43.8851307 1.74568462 -38.15844727 1.62768555 C-36.02371218 1.58448277 -33.88894579 1.54279789 -31.75415039 1.50268555 C-28.67845241 1.44462646 -25.60290984 1.38103616 -22.52734375 1.31640625 C-21.57915268 1.29969376 -20.63096161 1.28298126 -19.65403748 1.26576233 C-13.07651193 1.12006103 -6.545281 -0.19834185 0 0 Z " fill="#EFA358" transform="translate(363,364)"/>
<path d="M0 0 C0.99 0.33 1.98 0.66 3 1 C3.495 4.96 3.495 4.96 4 9 C-23.06 9 -50.12 9 -78 9 C-78 8.67 -78 8.34 -78 8 C-52.92 7.67 -27.84 7.34 -2 7 C-1.34 4.69 -0.68 2.38 0 0 Z " fill="#E78231" transform="translate(392,113)"/>
<path d="M0 0 C0.99 0 1.98 0 3 0 C3.495 2.97 3.495 2.97 4 6 C-23.39 6 -50.78 6 -79 6 C-79 5.67 -79 5.34 -79 5 C-53.59 4.67 -28.18 4.34 -2 4 C-1.34 2.68 -0.68 1.36 0 0 Z " fill="#E48031" transform="translate(167,116)"/>
<path d="M0 0 C1.485 0.99 1.485 0.99 3 2 C3.25474114 4.78050916 3.32383081 7.33610254 3.2578125 10.11328125 C3.25119598 10.91984665 3.24457947 11.72641205 3.23776245 12.55741882 C3.21430996 15.14282931 3.17062659 17.72739359 3.125 20.3125 C3.08987083 22.88679465 3.05903554 25.46103688 3.03366089 28.03544617 C3.01677039 29.63823904 2.99370031 31.24098192 2.96365356 32.84358215 C2.9123431 36.70258954 3.04656025 40.25088888 4 44 C3.01 44 2.02 44 1 44 C0.93941406 43.0821875 0.87882813 42.164375 0.81640625 41.21875 C0.73261719 39.9915625 0.64882812 38.764375 0.5625 37.5 C0.48128906 36.2934375 0.40007812 35.086875 0.31640625 33.84375 C0.10735725 31.30419182 -0.1845066 28.769956 -0.5625 26.25 C-1.24694956 20.98913283 -0.86392345 15.78010731 -0.5625 10.5 C-0.51029297 9.48679687 -0.45808594 8.47359375 -0.40429688 7.4296875 C-0.27577518 4.95272392 -0.14087234 2.47628663 0 0 Z " fill="#EB8737" transform="translate(143,320)"/>
<path d="M0 0 C1.15242188 0.00902344 2.30484375 0.01804687 3.4921875 0.02734375 C4.36101562 0.03894531 5.22984375 0.05054688 6.125 0.0625 C5.795 1.0525 5.465 2.0425 5.125 3.0625 C-0.815 2.7325 -6.755 2.4025 -12.875 2.0625 C-12.875 1.7325 -12.875 1.4025 -12.875 1.0625 C-8.52167264 0.22226812 -4.43057481 -0.04520995 0 0 Z M-50.875 2.0625 C-38.335 2.0625 -25.795 2.0625 -12.875 2.0625 C-12.875 2.3925 -12.875 2.7225 -12.875 3.0625 C-20.92973782 4.09405536 -28.8881121 4.18145318 -37 4.125 C-38.86398438 4.11823242 -38.86398438 4.11823242 -40.765625 4.11132812 C-43.80213502 4.09964924 -46.83854088 4.0832714 -49.875 4.0625 C-50.205 3.4025 -50.535 2.7425 -50.875 2.0625 Z " fill="#EFA55A" transform="translate(110.875,363.9375)"/>
<path d="M0 0 C0.99 0.99 1.98 1.98 3 3 C2.34 3 1.68 3 1 3 C1.061875 4.423125 1.061875 4.423125 1.125 5.875 C1 9 1 9 -1 11 C-1.99 11 -2.98 11 -4 11 C-4 10.34 -4 9.68 -4 9 C-5.65 9 -7.3 9 -9 9 C-7.48328036 4.44984107 -3.83108947 2.49942736 0 0 Z " fill="#E89350" transform="translate(391,110)"/>
<path d="M0 0 C0.66 0 1.32 0 2 0 C5.49042259 6.98084518 3.01687655 18.8148773 1 26 C0.67 26 0.34 26 0 26 C0 17.42 0 8.84 0 0 Z " fill="#F2770D" transform="translate(392,334)"/>
<path d="M0 0 C0.85271484 0.23396484 0.85271484 0.23396484 1.72265625 0.47265625 C6.91917736 1.78263069 10.75414995 2.11613831 16 1 C16 1.33 16 1.66 16 2 C18.475 2.495 18.475 2.495 21 3 C20.67 3.66 20.34 4.32 20 5 C13.73 5 7.46 5 1 5 C0.67 3.35 0.34 1.7 0 0 Z " fill="#F1BF7A" transform="translate(304,359)"/>
<path d="M0 0 C1.60379341 -0.05416188 3.20811406 -0.09286638 4.8125 -0.125 C5.70582031 -0.14820312 6.59914062 -0.17140625 7.51953125 -0.1953125 C10 0 10 0 13 2 C7.5 7 7.5 7 3 7 C0 2.92857143 0 2.92857143 0 0 Z " fill="#EEAD6A" transform="translate(153,109)"/>
<path d="M0 0 C0.99 0.495 0.99 0.495 2 1 C2.40729228 3.32156597 2.74438677 5.6568787 3 8 C2.34 8 1.68 8 1 8 C1 16.25 1 24.5 1 33 C1.66 33 2.32 33 3 33 C2.34 34.32 1.68 35.64 1 37 C-0.55977064 33.88045872 -0.12104126 30.57040616 -0.09765625 27.1484375 C-0.0962413 26.37440582 -0.09482635 25.60037415 -0.09336853 24.80288696 C-0.08776403 22.32688558 -0.07521083 19.85097412 -0.0625 17.375 C-0.05748558 15.69791797 -0.05292257 14.02083453 -0.04882812 12.34375 C-0.03779315 8.22913194 -0.02052554 4.11458122 0 0 Z " fill="#EE7E20" transform="translate(145,324)"/>
<path d="M0 0 C1.91765594 0.14939774 3.83946522 0.24810283 5.76171875 0.31640625 C7.43911133 0.37924805 7.43911133 0.37924805 9.15039062 0.44335938 C10.31763672 0.48267578 11.48488281 0.52199219 12.6875 0.5625 C13.86634766 0.60568359 15.04519531 0.64886719 16.25976562 0.69335938 C19.17305883 0.79951176 22.08643757 0.90156242 25 1 C25 1.33 25 1.66 25 2 C12.13 2 -0.74 2 -14 2 C-14 1.67 -14 1.34 -14 1 C-12.23103898 0.63659714 -10.45973374 0.28459117 -8.6875 -0.0625 C-7.70136719 -0.25972656 -6.71523438 -0.45695312 -5.69921875 -0.66015625 C-3 -1 -3 -1 0 0 Z " fill="#622C20" transform="translate(447,483)"/>
<path d="M0 0 C0.99 0.495 0.99 0.495 2 1 C2.59355614 3.64860427 2.74209269 6.29197322 3 9 C2.34 9 1.68 9 1 9 C1 16.92 1 24.84 1 33 C0.67 33 0.34 33 0 33 C0 22.11 0 11.22 0 0 Z " fill="#F07D1D" transform="translate(391,325)"/>
<path d="M0 0 C2.125 0.375 2.125 0.375 4 1 C3.67 1.66 3.34 2.32 3 3 C2.34 3 1.68 3 1 3 C0.731875 3.639375 0.46375 4.27875 0.1875 4.9375 C-1 7 -1 7 -4 8 C-4.99 8 -5.98 8 -7 8 C-7 7.01 -7 6.02 -7 5 C-4.625 3.4375 -4.625 3.4375 -2 2 C-1.34 1.34 -0.68 0.68 0 0 Z " fill="#E99754" transform="translate(164,111)"/>
<path d="M0 0 C0.66 0 1.32 0 2 0 C2 0.99 2 1.98 2 3 C1.01 3.495 1.01 3.495 0 4 C-1.13350534 6.01669827 -1.13350534 6.01669827 -2 8 C-4.64 8 -7.28 8 -10 8 C-10 7.34 -10 6.68 -10 6 C-8.63875 5.62875 -8.63875 5.62875 -7.25 5.25 C-3.87227303 3.95087424 -2.42480947 2.59801015 0 0 Z " fill="#EA8C43" transform="translate(167,113)"/>
<path d="M0 0 C0.33 0.33 0.66 0.66 1 1 C3.33944736 0.71269945 5.6739143 0.38063221 8 0 C7 1.5 7 1.5 5 3 C0.79838392 3.26676927 -2.96961634 3.34346122 -7 2 C-7 1.34 -7 0.68 -7 0 C-3.86350275 -1.04549908 -3.0051095 -1.00170317 0 0 Z " fill="#F5C882" transform="translate(66,360)"/>
<path d="M0 0 C0.99 0 1.98 0 3 0 C3.33 1.98 3.66 3.96 4 6 C1.03 5.505 1.03 5.505 -2 5 C-1.34 3.35 -0.68 1.7 0 0 Z " fill="#EF812E" transform="translate(167,116)"/>
<path d="M0 0 C-6.625 3.125 -6.625 3.125 -10 2 C-7.20652751 -0.79347249 -3.65536205 -1.82768103 0 0 Z " fill="#F2B46A" transform="translate(356,362)"/>
</svg>
