<?xml version="1.0" encoding="UTF-8"?>
<svg version="1.1" xmlns="http://www.w3.org/2000/svg" width="512" height="512">
<path d="M0 0 C1.50875224 -0.00524775 3.0175012 -0.01152839 4.52624512 -0.01878357 C7.67309112 -0.02913473 10.81948342 -0.02470254 13.96630859 -0.01000977 C17.97427306 0.00718394 21.98080451 -0.01635044 25.98860931 -0.05149937 C29.09960198 -0.0735872 32.21025757 -0.07200491 35.32130432 -0.06373405 C36.79791335 -0.062921 38.27454876 -0.06965928 39.75108337 -0.08450508 C49.60989956 -0.16847159 57.8686829 0.5984031 65.41711426 7.52684021 C72.29407722 14.59629896 73.6933136 22.12275833 73.84375 31.62890625 C74.04194407 43.62944996 74.04194407 43.62944996 80.28125 53.56640625 C83.02239893 55.13910113 83.02239893 55.13910113 86.21875 56.31640625 C87.46029809 56.81214567 88.70113692 57.30966366 89.94140625 57.80859375 C90.96645264 58.21609863 90.96645264 58.21609863 92.01220703 58.63183594 C94.56460798 59.68311535 97.07547187 60.8100415 99.58984375 61.94921875 C100.50967041 62.36075195 101.42949707 62.77228516 102.37719727 63.19628906 C104.19599323 64.01117613 106.01051258 64.83569333 107.82006836 65.67089844 C113.95338639 68.37720106 118.72892393 69.60291037 125.42578125 68.078125 C129.98352518 65.82593772 133.03414101 62.87917541 136.53125 59.19140625 C143.26564733 52.14312744 150.44076422 47.36248311 160.40625 46.94140625 C172.08587302 47.04296819 179.62886233 54.00728785 187.3984375 61.88671875 C188.42744352 62.911672 189.45733785 63.9357341 190.48806763 64.95895386 C192.63408492 67.09617711 194.76900877 69.24373777 196.89648438 71.39941406 C199.6062081 74.1433209 202.34199277 76.85939448 205.08672905 79.56822395 C207.21511404 81.67478904 209.32883257 83.79560958 211.43857193 85.92083359 C212.44117864 86.92740471 213.44815587 87.92964427 214.45977402 88.92715836 C221.84406142 96.23093013 227.81194156 103.59593564 227.90625 114.44140625 C227.41498596 126.0679886 220.83058114 133.41663145 212.78515625 141.03515625 C208.70011957 145.16480332 206.50195296 148.90517631 206.01171875 154.81640625 C206.31892476 159.09057684 207.55633785 162.45737406 209.28125 166.31640625 C209.92778021 167.80568725 210.57358471 169.29528345 211.21875 170.78515625 C211.55777344 171.55988281 211.89679688 172.33460938 212.24609375 173.1328125 C213.31410278 175.64364127 214.30436507 178.17509359 215.28125 180.72265625 C215.61511719 181.5724707 215.94898438 182.42228516 216.29296875 183.29785156 C216.93617036 184.93699874 217.56461192 186.58204026 218.17578125 188.23339844 C220.38418839 193.73327196 222.95520777 196.85743824 228.28125 199.56640625 C232.16045656 200.88546644 236.2550959 200.70393712 240.32543945 200.80517578 C251.62598263 201.12038443 260.37329256 202.02207663 268.7109375 210.296875 C274.61804576 218.83426281 274.87644205 227.10523808 274.8125 237.1875 C274.81520076 238.69768014 274.81908802 240.20785858 274.82409668 241.71803284 C274.82996618 244.87086676 274.82151333 248.02324483 274.80273438 251.17602539 C274.77996537 255.1917048 274.79307014 259.20631332 274.81702423 263.22195339 C274.83156876 266.33722307 274.82683666 269.45224435 274.81651306 272.56752205 C274.81386855 274.04690748 274.81703424 275.52631641 274.82643127 277.00567436 C274.87780572 287.36535962 274.20385962 296.34140429 267.15625 304.44140625 C259.1839157 311.49833682 250.65548424 312.0506249 240.41333008 312.23974609 C232.86981509 312.39889506 227.31775466 313.71534332 221.28125 318.56640625 C219.56260667 321.35639482 219.56260667 321.35639482 218.40625 324.62890625 C217.67728516 326.46582031 217.67728516 326.46582031 216.93359375 328.33984375 C216.67433105 329.00983398 216.41506836 329.67982422 216.14794922 330.37011719 C214.50532327 334.53267015 212.72187985 338.6369926 210.96875 342.75390625 C210.2833914 344.37164929 209.59968329 345.99009299 208.91796875 347.609375 C208.62623779 348.3005542 208.33450684 348.9917334 208.03393555 349.70385742 C205.76383337 355.32131105 205.57280831 359.54228713 207.59375 365.31640625 C209.66244915 369.17204625 212.49398539 371.82193528 215.65625 374.81640625 C222.70492712 381.55001289 227.48519656 388.72647495 227.90625 398.69140625 C227.80468806 410.37102927 220.8403684 417.91401858 212.9609375 425.68359375 C211.93598425 426.71259977 210.91192215 427.7424941 209.88870239 428.77322388 C207.75147914 430.91924117 205.60391848 433.05416502 203.44824219 435.18164062 C200.70433535 437.89136435 197.98826177 440.62714902 195.2794323 443.3718853 C193.17286721 445.50027029 191.05204667 447.61398882 188.92682266 449.72372818 C187.92025154 450.72633489 186.91801198 451.73331212 185.92049789 452.74493027 C178.61672612 460.12921767 171.25172061 466.09709781 160.40625 466.19140625 C150.07564926 465.7422497 142.87024927 460.6163192 135.96875 453.37890625 C135.50146484 452.85586914 135.03417969 452.33283203 134.55273438 451.79394531 C130.11394377 446.92004053 126.00658068 444.88538746 119.4765625 444.12109375 C114.25986869 444.33939695 109.83230948 446.53207123 105.15625 448.69140625 C103.29985669 449.52688101 101.44308457 450.36151459 99.5859375 451.1953125 C98.68456055 451.60410645 97.78318359 452.01290039 96.85449219 452.43408203 C94.58099615 453.43450657 92.30282697 454.35013768 89.9765625 455.21875 C83.62321288 457.6432312 79.1513246 459.39527127 75.98046875 465.63671875 C74.68351533 469.21602036 74.16377681 472.3907454 74.140625 476.19921875 C73.78258141 496.5576145 73.78258141 496.5576145 66.41796875 504.6015625 C60.39611021 510.29601902 54.51359443 512.92803159 46.21948242 512.98632812 C45.55177322 512.99479767 44.88406403 513.00326721 44.19612122 513.01199341 C42.00945482 513.0352107 39.8234986 513.03638914 37.63671875 513.03515625 C36.10125962 513.04226826 34.56580312 513.04996876 33.03034973 513.05822754 C29.81857919 513.07163816 26.60705429 513.07325716 23.39526367 513.06738281 C19.30319515 513.06149684 15.21231725 513.092047 11.12047863 513.13249969 C7.95032025 513.15850251 4.78044355 513.1612427 1.61019325 513.15760803 C0.10286791 513.15928828 -1.40447201 513.168824 -2.91169167 513.18675232 C-12.87561538 513.29222174 -21.2195382 512.61728604 -28.85334778 505.60583496 C-35.75304225 498.51851645 -37.13121631 490.97211763 -37.28125 481.44140625 C-37.45221966 472.91825207 -38.17388054 466.48061739 -43.71875 459.56640625 C-46.44109029 457.88170961 -46.44109029 457.88170961 -49.65625 456.75390625 C-50.89790993 456.2675979 -52.13874127 455.77917068 -53.37890625 455.2890625 C-54.06227051 455.02367676 -54.74563477 454.75829102 -55.44970703 454.48486328 C-58.00709114 453.44969231 -60.51449178 452.32643791 -63.02734375 451.1875 C-63.94717041 450.77540283 -64.86699707 450.36330566 -65.81469727 449.9387207 C-67.63326383 449.12249857 -69.44776975 448.29715297 -71.25756836 447.46166992 C-77.39109507 444.75585599 -82.16634763 443.52988476 -88.86328125 445.0546875 C-94.02050837 447.60310652 -97.64534485 451.36906484 -101.56591797 455.4831543 C-107.9441033 462.06003353 -114.68068156 465.62511864 -123.84375 465.87890625 C-124.71257812 465.91628906 -125.58140625 465.95367187 -126.4765625 465.9921875 C-137.10542802 464.59634853 -143.53809737 458.64711964 -150.8359375 451.24609375 C-151.86494352 450.2211405 -152.89483785 449.1970784 -153.92556763 448.17385864 C-156.07158492 446.03663539 -158.20650877 443.88907473 -160.33398438 441.73339844 C-163.0437081 438.9894916 -165.77949277 436.27341802 -168.52422905 433.56458855 C-170.65261404 431.45802346 -172.76633257 429.33720292 -174.87607193 427.21197891 C-175.87867864 426.20540779 -176.88565587 425.20316823 -177.89727402 424.20565414 C-184.82548128 417.35298958 -189.54506981 411.26328736 -191.25 401.53515625 C-191.09339513 389.16337132 -186.14812727 382.24413606 -177.71875 373.56640625 C-171.6374367 366.96017918 -171.6374367 366.96017918 -169.4921875 358.39453125 C-169.74840292 354.06537407 -170.97526798 350.71698358 -172.71875 346.81640625 C-173.36528021 345.32712525 -174.01108471 343.83752905 -174.65625 342.34765625 C-174.99527344 341.57292969 -175.33429688 340.79820312 -175.68359375 340 C-176.75160278 337.48917123 -177.74186507 334.95771891 -178.71875 332.41015625 C-179.05261719 331.5603418 -179.38648438 330.71052734 -179.73046875 329.83496094 C-180.37367036 328.19581376 -181.00211192 326.55077224 -181.61328125 324.89941406 C-183.82168839 319.39954054 -186.39270777 316.27537426 -191.71875 313.56640625 C-195.59795656 312.24734606 -199.6925959 312.42887538 -203.76293945 312.32763672 C-215.06348263 312.01242807 -223.81079256 311.11073587 -232.1484375 302.8359375 C-238.09322795 294.24408862 -238.32765038 285.87302858 -238.28515625 275.7265625 C-238.29040219 274.19396083 -238.29668219 272.66136239 -238.30393982 271.12876892 C-238.31430178 267.92887088 -238.30984399 264.72941869 -238.29516602 261.52954102 C-238.27798675 257.45317482 -238.30148329 253.37821946 -238.33665562 249.30201054 C-238.35874315 246.14040501 -238.35716095 242.97913119 -238.3488903 239.81747246 C-238.34807692 238.31574392 -238.3548216 236.8139895 -238.36966133 235.31233406 C-238.45271006 225.38922678 -237.7759467 216.99250191 -230.72901917 209.43153381 C-223.53911143 202.55679884 -217.02731185 201.21045522 -207.40625 201.12890625 C-196.50830175 200.91850535 -196.50830175 200.91850535 -186.71875 196.56640625 C-182.44064237 191.33380182 -180.04317906 184.93855926 -177.65625 178.69140625 C-176.99869792 177.00651042 -176.34114583 175.32161458 -175.68359375 173.63671875 C-175.36438965 172.80736816 -175.04518555 171.97801758 -174.71630859 171.12353516 C-173.3599825 167.64674625 -171.93503711 164.19866047 -170.50415039 160.75195312 C-168.77201791 155.93191895 -169.37121574 152.55936128 -171.03125 147.81640625 C-173.09994915 143.96076625 -175.93148539 141.31087722 -179.09375 138.31640625 C-186.14242712 131.58279961 -190.92269656 124.40633755 -191.34375 114.44140625 C-191.24218806 102.76178323 -184.2778684 95.21879392 -176.3984375 87.44921875 C-175.37348425 86.42021273 -174.34942215 85.3903184 -173.32620239 84.35958862 C-171.18897914 82.21357133 -169.04141848 80.07864748 -166.88574219 77.95117188 C-164.14183535 75.24144815 -161.42576177 72.50566348 -158.7169323 69.7609272 C-156.61036721 67.63254221 -154.48954667 65.51882368 -152.36432266 63.40908432 C-151.35775154 62.40647761 -150.35551198 61.39950038 -149.35799789 60.38788223 C-142.05422612 53.00359483 -134.68922061 47.03571469 -123.84375 46.94140625 C-113.51314926 47.3905628 -106.30774927 52.5164933 -99.40625 59.75390625 C-98.93896484 60.27694336 -98.47167969 60.79998047 -97.99023438 61.33886719 C-93.55144377 66.21277197 -89.44408068 68.24742504 -82.9140625 69.01171875 C-77.69721055 68.79340893 -73.2700727 66.60043427 -68.59375 64.44140625 C-66.73729469 63.60737024 -64.88052282 62.77403852 -63.0234375 61.94140625 C-62.12206055 61.53277344 -61.22068359 61.12414063 -60.29199219 60.703125 C-58.01748494 59.69837113 -55.73584894 58.76739568 -53.4140625 57.87890625 C-46.47964332 55.18137321 -42.06972334 53.39246306 -38.71875 46.56640625 C-37.60998043 42.57483579 -37.58226936 38.63478532 -37.47998047 34.5222168 C-37.19384371 24.26392975 -36.66742124 15.68265277 -29.59375 7.69140625 C-20.89846872 0.12460072 -11.00276161 -0.04695683 0 0 Z M-9.71875 219.56640625 C-10.27820313 219.9840625 -10.83765625 220.40171875 -11.4140625 220.83203125 C-20.20779256 227.76042463 -26.49112205 238.56723422 -28.00976562 249.69970703 C-29.1094016 262.47047934 -26.82147218 274.25385074 -18.71875 284.56640625 C-18.30109375 285.12585938 -17.8834375 285.6853125 -17.453125 286.26171875 C-10.52473162 295.05544881 0.28207797 301.3387783 11.41455078 302.85742188 C24.18532309 303.95705785 35.96869449 301.66912843 46.28125 293.56640625 C46.84070313 293.14875 47.40015625 292.73109375 47.9765625 292.30078125 C56.77029256 285.37238787 63.05362205 274.56557828 64.57226562 263.43310547 C65.6719016 250.66233316 63.38397218 238.87896176 55.28125 228.56640625 C54.86359375 228.00695312 54.4459375 227.4475 54.015625 226.87109375 C47.08723162 218.07736369 36.28042203 211.7940342 25.14794922 210.27539062 C12.37717691 209.17575465 0.59380551 211.46368407 -9.71875 219.56640625 Z " fill="#AEBCBC" transform="translate(237.71875,-0.56640625)"/>
<path d="M0 0 C2.24010446 -0.00217909 4.47970924 -0.0203693 6.71972656 -0.03930664 C41.29566805 -0.17615546 75.99755703 13.50246006 101.30175781 37.13061523 C103.21727004 38.91390627 105.17404673 40.58875692 107.19628906 42.24780273 C131.78532486 63.34862648 146.5756156 98.83476695 150.50878906 130.18530273 C150.62083478 132.85929072 150.69570656 135.50752261 150.71191406 138.18139648 C150.71761414 138.93260269 150.72331421 139.6838089 150.72918701 140.45777893 C150.73858554 142.0436159 150.74515037 143.62947194 150.74902344 145.21533203 C150.75863673 147.58524954 150.78966986 149.95426334 150.82128906 152.32397461 C151.10133612 192.32059342 132.75318632 227.79655277 105.50878906 256.18530273 C102.96480178 258.69768769 100.3094381 260.96345449 97.50878906 263.18530273 C96.48785156 264.00514648 95.46691406 264.82499023 94.41503906 265.66967773 C78.78673291 277.86076297 61.51938499 285.90316912 42.59130859 291.54907227 C40.91049977 292.06257611 39.25025455 292.64310522 37.59863281 293.24389648 C27.45301854 296.33503813 17.46465182 296.52806533 6.95019531 296.50097656 C4.40938635 296.49783439 1.86976595 296.52128328 -0.67089844 296.54663086 C-40.78252058 296.70341674 -77.25001125 279.07784564 -105.49121094 251.18530273 C-108.00035744 248.63502269 -110.27334653 245.99206475 -112.49121094 243.18530273 C-113.71904297 241.65583008 -113.71904297 241.65583008 -114.97167969 240.09545898 C-128.79071626 222.3758879 -138.98566197 201.24600894 -143.49121094 179.18530273 C-143.74499512 178.11687134 -143.74499512 178.11687134 -144.00390625 177.02685547 C-145.77621817 168.79882653 -145.79564661 160.69127137 -145.75195312 152.31640625 C-145.74127635 149.88768278 -145.75187744 147.4597063 -145.76464844 145.03100586 C-145.77809936 131.98975469 -144.55216516 119.50111228 -140.86621094 106.93530273 C-140.60606201 106.04617187 -140.34591309 105.15704102 -140.07788086 104.2409668 C-134.07623791 84.47126286 -124.06802189 66.77443652 -110.49121094 51.18530273 C-109.22857422 49.72350586 -109.22857422 49.72350586 -107.94042969 48.23217773 C-98.45491903 37.45519662 -87.4180812 29.0964424 -75.49121094 21.18530273 C-74.70617187 20.65163086 -73.92113281 20.11795898 -73.11230469 19.56811523 C-51.3949163 5.59344793 -25.46410177 -0.00276423 0 0 Z M-25.49121094 111.18530273 C-26.05066406 111.60295898 -26.61011719 112.02061523 -27.18652344 112.45092773 C-35.98025349 119.37932111 -42.26358298 130.18613071 -43.78222656 141.31860352 C-44.88186253 154.08937583 -42.59393312 165.87274723 -34.49121094 176.18530273 C-34.07355469 176.74475586 -33.65589844 177.30420898 -33.22558594 177.88061523 C-26.29719256 186.67434529 -15.49038296 192.95767478 -4.35791016 194.47631836 C8.41286216 195.57595433 20.19623356 193.28802492 30.50878906 185.18530273 C31.06824219 184.76764648 31.62769531 184.34999023 32.20410156 183.91967773 C40.99783162 176.99128436 47.28116111 166.18447476 48.79980469 155.05200195 C49.89944066 142.28122964 47.61151125 130.49785824 39.50878906 120.18530273 C39.09113281 119.62584961 38.67347656 119.06639648 38.24316406 118.48999023 C31.31477069 109.69626018 20.50796109 103.41293069 9.37548828 101.89428711 C-3.39528403 100.79465114 -15.17865543 103.08258055 -25.49121094 111.18530273 Z " fill="#0087ED" transform="translate(253.4912109375,107.814697265625)"/>
<path d="M0 0 C3.45519819 2.88265094 6.74571316 5.89389435 10 9 C10.90298828 9.79083984 10.90298828 9.79083984 11.82421875 10.59765625 C28.2743964 25.59070861 37.06997473 49.75613366 38.4140625 71.546875 C39.35831105 97.04588774 31.48266327 121.09320877 14.4375 140.3125 C12.96419849 141.88053155 11.485556 143.44357344 10 145 C9.20916016 145.90298828 9.20916016 145.90298828 8.40234375 146.82421875 C-6.3614228 163.02282706 -30.48858624 172.21956791 -52.01953125 173.44921875 C-79.16015946 174.27792379 -103.81290207 165.87988852 -123.76953125 147.12890625 C-124.50558594 146.42636719 -125.24164063 145.72382813 -126 145 C-126.60199219 144.47277344 -127.20398438 143.94554687 -127.82421875 143.40234375 C-143.69893685 128.93377784 -153.26768529 104.77278283 -154.30859375 83.6953125 C-155.12230949 57.13777665 -147.91200603 33.00603552 -130 13 C-129.20078125 12.10667969 -128.4015625 11.21335938 -127.578125 10.29296875 C-115.33662442 -2.65477225 -100.26523391 -11.54526764 -83 -16 C-82.03320312 -16.27972656 -81.06640625 -16.55945313 -80.0703125 -16.84765625 C-52.72751076 -23.89646006 -22.24543856 -17.27707692 0 0 Z M-86 40 C-86.55945313 40.41765625 -87.11890625 40.8353125 -87.6953125 41.265625 C-96.48904256 48.19401838 -102.77237205 59.00082797 -104.29101562 70.13330078 C-105.3906516 82.90407309 -103.10272218 94.68744449 -95 105 C-94.58234375 105.55945313 -94.1646875 106.11890625 -93.734375 106.6953125 C-86.80598162 115.48904256 -75.99917203 121.77237205 -64.86669922 123.29101562 C-52.09592691 124.3906516 -40.31255551 122.10272218 -30 114 C-29.44054687 113.58234375 -28.88109375 113.1646875 -28.3046875 112.734375 C-19.51095744 105.80598162 -13.22762795 94.99917203 -11.70898438 83.86669922 C-10.6093484 71.09592691 -12.89727782 59.31255551 -21 49 C-21.41765625 48.44054687 -21.8353125 47.88109375 -22.265625 47.3046875 C-29.19401838 38.51095744 -40.00082797 32.22762795 -51.13330078 30.70898438 C-63.90407309 29.6093484 -75.68744449 31.89727782 -86 40 Z " fill="#B0BFC0" transform="translate(314,179)"/>
<path d="M0 0 C0.33 0 0.66 0 1 0 C1.00410889 0.70084717 1.00821777 1.40169434 1.01245117 2.1237793 C1.04543372 5.31253205 1.11608332 8.49938605 1.1875 11.6875 C1.19330078 12.79029297 1.19910156 13.89308594 1.20507812 15.02929688 C1.25131149 21.58022068 1.25131149 21.58022068 4.5546875 27.01171875 C5.76511719 27.99591797 5.76511719 27.99591797 7 29 C7.33984375 31.0703125 7.33984375 31.0703125 6.9375 33.125 C6.79570312 33.91390625 6.65390625 34.7028125 6.5078125 35.515625 C6.34023438 36.33546875 6.17265625 37.1553125 6 38 C5.89429688 38.77859375 5.78859375 39.5571875 5.6796875 40.359375 C3.21527055 57.2432528 -3.51240739 72.36261983 -12 87 C-12.4129834 87.71849121 -12.8259668 88.43698242 -13.25146484 89.17724609 C-23.74674666 107.24480911 -37.91864144 123.8256499 -55 136 C-56.09441406 136.81984375 -56.09441406 136.81984375 -57.2109375 137.65625 C-77.28661076 152.32949956 -101.82024321 162.71208072 -126.625 165.48046875 C-129 165 -129 165 -131.04296875 162.5390625 C-135.64768071 158.58521471 -140.43142825 159.21843492 -146.3125 159.1875 C-147.43462891 159.16236328 -148.55675781 159.13722656 -149.71289062 159.11132812 C-152.47561286 159.0525468 -155.23675392 159.0162002 -158 159 C-158 158.67 -158 158.34 -158 158 C-156.69349487 157.97812622 -156.69349487 157.97812622 -155.3605957 157.95581055 C-152.06315882 157.89398224 -148.76645277 157.81970112 -145.46948242 157.73754883 C-144.05487268 157.7047254 -142.6401453 157.67656804 -141.2253418 157.65356445 C-131.8219567 157.49667446 -123.11177974 156.50587317 -114 154 C-113.15993408 153.78674072 -112.31986816 153.57348145 -111.4543457 153.35375977 C-81.70887663 145.6966626 -53.31433654 129.25243495 -34 105 C-33.17886719 103.97777344 -32.35773438 102.95554687 -31.51171875 101.90234375 C-16.00072732 82.01259805 -6.32597515 58.79116529 -2 34 C-1.74657837 32.63258667 -1.74657837 32.63258667 -1.48803711 31.23754883 C-0.98444013 27.89677867 -0.79199744 24.66506302 -0.68359375 21.2890625 C-0.64169922 20.04511719 -0.59980469 18.80117188 -0.55664062 17.51953125 C-0.51732422 16.23433594 -0.47800781 14.94914062 -0.4375 13.625 C-0.37272461 11.66240234 -0.37272461 11.66240234 -0.30664062 9.66015625 C-0.20087571 6.44020203 -0.09878421 3.22017469 0 0 Z " fill="#81AFD7" transform="translate(404,246)"/>
</svg>
