<?xml version="1.0" encoding="UTF-8"?>
<svg version="1.1" xmlns="http://www.w3.org/2000/svg" width="512" height="512">
<path d="M0 0 C1.2489505 -0.00708481 2.497901 -0.01416962 3.78469849 -0.02146912 C5.15596045 -0.01917562 6.52722206 -0.01666596 7.89848328 -0.01396179 C9.35272991 -0.01831239 10.80697425 -0.0234967 12.26121521 -0.02944946 C16.20144712 -0.04281524 20.14158297 -0.0434207 24.08183312 -0.04088616 C27.37683892 -0.03981453 30.67182544 -0.04470489 33.96682709 -0.04949158 C41.74467905 -0.060579 49.52248271 -0.06102888 57.30033875 -0.05497742 C65.30967844 -0.04894137 73.3188423 -0.06124098 81.328152 -0.08254749 C88.2166907 -0.10019505 95.1051736 -0.10615977 101.99373406 -0.10290974 C106.10255381 -0.10110132 110.2112482 -0.10368858 114.32004738 -0.11762428 C118.18692213 -0.13024902 122.05352408 -0.12821495 125.9203949 -0.11521339 C127.33405845 -0.1128579 128.74774148 -0.11554521 130.16138268 -0.12383652 C143.09354403 -0.19417563 152.02908877 1.73109225 161.37382507 10.92475891 C167.3204544 17.45263772 170.74904496 24.56210596 170.87528992 33.42475891 C170.89135284 34.45262512 170.90741577 35.48049133 170.92396545 36.539505 C170.96850463 41.21283681 171.00943596 45.88603038 171.03251648 50.55952454 C171.04911869 53.02706811 171.07646399 55.49456277 171.11454773 57.96186829 C171.169165 61.52006459 171.19116324 65.07713809 171.20585632 68.63569641 C171.2285257 69.73993958 171.25119507 70.84418274 171.27455139 71.98188782 C171.25338898 79.6141141 171.25338898 79.6141141 168.27470398 82.98725891 C165.68241882 84.26069641 165.68241882 84.26069641 163.68241882 84.26069641 C163.68241882 90.53069641 163.68241882 96.80069641 163.68241882 103.26069641 C165.33241882 103.59069641 166.98241882 103.92069641 168.68241882 104.26069641 C171.08614853 107.86629097 170.95079215 109.54576613 170.98881531 113.83662415 C170.99713882 114.50053665 171.00546234 115.16444916 171.01403809 115.84848022 C171.03815881 118.0471432 171.04691728 120.24550879 171.05351257 122.44429016 C171.06248511 123.98067307 171.07160707 125.51705511 171.08087158 127.05343628 C171.09737515 130.28066627 171.1050628 133.50779247 171.10795593 136.73506165 C171.11330767 140.84045299 171.1508463 144.94484522 171.1967001 149.04995632 C171.22668942 152.22875364 171.23368435 155.40731821 171.23468208 158.58624458 C171.23884975 160.09751469 171.25114288 161.60878776 171.27219963 163.11991692 C171.43428746 175.77101511 169.68213835 185.28282849 160.74794006 194.84695435 C160.26608291 195.36381172 159.78422576 195.8806691 159.28776687 196.41318882 C153.803801 202.260618 148.15100464 207.94030844 142.48149109 213.60688782 C141.30391194 214.78746858 140.12653462 215.96825069 138.94934082 217.1492157 C135.79106189 220.31622483 132.62964607 223.48008351 129.46732068 226.64305162 C127.48854872 228.62253898 125.51049235 230.60273856 123.53268242 232.5831871 C116.62522665 239.4998512 109.71523709 246.41397193 102.80278015 253.32563782 C96.36727965 259.76053478 89.93741026 266.20102131 83.51008183 272.6440798 C77.97540174 278.19182075 72.43688813 283.73571454 66.89535373 289.27660882 C63.59211519 292.57959248 60.29044655 295.88410884 56.99263191 299.1925087 C53.90009054 302.29470952 50.80281377 305.39210187 47.70179558 308.4858284 C46.5648624 309.62171392 45.4296385 310.75931322 44.29624939 311.89873505 C42.75043601 313.45224378 41.19860021 314.999476 39.64508057 316.54527283 C38.77813348 317.41276468 37.91118639 318.28025654 37.01796818 319.17403603 C34.90259382 321.06398447 33.35422794 322.34891462 30.68241882 323.26069641 C29.41398132 323.01448547 28.14554382 322.76827454 26.83866882 322.51460266 C24.30444705 322.11554501 23.15088455 321.9867784 20.91288757 323.29536438 C19.21172145 324.8468157 17.69359486 326.46150048 16.18241882 328.19819641 C15.64616882 328.77505188 15.10991882 329.35190735 14.55741882 329.94624329 C13.24432313 331.3648556 11.96030938 332.81029063 10.68241882 334.26069641 C11.01241882 334.92069641 11.34241882 335.58069641 11.68241882 336.26069641 C12.19871353 339.48753833 12.49424029 342.03522647 10.61846638 344.86676598 C3.98217667 352.17860491 -3.02425958 359.13147563 -9.99848938 366.11860657 C-11.49084907 367.61723989 -12.98302141 369.1160598 -14.47502136 370.61505127 C-19.35256507 375.5135184 -24.23533891 380.40675534 -29.11836243 385.29975891 C-30.80433576 386.9897832 -32.49027602 388.67984048 -34.1761837 390.36993027 C-42.09401106 398.30677792 -50.01422546 406.24123393 -57.93739253 414.17275107 C-67.06654043 423.31168114 -76.18733966 432.45883904 -85.30117732 441.61303675 C-92.36019043 448.70223079 -99.42688235 455.78371137 -106.49934644 462.85948598 C-110.71758226 467.08006851 -114.93247016 471.30386938 -119.13926125 475.53586197 C-123.09579671 479.51571973 -127.0617987 483.48589635 -131.03513718 487.44897652 C-132.48736698 488.90071199 -133.93621015 490.35584484 -135.38129616 491.81469154 C-155.77516559 512.39177466 -155.77516559 512.39177466 -170.43305969 512.59028625 C-171.52058533 512.58182678 -171.52058533 512.58182678 -172.63008118 512.57319641 C-173.76111267 512.56473694 -173.76111267 512.56473694 -174.91499329 512.55610657 C-191.47118181 512.19514056 -200.65571857 501.22495004 -211.72261047 490.1620636 C-213.06502727 488.82727776 -214.40784206 487.49289207 -215.75102234 486.15887451 C-219.38175937 482.54999059 -223.00598766 478.93464013 -226.62836051 475.31736279 C-228.89484958 473.05452667 -231.16262911 470.79299191 -233.43084145 468.53188324 C-241.35232843 460.634854 -249.26811109 452.73215307 -257.17915344 444.82466125 C-264.5405047 437.46694748 -271.91489334 430.1224793 -279.29531735 422.78390193 C-285.64410333 416.46984839 -291.98319456 410.14616906 -298.31498653 403.81507421 C-302.09130134 400.03955086 -305.87145426 396.26807825 -309.66161156 392.50644684 C-313.22599086 388.96829999 -316.77812172 385.41829298 -320.32139206 381.8590107 C-321.61948702 380.55910571 -322.92182105 379.26341718 -324.22878838 377.97243309 C-334.45654638 367.86211904 -341.48622493 359.2289531 -341.69258118 344.26069641 C-341.69838238 333.34166267 -338.96848892 325.80769371 -331.41577244 317.71183586 C-330.93466693 317.19539723 -330.45356142 316.6789586 -329.95787695 316.14687031 C-324.28338811 310.09336506 -318.42617752 304.22069679 -312.559021 298.35496521 C-311.30663696 297.09927247 -310.05446265 295.84337052 -308.80247742 294.58728015 C-305.39418334 291.16907459 -301.98284164 287.75392543 -298.57092392 284.33933735 C-294.87931178 280.64379022 -291.19052298 276.94542649 -287.501297 273.24749756 C-278.61481084 264.34134992 -269.7235687 255.43995779 -260.8317059 246.53917867 C-256.63822578 242.34130397 -252.44523031 238.14294524 -248.25216866 233.94465256 C-234.30794261 219.98343452 -220.36246946 206.02346396 -206.4133749 192.06711006 C-202.80273949 188.45456502 -199.19210946 184.84201459 -195.58149719 181.22944641 C-194.68418454 180.33165002 -193.78687188 179.43385362 -192.86236794 178.50885127 C-178.3035663 163.94173637 -163.7533124 149.36611463 -149.20657992 134.78694846 C-134.25456482 119.80186882 -119.29503612 104.8243236 -104.32807785 89.85416877 C-95.93138703 81.45531373 -87.53801279 73.05320197 -79.15302849 64.64265823 C-72.01901992 57.48695215 -64.87823181 50.33810006 -57.72850304 43.19809957 C-54.0826882 39.5568303 -50.44017458 35.91241352 -46.80634499 32.25918007 C-43.47729819 28.91251055 -40.13908205 25.57527636 -36.79345346 22.24518584 C-35.58756011 21.04166967 -34.3850113 19.83479058 -33.18625837 18.62416209 C-23.73249666 9.08260298 -14.19843116 0.0269496 0 0 Z M86.30741882 66.51069641 C84.28815252 69.9279163 83.75205834 72.29124371 83.68241882 76.26069641 C85.33056278 80.93043763 87.46065974 83.67007152 91.68241882 86.26069641 C95.71519605 87.36054475 97.91488466 87.53159082 101.86991882 86.13569641 C105.07634353 83.99807994 106.80668147 82.6514524 108.68241882 79.26069641 C109.42079309 75.13408135 109.56012112 71.23856012 107.83476257 67.35054016 C105.18130207 63.68966414 102.04034741 62.11107755 97.73710632 61.31538391 C92.94004525 61.18770548 89.6743628 63.32096001 86.30741882 66.51069641 Z " fill="#FD9467" transform="translate(341.3175811767578,-0.2606964111328125)"/>
<path d="M0 0 C1.19555008 -0.01402863 2.39110016 -0.02805725 3.62287903 -0.04251099 C4.90059174 -0.02722351 6.17830444 -0.01193604 7.49473572 0.0038147 C8.88061614 -0.0010516 10.2664895 -0.00850036 11.65234375 -0.01831055 C15.3881552 -0.03699298 19.12290619 -0.01839652 22.85863423 0.00835371 C26.78351273 0.03112913 30.70834458 0.02275659 34.63327026 0.01885986 C41.22105558 0.01709869 47.80842742 0.03915662 54.39610291 0.07608032 C61.99436871 0.11842657 69.59202976 0.12542901 77.19038969 0.1129564 C84.52460467 0.10153736 91.85860838 0.11289642 99.19279289 0.1353035 C102.30303829 0.14455189 105.41315355 0.14636228 108.52340889 0.14213181 C112.19022434 0.13834331 115.85643091 0.15474483 119.52310753 0.18625259 C121.49768111 0.19867867 123.47234731 0.19175772 125.44694519 0.18411255 C133.31963985 0.27764004 140.35388958 0.9236308 146.33815098 6.4882412 C151.75524892 12.35906068 152.54610067 16.98737872 152.46714783 24.7484436 C151.80730235 24.74991016 151.14745687 24.75137672 150.46761608 24.75288773 C134.37406627 24.79002219 118.28076718 24.84912436 102.18739605 24.93234634 C94.40458542 24.97206912 86.62187491 25.00449579 78.838974 25.0194397 C72.05133602 25.03249145 65.26391896 25.0595453 58.47640544 25.10305667 C54.88608821 25.12559288 51.29604265 25.14135904 47.70564842 25.14032745 C43.68662995 25.13943611 39.66840641 25.16982076 35.64952087 25.20254517 C34.4734729 25.1975148 33.29742493 25.19248444 32.08573914 25.18730164 C11.92027608 25.44029358 1.61523979 38.44673561 -11.6940155 51.78935242 C-13.0017451 53.09664521 -14.30969473 54.40371793 -15.61784351 55.71059126 C-19.18899001 59.27951423 -22.757032 62.85152657 -26.32455015 66.42407596 C-30.18080649 70.28466753 -34.03996971 74.14235142 -37.89877319 78.00039673 C-44.57644058 84.67754083 -51.25228066 91.35650734 -57.92686844 98.03672981 C-67.5770992 107.69510199 -77.23010373 117.35069804 -86.88377844 127.0056278 C-102.54773228 142.67176801 -118.20945795 158.34013389 -133.86976624 174.00991821 C-149.078549 189.22789313 -164.28838757 204.44481153 -179.49964905 219.66030884 C-179.9689614 220.12975271 -180.43827375 220.59919659 -180.92180769 221.08286604 C-186.10276168 226.26526946 -191.28374448 231.44764408 -196.46473908 236.63000691 C-235.49065177 275.66627928 -274.51293938 314.70617392 -313.53285217 353.7484436 C-314.65572777 352.79375632 -315.77750554 351.83777772 -316.89881897 350.8812561 C-317.52362656 350.34903442 -318.14843414 349.81681274 -318.79217529 349.26846313 C-325.51009604 343.40214133 -329.37202918 338.02500442 -330.03285217 328.9984436 C-329.57125952 317.12640261 -319.11966162 308.7647572 -311.22370911 300.93136597 C-309.95849795 299.66154026 -308.69415917 298.39084486 -307.43061376 297.11936164 C-303.97213358 293.64424142 -300.50135951 290.18163639 -297.02835107 286.72104383 C-293.27870328 282.98046595 -289.54060856 279.22837243 -285.80099487 275.47776794 C-278.47961539 268.13861944 -271.14748407 260.81030477 -263.81141701 253.48584065 C-257.8484378 247.53190182 -251.8893826 241.57406193 -245.93309784 235.61342621 C-245.08476211 234.76447754 -244.23642638 233.91552888 -243.3623835 233.0408545 C-241.63892208 231.31611415 -239.91546963 229.59136485 -238.19202605 227.86660668 C-222.03792058 211.70110015 -205.87158649 195.54786764 -189.70103374 179.39881584 C-175.83186591 165.54751852 -161.97321895 151.68576733 -148.12220764 137.8163147 C-132.03019262 121.70288465 -115.93169692 105.59597508 -99.82283235 89.49938846 C-98.10450305 87.78233333 -96.38618209 86.06526985 -94.66786957 84.34819794 C-93.82246476 83.50341023 -92.97705996 82.65862253 -92.10603683 81.7882352 C-86.15429932 75.83994868 -80.20721046 69.88703878 -74.26190948 63.93231964 C-67.01461187 56.67379368 -59.76021028 49.42245825 -52.49666086 42.18019399 C-48.79220373 38.48623582 -45.09099188 34.7891766 -41.39840889 31.08334541 C-38.01549447 27.68847787 -34.62342195 24.30304584 -31.22393206 20.92477879 C-29.99839295 19.70369329 -28.77618169 18.47925632 -27.55774257 17.25108615 C-10.42946742 -0.00340942 -10.42946742 -0.00340942 0 0 Z " fill="#FC7B41" transform="translate(344.53285217285156,14.251556396484375)"/>
<path d="M0 0 C1.2489505 -0.00708481 2.497901 -0.01416962 3.78469849 -0.02146912 C5.15596045 -0.01917562 6.52722206 -0.01666596 7.89848328 -0.01396179 C9.35272991 -0.01831239 10.80697425 -0.0234967 12.26121521 -0.02944946 C16.20144712 -0.04281524 20.14158297 -0.0434207 24.08183312 -0.04088616 C27.37683892 -0.03981453 30.67182544 -0.04470489 33.96682709 -0.04949158 C41.74467905 -0.060579 49.52248271 -0.06102888 57.30033875 -0.05497742 C65.30967844 -0.04894137 73.3188423 -0.06124098 81.328152 -0.08254749 C88.2166907 -0.10019505 95.1051736 -0.10615977 101.99373406 -0.10290974 C106.10255381 -0.10110132 110.2112482 -0.10368858 114.32004738 -0.11762428 C118.18692213 -0.13024902 122.05352408 -0.12821495 125.9203949 -0.11521339 C127.33405845 -0.1128579 128.74774148 -0.11554521 130.16138268 -0.12383652 C143.09354403 -0.19417563 152.02908877 1.73109225 161.37382507 10.92475891 C167.3204544 17.45263772 170.74904496 24.56210596 170.87528992 33.42475891 C170.89135284 34.45262512 170.90741577 35.48049133 170.92396545 36.539505 C170.96850463 41.21283681 171.00943596 45.88603038 171.03251648 50.55952454 C171.04911869 53.02706811 171.07646399 55.49456277 171.11454773 57.96186829 C171.169165 61.52006459 171.19116324 65.07713809 171.20585632 68.63569641 C171.2285257 69.73993958 171.25119507 70.84418274 171.27455139 71.98188782 C171.25348973 79.57778122 171.25348973 79.57778122 168.37626648 83.01850891 C165.68241882 84.26069641 165.68241882 84.26069641 162.05741882 83.76069641 C158.54656065 82.200315 157.59464351 81.46156187 155.68241882 78.26069641 C155.31060791 76.04920959 155.31060791 76.04920959 155.31352234 73.61909485 C155.30319725 72.24681732 155.30319725 72.24681732 155.29266357 70.84681702 C155.29882187 69.86449097 155.30498016 68.88216492 155.31132507 67.87007141 C155.29393661 65.77762191 155.2763523 63.68517403 155.2585907 61.59272766 C155.24853706 58.30347118 155.24491694 55.01432306 155.24662781 51.72505188 C155.24304274 48.54389961 155.21563724 45.36357548 155.18632507 42.18257141 C155.1945076 41.20834229 155.20269012 40.23411316 155.21112061 39.23036194 C155.13758556 32.43443978 153.96962667 26.89850041 149.30596924 21.73744202 C144.35035097 17.26729863 139.15913647 16.01753284 132.63731384 15.97981262 C131.44870758 15.96839233 130.26010132 15.95697205 129.03547668 15.94520569 C127.74495392 15.94296997 126.45443115 15.94073425 125.12480164 15.93843079 C123.74113949 15.929164 122.35748241 15.91911328 120.97383118 15.90834045 C117.2257025 15.88218894 113.47764532 15.86922164 109.72943974 15.86031914 C107.38384872 15.85444216 105.03827691 15.84622969 102.69269562 15.83731079 C95.34253386 15.80998659 87.9924164 15.79064063 80.64220738 15.78290701 C72.17833054 15.77395077 63.71510051 15.73886884 55.25142026 15.68090582 C48.69492071 15.63757378 42.13860251 15.61749327 35.58196139 15.61482477 C31.67243697 15.61273569 27.7635216 15.60107326 23.85414886 15.56518555 C20.17335783 15.53205114 16.49362802 15.52799367 12.81274033 15.54546356 C10.8322396 15.54772074 8.85177275 15.5204172 6.87147522 15.49195862 C5.67158966 15.50309692 4.4717041 15.51423523 3.23545837 15.52571106 C1.69023939 15.52131138 1.69023939 15.52131138 0.11380386 15.51682281 C-10.87946584 17.90000132 -18.52101418 26.89537048 -26.14138794 34.5765686 C-27.41192633 35.84249246 -28.68333442 37.10754394 -29.95553035 38.37180203 C-33.43258115 41.83221281 -36.89711686 45.30491752 -40.35964 48.77985656 C-44.1022438 52.53153018 -47.85636311 56.2716509 -51.60899353 60.01329041 C-58.95181682 67.3383451 -66.2838069 74.67415105 -73.61194585 82.01389328 C-79.5682772 87.9792645 -85.52850899 93.94071235 -91.49153709 99.89938927 C-92.34077448 100.74801372 -93.19001187 101.59663818 -94.06498372 102.47097852 C-95.79028979 104.19500568 -97.51560483 105.91902386 -99.24092873 107.64303317 C-115.41117374 123.80187742 -131.56914509 139.97294993 -147.72293546 156.14824136 C-161.58080215 170.02398177 -175.44912728 183.88919676 -189.32514954 197.7467804 C-205.44479341 213.84501427 -221.55792341 229.94972227 -237.66072482 246.06480473 C-239.37804286 247.78339695 -241.09536925 249.50198083 -242.81270409 251.22055626 C-243.6576325 252.06610178 -244.50256092 252.91164729 -245.37309322 253.7828154 C-251.32485457 259.73802901 -257.28124192 265.68859138 -263.2394352 271.63736916 C-270.50054873 278.88726008 -277.75448343 286.14424329 -284.99933217 293.4103891 C-288.69518809 297.11675121 -292.39415846 300.81985461 -296.10188484 304.51434517 C-299.49730933 307.89783172 -302.88332581 311.29044858 -306.26214489 314.69051542 C-307.48455529 315.91738581 -308.71033072 317.14091472 -309.93982182 318.3606892 C-321.14829547 329.03002402 -321.14829547 329.03002402 -325.88008118 343.26069641 C-325.89762088 353.36356362 -319.01628897 360.20303328 -312.3414917 366.90332031 C-311.09385981 368.13963849 -309.84597224 369.37569869 -308.59785461 370.61152649 C-307.27916804 371.9353568 -305.96155366 373.26025586 -304.64492798 374.58613586 C-301.07981031 378.16971652 -297.49922064 381.73745064 -293.91503048 385.30194306 C-290.15935171 389.04119388 -286.41632841 392.79307722 -282.67140198 396.54309082 C-276.3820622 402.83694661 -270.08262119 409.12055229 -263.77705383 415.39814758 C-256.4949196 422.64822544 -249.22896009 429.91420965 -241.97146773 437.18894845 C-234.97869726 444.19760094 -227.97465436 451.19488294 -220.96541595 458.18706322 C-217.98744703 461.15817314 -215.01345164 464.13317772 -212.04261017 467.11141396 C-208.54198353 470.61972049 -205.03156927 474.11793517 -201.51346397 477.60871124 C-200.22653552 478.88877304 -198.94295928 480.17221556 -197.66307259 481.45931816 C-195.91043175 483.22069636 -194.14585083 484.96920471 -192.37782288 486.71511841 C-191.87857607 487.22260598 -191.37932926 487.73009356 -190.86495376 488.25295955 C-186.17215213 492.83858221 -180.21369605 496.83491114 -173.44258118 496.82319641 C-159.91845961 495.80963341 -151.59340035 485.18086486 -142.68183899 476.09736633 C-141.12474364 474.52902645 -139.56648972 472.96183612 -138.00717163 471.39570618 C-134.66341812 468.0328198 -131.32753755 464.66238285 -127.99752045 461.28589439 C-122.73331282 455.94912804 -117.449394 450.63217327 -112.1622467 445.31814575 C-104.75473518 437.86946063 -97.35388871 430.41421784 -89.96064758 422.95137024 C-89.25822928 422.24234988 -89.25822928 422.24234988 -88.5416207 421.51900587 C-83.78721817 416.71967682 -79.03381395 411.91935992 -74.2811702 407.11828921 C-71.90522883 404.71814433 -69.52916941 402.31811633 -67.1530304 399.91816711 C-66.44966143 399.2077391 -66.44966143 399.2077391 -65.73208299 398.48295899 C-57.91601511 390.58914195 -50.0881107 382.70715665 -42.25164866 374.83358461 C-36.99319552 369.54863081 -31.74933424 364.24973363 -26.51600599 358.93990457 C-23.26379512 355.64620811 -19.99924596 352.36496023 -16.73112297 349.08705902 C-15.21573132 347.56201043 -13.70554005 346.03177453 -12.20092201 344.49609566 C-10.15020418 342.40447155 -8.08188405 340.33199629 -6.0080719 338.26330566 C-5.41370937 337.64805548 -4.81934683 337.0328053 -4.20697331 336.39891118 C-1.40542758 333.64173247 -0.06163342 332.36932872 3.92088699 331.78787708 C7.61832154 332.42093823 9.21623891 333.43184298 11.68241882 336.26069641 C12.43241882 339.51069641 12.43241882 339.51069641 11.68241882 343.26069641 C5.90544518 351.72080775 -2.78112471 358.88789101 -9.99848938 366.11860657 C-11.49084907 367.61723989 -12.98302141 369.1160598 -14.47502136 370.61505127 C-19.35256507 375.5135184 -24.23533891 380.40675534 -29.11836243 385.29975891 C-30.80433576 386.9897832 -32.49027602 388.67984048 -34.1761837 390.36993027 C-42.09401106 398.30677792 -50.01422546 406.24123393 -57.93739253 414.17275107 C-67.06654043 423.31168114 -76.18733966 432.45883904 -85.30117732 441.61303675 C-92.36019043 448.70223079 -99.42688235 455.78371137 -106.49934644 462.85948598 C-110.71758226 467.08006851 -114.93247016 471.30386938 -119.13926125 475.53586197 C-123.09579671 479.51571973 -127.0617987 483.48589635 -131.03513718 487.44897652 C-132.48736698 488.90071199 -133.93621015 490.35584484 -135.38129616 491.81469154 C-155.77516559 512.39177466 -155.77516559 512.39177466 -170.43305969 512.59028625 C-171.52058533 512.58182678 -171.52058533 512.58182678 -172.63008118 512.57319641 C-173.76111267 512.56473694 -173.76111267 512.56473694 -174.91499329 512.55610657 C-191.47118181 512.19514056 -200.65571857 501.22495004 -211.72261047 490.1620636 C-213.06502727 488.82727776 -214.40784206 487.49289207 -215.75102234 486.15887451 C-219.38175937 482.54999059 -223.00598766 478.93464013 -226.62836051 475.31736279 C-228.89484958 473.05452667 -231.16262911 470.79299191 -233.43084145 468.53188324 C-241.35232843 460.634854 -249.26811109 452.73215307 -257.17915344 444.82466125 C-264.5405047 437.46694748 -271.91489334 430.1224793 -279.29531735 422.78390193 C-285.64410333 416.46984839 -291.98319456 410.14616906 -298.31498653 403.81507421 C-302.09130134 400.03955086 -305.87145426 396.26807825 -309.66161156 392.50644684 C-313.22599086 388.96829999 -316.77812172 385.41829298 -320.32139206 381.8590107 C-321.61948702 380.55910571 -322.92182105 379.26341718 -324.22878838 377.97243309 C-334.45654638 367.86211904 -341.48622493 359.2289531 -341.69258118 344.26069641 C-341.69838238 333.34166267 -338.96848892 325.80769371 -331.41577244 317.71183586 C-330.93466693 317.19539723 -330.45356142 316.6789586 -329.95787695 316.14687031 C-324.28338811 310.09336506 -318.42617752 304.22069679 -312.559021 298.35496521 C-311.30663696 297.09927247 -310.05446265 295.84337052 -308.80247742 294.58728015 C-305.39418334 291.16907459 -301.98284164 287.75392543 -298.57092392 284.33933735 C-294.87931178 280.64379022 -291.19052298 276.94542649 -287.501297 273.24749756 C-278.61481084 264.34134992 -269.7235687 255.43995779 -260.8317059 246.53917867 C-256.63822578 242.34130397 -252.44523031 238.14294524 -248.25216866 233.94465256 C-234.30794261 219.98343452 -220.36246946 206.02346396 -206.4133749 192.06711006 C-202.80273949 188.45456502 -199.19210946 184.84201459 -195.58149719 181.22944641 C-194.68418454 180.33165002 -193.78687188 179.43385362 -192.86236794 178.50885127 C-178.3035663 163.94173637 -163.7533124 149.36611463 -149.20657992 134.78694846 C-134.25456482 119.80186882 -119.29503612 104.8243236 -104.32807785 89.85416877 C-95.93138703 81.45531373 -87.53801279 73.05320197 -79.15302849 64.64265823 C-72.01901992 57.48695215 -64.87823181 50.33810006 -57.72850304 43.19809957 C-54.0826882 39.5568303 -50.44017458 35.91241352 -46.80634499 32.25918007 C-43.47729819 28.91251055 -40.13908205 25.57527636 -36.79345346 22.24518584 C-35.58756011 21.04166967 -34.3850113 19.83479058 -33.18625837 18.62416209 C-23.73249666 9.08260298 -14.19843116 0.0269496 0 0 Z " fill="#000000" transform="translate(341.3175811767578,-0.2606964111328125)"/>
<path d="M0 0 C5.06210282 4.24667637 9.34913129 9.75442512 11.44921875 16.0546875 C12.17781361 26.79250358 11.53718465 33.92273865 5.44921875 43.0546875 C5.9999707 43.03510986 6.55072266 43.01553223 7.11816406 42.99536133 C14.91060596 42.84611411 22.48292687 43.7219483 30.19921875 44.7421875 C31.48699219 44.89107422 32.77476562 45.03996094 34.1015625 45.19335938 C46.134765 46.78323846 46.134765 46.78323846 50.44921875 52.0546875 C50.51029107 55.5968821 50.33160545 57.85095918 48.20898438 60.74658203 C41.55909828 65.68971323 26.60904185 61.23140076 18.94921875 60.1796875 C17.61206666 60.00324191 16.27482706 59.82745827 14.9375 59.65234375 C7.08021242 58.6052225 -0.74195402 57.41664962 -8.55078125 56.0546875 C-3.38601804 62.15964329 2.12600015 67.82382252 7.82421875 73.4296875 C9.43847537 75.01852275 11.05057201 76.60955653 12.66015625 78.203125 C13.36446777 78.89583496 14.0687793 79.58854492 14.79443359 80.30224609 C17.16557587 82.81332005 17.43336908 83.91204043 17.82421875 87.4296875 C17.44921875 91.0546875 17.44921875 91.0546875 15.32421875 93.5546875 C11.65409267 95.46953589 10.39316273 95.2248297 6.44921875 94.0546875 C4.09746194 92.1835883 2.09115453 90.3809797 0.00073242 88.25317383 C-0.61301239 87.64819061 -1.2267572 87.0432074 -1.85910034 86.41989136 C-3.87974598 84.42121081 -5.88159902 82.40484221 -7.8828125 80.38671875 C-9.28358657 78.98931359 -10.68510209 77.59265131 -12.08732605 76.19670105 C-15.02141929 73.26997531 -17.94628871 70.33440708 -20.86499023 67.39233398 C-24.60525527 63.62358255 -28.36751893 59.87772333 -32.13698292 56.13820362 C-35.03452328 53.25873876 -37.92003912 50.36746091 -40.80206871 47.47247887 C-42.18467997 46.08653436 -43.57100916 44.70428853 -44.96109962 43.32584572 C-46.90285377 41.39680309 -48.82783632 39.45243198 -50.74926758 37.50317383 C-51.61338005 36.65424309 -51.61338005 36.65424309 -52.49494934 35.78816223 C-55.83589083 32.35711984 -57.43456474 29.89794598 -57.55078125 25.0546875 C-56.3984375 23.00878906 -56.3984375 23.00878906 -54.61328125 21.1953125 C-53.96359375 20.51791016 -53.31390625 19.84050781 -52.64453125 19.14257812 C-51.95359375 18.45357422 -51.26265625 17.76457031 -50.55078125 17.0546875 C-49.90109375 16.37083984 -49.25140625 15.68699219 -48.58203125 14.98242188 C-46.59688899 12.89684087 -44.57894324 10.84839097 -42.55078125 8.8046875 C-41.54144531 7.76441406 -41.54144531 7.76441406 -40.51171875 6.703125 C-29.54787536 -4.34538127 -14.06853268 -8.79020428 0 0 Z " fill="#030201" transform="translate(304.55078125,169.9453125)"/>
<path d="M0 0 C2.4037297 3.60559456 2.26837333 5.28506971 2.30639648 9.57592773 C2.31472 10.23984024 2.32304352 10.90375275 2.33161926 11.58778381 C2.35573999 13.78644679 2.36449846 15.98481238 2.37109375 18.18359375 C2.38006629 19.71997666 2.38918825 21.2563587 2.39845276 22.79273987 C2.41495632 26.01996986 2.42264397 29.24709605 2.42553711 32.47436523 C2.43088885 36.57975658 2.46842747 40.68414881 2.51428127 44.78925991 C2.5442706 47.96805723 2.55126553 51.1466218 2.55226326 54.32554817 C2.55643093 55.83681828 2.56872406 57.34809135 2.58978081 58.8592205 C2.75186864 71.5103187 0.99971953 81.02213208 -7.93447876 90.58625793 C-8.41633591 91.10311531 -8.89819306 91.61997268 -9.39465195 92.1524924 C-14.87861783 97.99992159 -20.53141419 103.67961203 -26.20092773 109.34619141 C-27.37850688 110.52677217 -28.5558842 111.70755428 -29.733078 112.88851929 C-32.89135693 116.05552842 -36.05277275 119.2193871 -39.21509814 122.38235521 C-41.1938701 124.36184257 -43.17192647 126.34204215 -45.1497364 128.32249069 C-52.05719217 135.23915479 -58.96718173 142.15327552 -65.87963867 149.06494141 C-72.31513917 155.49983837 -78.74500856 161.9403249 -85.172337 168.38338339 C-90.70701708 173.93112434 -96.2455307 179.47501813 -101.78706509 185.01591241 C-105.09030363 188.31889607 -108.39197227 191.62341242 -111.68978691 194.93181229 C-114.78232828 198.03401311 -117.87960506 201.13140546 -120.98062325 204.22513199 C-122.11755642 205.36101751 -123.25278033 206.49861681 -124.38616943 207.63803864 C-125.93198281 209.19154736 -127.48381861 210.73877959 -129.03733826 212.28457642 C-129.90428535 213.15206827 -130.77123243 214.01956013 -131.66445065 214.91333961 C-135.12950713 218.00914064 -136.88063449 219.01963799 -141.5625 218.9375 C-145 218 -145 218 -146.9375 215.75 C-148.10230138 212.73521996 -148.44095255 211.19444607 -148 208 C-146.01494312 205.40808392 -146.01494312 205.40808392 -143.17427063 202.59318542 C-142.39552032 201.81120198 -142.39552032 201.81120198 -141.60103768 201.01342088 C-139.85543848 199.26660933 -138.09259069 197.53831078 -136.3293457 195.80932617 C-135.07529747 194.56159879 -133.82236875 193.31274535 -132.57048035 192.06285095 C-129.87008097 189.3714873 -127.16199716 186.68818873 -124.44774818 184.01079369 C-120.15312728 179.77419919 -115.87653959 175.51971038 -111.6023407 171.26252747 C-104.06459353 163.75937517 -96.51176117 156.27155429 -88.95550537 148.78704834 C-77.59331359 137.53255188 -66.24259345 126.26651981 -54.90666074 114.98557454 C-50.65879356 110.75946052 -46.4030066 106.54153744 -42.14069998 102.32998884 C-39.48412214 99.70225399 -36.83376277 97.06831212 -34.18492317 94.43277931 C-32.95931856 93.21595297 -31.73111674 92.00173587 -30.50008011 90.79040527 C-18.98686439 80.27698467 -18.98686439 80.27698467 -13.86196899 66.19850159 C-13.85547333 65.06251022 -13.84897766 63.92651886 -13.84228516 62.75610352 C-13.83202301 61.467892 -13.82176086 60.17968048 -13.81118774 58.85243225 C-13.80774982 58.16435045 -13.8043119 57.47626865 -13.80076981 56.76733589 C-13.7889644 54.6109873 -13.76950842 52.45483752 -13.74765015 50.29856873 C-13.68608284 44.16843274 -13.63196924 38.03831873 -13.59863281 31.90795898 C-13.57768501 28.15662254 -13.54238441 24.40565148 -13.49787521 20.65452385 C-13.48371894 19.22604612 -13.4749936 17.79750378 -13.47182083 16.36895943 C-13.4669112 14.37032426 -13.44214169 12.37176777 -13.41650391 10.37329102 C-13.40437363 8.66811058 -13.40437363 8.66811058 -13.39199829 6.92848206 C-12.95956512 3.69792517 -12.23592324 2.32777016 -10 0 C-6.59868304 -1.52472829 -3.5356087 -0.9223327 0 0 Z " fill="#000000" transform="translate(510,104)"/>
<path d="M0 0 C2.90051521 1.0445737 5.67338525 2.31592307 8.46484375 3.62109375 C9.27952621 3.99282211 10.09420868 4.36455048 10.93357849 4.74754333 C13.60559168 5.96892846 16.27158759 7.20286227 18.9375 8.4375 C21.74664438 9.72866991 24.55696198 11.01725966 27.36743164 12.30554199 C29.30362912 13.19323195 31.23933338 14.08199844 33.17456055 14.97180176 C39.93215006 18.07331026 46.71970633 21.09999086 53.52734375 24.08984375 C56.26293702 25.29709391 58.99818907 26.50511474 61.73342896 27.71316528 C63.48659492 28.48425531 65.24169535 29.25096282 66.99874878 30.01315308 C69.44998679 31.07744904 71.89344282 32.15800825 74.3359375 33.2421875 C75.05696152 33.54982529 75.77798553 33.85746307 76.52085876 34.17442322 C80.80112696 36.09687518 83.52130476 37.97999829 86 42 C85.93689022 45.15548924 85.48864121 47.13769198 83.9375 49.875 C80.61269351 51.8055328 77.65070241 51.73466148 74 51 C70.56144605 49.54743664 67.26125791 47.94338239 63.953125 46.21484375 C60.6892153 44.87215074 60.15037642 44.70960468 57 46 C55.07242315 47.59030104 53.31490662 49.1696604 51.54296875 50.91796875 C51.03574783 51.41283279 50.52852692 51.90769684 50.00593567 52.41755676 C48.93882528 53.46513322 47.87580726 54.51689254 46.81665039 55.57250977 C45.19261355 57.18243089 43.54385354 58.76379456 41.89257812 60.34570312 C40.85774317 61.36814269 39.82448426 62.39218038 38.79296875 63.41796875 C38.29725876 63.88696091 37.80154877 64.35595306 37.29081726 64.8391571 C35.72421924 66.36116845 35.72421924 66.36116845 34 69 C34.2129836 74.36792967 36.55049504 78.50465878 38.94140625 83.21875 C40.14753286 86.38761401 40.33321551 88.63544892 40 92 C37.9375 94.9375 37.9375 94.9375 35 97 C31.375 97.0625 31.375 97.0625 28 96 C25.03932386 92.80844764 23.47835629 88.91430285 21.76953125 84.96484375 C21.46188843 84.26605606 21.15424561 83.56726837 20.83728027 82.8473053 C20.17229402 81.33591728 19.50954101 79.82354511 18.8487854 78.31030273 C17.07675403 74.25284822 15.28816069 70.20270997 13.5 66.15234375 C13.13143387 65.31665863 12.76286774 64.48097351 12.38313293 63.6199646 C7.8026871 53.25590547 3.06405259 42.9643856 -1.68237305 32.67553711 C-3.47200926 28.79133041 -5.24188002 24.89856024 -7 21 C-7.51643066 19.86175781 -8.03286133 18.72351563 -8.56494141 17.55078125 C-9.25402588 15.97876953 -9.25402588 15.97876953 -9.95703125 14.375 C-10.35510986 13.47523438 -10.75318848 12.57546875 -11.16333008 11.6484375 C-12.12966069 8.58956545 -12.29062996 6.19001634 -12 3 C-8.14336505 -1.5578413 -5.57145667 -1.19380777 0 0 Z " fill="#030201" transform="translate(332,118)"/>
<path d="M0 0 C3.34039375 2.69142708 4.59480652 4.90554661 5.5625 9.04296875 C5.8001709 10.02676514 6.0378418 11.01056152 6.28271484 12.02416992 C6.51941895 13.06806885 6.75612305 14.11196777 7 15.1875 C7.38019287 16.79105347 7.38019287 16.79105347 7.76806641 18.42700195 C8.27998493 20.5918759 8.78605891 22.75814063 9.28613281 24.92578125 C9.92699047 27.68558959 10.59240469 30.43738341 11.2734375 33.1875 C11.64098141 34.68741271 12.00819437 36.18740657 12.375 37.6875 C12.62636719 38.70009888 12.62636719 38.70009888 12.8828125 39.7331543 C13.71398255 43.22487461 14.17848354 46.40973493 14 50 C15.30283936 50.12528076 16.60567871 50.25056152 17.94799805 50.37963867 C22.67044269 50.90681378 27.21422141 51.82319784 31.83203125 52.92578125 C32.63106369 53.11464401 33.43009613 53.30350677 34.25334167 53.49809265 C35.92539414 53.89601727 37.59672262 54.29699563 39.26733398 54.70092773 C41.82023056 55.31435756 44.37753933 55.90634391 46.93554688 56.49804688 C48.56802181 56.88931939 50.20019504 57.28185336 51.83203125 57.67578125 C52.59248245 57.84886307 53.35293365 58.02194489 54.13642883 58.20027161 C58.48242566 59.2794574 61.2824318 60.36685718 64 64 C64.76876191 68.01464553 64.32068052 69.51380695 62.0625 72.9375 C57.85940424 75.76815633 54.75339405 74.86354488 50 74 C45.01752922 72.9295431 40.07080677 71.72664831 35.125 70.5 C33.79438947 70.1752947 32.46366096 69.85107247 31.1328125 69.52734375 C21.52060208 67.17353403 21.52060208 67.17353403 18 66 C18.42796875 67.20398438 18.8559375 68.40796875 19.296875 69.6484375 C21.36868113 75.87604298 22.81108229 82.22670573 24.25 88.625 C24.53101563 89.81351562 24.81203125 91.00203125 25.1015625 92.2265625 C27.59483647 103.28583716 27.59483647 103.28583716 26 109 C23.75662843 111.57572291 22.36710755 111.93881541 19 112.5 C16 112 16 112 13.94189453 109.92407227 C11.68737406 106.5292531 10.86312838 103.67785155 9.9296875 99.71484375 C9.76252228 99.01790909 9.59535706 98.32097443 9.42312622 97.60292053 C9.07261401 96.13102601 8.72839454 94.65762027 8.39013672 93.18286133 C7.88143645 90.96555498 7.3547457 88.75318964 6.82421875 86.54101562 C4.89450535 78.40532476 3.22851806 70.27607022 2 62 C0.77216797 61.79697266 0.77216797 61.79697266 -0.48046875 61.58984375 C-9.44927802 60.01156014 -18.35009814 58.12351286 -27.22280884 56.07473755 C-29.16494907 55.63016214 -31.1111659 55.20351923 -33.05737305 54.77709961 C-34.26949463 54.49229736 -35.48161621 54.20749512 -36.73046875 53.9140625 C-37.81739014 53.6660791 -38.90431152 53.4180957 -40.02416992 53.16259766 C-43.64853449 51.74663047 -45.52239339 49.97290216 -48 47 C-48.6767545 43.31544773 -48.49791771 41.75683492 -46.4375 38.625 C-42.25559089 35.8370606 -37.98312467 36.81372974 -33.20776367 37.71850586 C-31.85913617 38.04227993 -30.51257208 38.37474424 -29.16796875 38.71484375 C-28.0912365 38.97763878 -28.0912365 38.97763878 -26.99275208 39.2457428 C-25.48846411 39.61441643 -23.98510564 39.98690187 -22.48266602 40.36303711 C-20.17855273 40.93973943 -17.87186907 41.50503162 -15.56445312 42.06835938 C-14.0987974 42.42903414 -12.63329675 42.7903398 -11.16796875 43.15234375 C-10.47841599 43.3221727 -9.78886322 43.49200165 -9.07841492 43.66697693 C-4.23528977 44.88235511 -4.23528977 44.88235511 -2 46 C-2.31453125 44.82566406 -2.6290625 43.65132813 -2.953125 42.44140625 C-4.08983071 38.1780912 -5.20798824 33.91016684 -6.31542969 29.63916016 C-6.75611622 27.94022242 -7.19927943 26.24192418 -7.64550781 24.54443359 C-8.23596207 22.28290903 -8.80805702 20.01751747 -9.375 17.75 C-9.55450195 17.07267822 -9.73400391 16.39535645 -9.91894531 15.69750977 C-11.14965196 10.65875612 -11.56163501 5.68948253 -8.875 1.0625 C-5.81547541 -0.6712306 -3.43182475 -0.42145216 0 0 Z " fill="#040201" transform="translate(184,264)"/>
<path d="M0 0 C2 1.625 2 1.625 3 4 C3.17155708 8.07058172 2.76871066 10.02244887 0.22607422 13.25585938 C-2.13774447 15.72840045 -4.57121287 18.0935369 -7.0625 20.4375 C-7.91650391 21.26443359 -8.77050781 22.09136719 -9.65039062 22.94335938 C-11.75401417 24.9764704 -13.87033353 26.9942437 -16 29 C-14.60652624 32.15204981 -12.97514921 34.26171773 -10.5234375 36.671875 C-9.853125 37.33574219 -9.1828125 37.99960937 -8.4921875 38.68359375 C-7.44417969 39.70646484 -7.44417969 39.70646484 -6.375 40.75 C-5.66859375 41.44738281 -4.9621875 42.14476562 -4.234375 42.86328125 C-2.49401297 44.58012488 -0.74915019 46.29211832 1 48 C4.13186511 46.62182503 6.13617198 45.0560881 8.4609375 42.55859375 C9.41613281 41.55989258 9.41613281 41.55989258 10.390625 40.54101562 C11.71182519 39.14049141 13.02697001 37.73422956 14.3359375 36.32226562 C19.21536078 31.25101018 19.21536078 31.25101018 23.296875 29.9453125 C26 30 26 30 28.875 31.4375 C31.2318678 34.27960529 31.70551659 36.06751274 31.60595703 39.74243164 C30.30486706 44.5898043 26.084579 47.71176139 22.5 51 C21.68917969 51.77472656 20.87835938 52.54945313 20.04296875 53.34765625 C18.04550565 55.25112109 16.03187316 57.13342315 14 59 C15.39347376 62.15204981 17.02485079 64.26171773 19.4765625 66.671875 C20.48203125 67.66767578 20.48203125 67.66767578 21.5078125 68.68359375 C22.20648438 69.36550781 22.90515625 70.04742187 23.625 70.75 C24.33140625 71.44738281 25.0378125 72.14476562 25.765625 72.86328125 C27.50598703 74.58012488 29.25084981 76.29211832 31 78 C34.23821281 76.59078189 36.25364328 74.92309836 38.64453125 72.33984375 C39.32193359 71.62892578 39.99933594 70.91800781 40.69726562 70.18554688 C42.10388936 68.69060327 43.50240987 67.18799228 44.89257812 65.67773438 C48.18447917 62.24880055 50.18528468 60.23883891 54.82421875 58.87890625 C58 59 58 59 61 61 C63 64 63 64 62.96899414 67.28930664 C61.80202642 71.75812559 59.69087418 74.21114863 56.49609375 77.37109375 C55.93938492 77.93828629 55.38267609 78.50547882 54.80909729 79.08985901 C53.63216299 80.27959043 52.44747895 81.4616997 51.25561523 82.63647461 C49.44222546 84.43281896 47.66932504 86.26333883 45.89648438 88.09960938 C44.74445156 89.25486634 43.59022338 90.40793908 42.43359375 91.55859375 C41.64715736 92.37873207 41.64715736 92.37873207 40.84483337 93.21543884 C37.96896145 95.98688647 36.19859566 96.97390348 32.21228027 97.49772644 C27.12428045 97.32890564 24.72789468 94.84278811 21.32446289 91.31201172 C20.71042603 90.70717453 20.09638916 90.10233734 19.46374512 89.47917175 C17.44653872 87.48182438 15.4596087 85.45709907 13.47265625 83.4296875 C12.07539799 82.03019875 10.67672999 80.63211621 9.27671814 79.23538208 C6.35003927 76.30696154 3.43752272 73.36536017 0.53491211 70.41308594 C-3.18449617 66.63128378 -6.93199355 62.87890929 -10.68982601 59.13532829 C-13.57941721 56.25215071 -16.45626872 53.35653553 -19.32916451 50.45672989 C-20.70660135 49.06842125 -22.08734817 47.68338853 -23.4714489 46.30172348 C-25.40374379 44.36800017 -27.31891701 42.41879656 -29.23022461 40.46435547 C-30.08962395 39.61306816 -30.08962395 39.61306816 -30.96638489 38.74458313 C-34.2887495 35.30441535 -35.87120648 32.83369027 -36 28 C-34.92895508 26.03100586 -34.92895508 26.03100586 -33.20703125 24.27734375 C-32.55814941 23.6004248 -31.90926758 22.92350586 -31.24072266 22.22607422 C-30.13156494 21.12416748 -30.13156494 21.12416748 -29 20 C-28.19997559 19.1764502 -27.39995117 18.35290039 -26.57568359 17.50439453 C-23.96821156 14.83435509 -21.3321891 12.19564863 -18.6875 9.5625 C-17.78193359 8.65306641 -16.87636719 7.74363281 -15.94335938 6.80664062 C-15.07904297 5.94361328 -14.21472656 5.08058594 -13.32421875 4.19140625 C-12.54135498 3.40967041 -11.75849121 2.62793457 -10.9519043 1.82250977 C-7.24369373 -1.63987821 -4.85938958 -1.10828183 0 0 Z " fill="#020101" transform="translate(128,322)"/>
<path d="M0 0 C2 1 2 1 3 3 C3.90856625 9.64389073 3.90856625 9.64389073 1.68359375 12.96484375 C-0.13162507 14.91813291 -2.01773668 16.71672837 -4 18.5 C-4.66773438 19.13164062 -5.33546875 19.76328125 -6.0234375 20.4140625 C-7.6656473 21.96243174 -9.32342835 23.48904713 -11 25 C-9.41362217 28.89880099 -6.90654953 31.28497856 -3.90771484 34.19238281 C-3.39048355 34.69705582 -2.87325226 35.20172882 -2.34034729 35.72169495 C-1.21995279 36.81444768 -0.09747507 37.90506769 1.02684402 38.99378204 C2.80653698 40.72007516 4.57723316 42.45511044 6.3453064 44.19329834 C11.37146286 49.13406978 16.40240151 54.069554 21.46582031 58.97216797 C24.56529508 61.97447925 27.64478998 64.99607144 30.71223068 68.03108978 C31.88277839 69.1818689 33.06059459 70.32530379 34.24574661 71.46103668 C35.90497999 73.05258526 37.53756242 74.66757994 39.16650391 76.29003906 C40.1020108 77.20174866 41.0375177 78.11345825 42.00137329 79.05279541 C44.72541306 83.06970486 44.46236687 85.22137049 44 90 C43 92 43 92 41 93 C34.02624165 93.70254797 34.02624165 93.70254797 29.94995117 90.9119873 C28.96052785 89.94553054 27.99244867 88.95689802 27.04296875 87.95117188 C26.50535416 87.41472549 25.96773956 86.87827911 25.41383362 86.32557678 C23.65207568 84.55827164 21.92031063 82.76440753 20.1875 80.96875 C18.96757791 79.73389757 17.74587032 78.50080672 16.52246094 77.26940918 C13.31519048 74.03166817 10.13267331 70.77062796 6.95477295 67.50408936 C3.70455164 64.17186914 0.43141829 60.86232482 -2.83984375 57.55078125 C-9.24915201 51.05580659 -15.63253087 44.53597932 -22 38 C-25.9717011 39.82261544 -28.63426823 42.43982418 -31.625 45.5625 C-37.75414648 51.90939247 -37.75414648 51.90939247 -42.4375 52.25 C-46 52 -46 52 -47.9375 51 C-49.72662008 47.63224456 -49.89335011 44.62696321 -49 41 C-46.53686427 37.32500617 -43.46192169 34.34091579 -40.3125 31.25 C-39.42143555 30.35128174 -38.53037109 29.45256348 -37.61230469 28.52661133 C-35.72470622 26.63357357 -33.83113096 24.75066748 -31.92236328 22.87939453 C-29.48482459 20.48744203 -27.08498854 18.06134315 -24.69425964 15.62271118 C-22.3989346 13.29142088 -20.07322365 10.99093824 -17.75 8.6875 C-16.89446533 7.81577148 -16.03893066 6.94404297 -15.1574707 6.04589844 C-10.03558518 1.08147781 -7.21838557 -1.2431664 0 0 Z " fill="#020100" transform="translate(240,209)"/>
<path d="M0 0 C7.89104184 5.06640754 12.11592255 10.4844864 15.0625 19.32421875 C15.99340334 29.48785191 14.2476524 36.57837552 7.9375 44.57421875 C2.14991816 50.70513171 -3.99831676 53.57893677 -12.4375 53.88671875 C-20.47608581 53.5549375 -28.21380544 51.21144744 -33.9375 45.32421875 C-40.23031904 36.5841923 -42.07171445 29.14651493 -40.9375 18.32421875 C-38.57958089 10.53466456 -33.69097273 4.46523896 -26.9453125 0.0078125 C-18.62140588 -4.36757431 -8.32516375 -4.3615288 0 0 Z M-23.3125 17.57421875 C-25.3317663 20.99143864 -25.86786048 23.35476605 -25.9375 27.32421875 C-24.28935604 31.99395997 -22.15925909 34.73359386 -17.9375 37.32421875 C-13.90472277 38.42406709 -11.70503416 38.59511316 -7.75 37.19921875 C-4.54357529 35.06160228 -2.81323736 33.71497474 -0.9375 30.32421875 C-0.19912573 26.19760369 -0.0597977 22.30208246 -1.78515625 18.4140625 C-4.43861675 14.75318648 -7.57957142 13.17459988 -11.8828125 12.37890625 C-16.67987358 12.25122782 -19.94555602 14.38448235 -23.3125 17.57421875 Z " fill="#020101" transform="translate(450.9375,48.67578125)"/>
<path d="M0 0 C3.48805691 1.98102187 6.19713391 4.39426782 8 8 C8.23828125 10.171875 8.23828125 10.171875 8.3125 12.75 C8.36857422 14.01070312 8.36857422 14.01070312 8.42578125 15.296875 C7.45512952 21.45917771 2.56000521 25.71205533 -1.75 29.875 C-2.25660156 30.37257812 -2.76320313 30.87015625 -3.28515625 31.3828125 C-4.51885307 32.59323202 -5.75877784 33.79729853 -7 35 C-10.2586636 33.5735422 -12.4024854 31.83295838 -14.890625 29.3046875 C-15.59960938 28.58925781 -16.30859375 27.87382812 -17.0390625 27.13671875 C-17.76867187 26.39035156 -18.49828125 25.64398438 -19.25 24.875 C-19.99507813 24.12089844 -20.74015625 23.36679688 -21.5078125 22.58984375 C-23.3431342 20.73099228 -25.1736191 18.86762995 -27 17 C-25.18702093 13.06986834 -22.63177057 10.36823909 -19.5625 7.375 C-19.07201172 6.88515625 -18.58152344 6.3953125 -18.07617188 5.890625 C-12.27011964 0.15509162 -8.0850439 -1.3287398 0 0 Z " fill="#FB9366" transform="translate(293,181)"/>
<path d="M0 0 C4.2461604 1.34118566 8.23734092 2.94212894 12.2734375 4.8203125 C14.00400391 5.62275391 14.00400391 5.62275391 15.76953125 6.44140625 C16.95933594 6.99699219 18.14914062 7.55257812 19.375 8.125 C20.60012358 8.69430498 21.82538279 9.26331817 23.05078125 9.83203125 C26.03519934 11.2184932 29.01820703 12.6079036 32 14 C32 17 32 17 30.56298828 18.80932617 C29.90540527 19.46392822 29.24782227 20.11853027 28.5703125 20.79296875 C27.85746094 21.50517578 27.14460938 22.21738281 26.41015625 22.95117188 C25.27900391 24.0581543 25.27900391 24.0581543 24.125 25.1875 C23.37863281 25.93708984 22.63226563 26.68667969 21.86328125 27.45898438 C16.26680505 33 16.26680505 33 14 33 C12.16265105 28.94510838 10.32969151 24.88827019 8.50073242 20.82958984 C7.87823125 19.44981752 7.25454439 18.07057949 6.62963867 16.69189453 C5.73041795 14.70745675 4.83551137 12.72112194 3.94140625 10.734375 C3.40201416 9.54038086 2.86262207 8.34638672 2.30688477 7.11621094 C1.29750009 4.70937626 0.50966835 2.5455868 0 0 Z " fill="#F99265" transform="translate(343,140)"/>
</svg>
